<?xml version="1.0" standalone="no"?>
<!DOCTYPE svg PUBLIC "-//W3C//DTD SVG 1.1//EN" "http://www.w3.org/Graphics/SVG/1.1/DTD/svg11.dtd" >
<svg xmlns="http://www.w3.org/2000/svg" xmlns:xlink="http://www.w3.org/1999/xlink" version="1.1">
<metadata>
Created by FontForge 20150824 at Thu May 26 01:17:52 2016
 By Everything Fonts
Copyright (c) 2014 by (c) 2009 Designed by Svetoslav Simov (c) Fontfabric, Inc. All rights reserved.
</metadata>
<defs>
<font id="iCielUniSans-Heavy" horiz-adv-x="648" >
  <font-face 
    font-family="iCiel Uni Sans Heavy"
    font-weight="900"
    font-stretch="normal"
    units-per-em="1000"
    panose-1="0 0 5 0 0 0 0 0 0 0"
    ascent="756"
    descent="-244"
    x-height="518"
    cap-height="708"
    bbox="-706 -254 1075 1094"
    underline-thickness="50"
    underline-position="-75"
    unicode-range="U+001D-FB02"
  />
<missing-glyph horiz-adv-x="601" 
d="M551 0v700h-529v-700h529zM287 458l-70 104h139c-11 -15 -23 -33 -36 -54zM232 363l8 -14l-88 -127v262zM338 349l8 14l80 121v-262zM355 139h-139l70 102c43 -65 66 -99 69 -102z" />
    <glyph glyph-name="fi" unicode="FI" horiz-adv-x="583" 
d="M432 709c-20 -17 -30 -40 -30 -70s10 -53 30 -70c19 -16 41 -24 67 -23c26 0 48 8 67 23c20 17 30 41 30 70s-10 53 -30 70c-19 15 -41 23 -67 23c-26 1 -48 -7 -67 -23zM355 706v-145c-27 6 -49 5 -66 -4c-16 -9 -24 -22 -24 -39v-27h85v-143h-85v-348h-169v518
c0 67 24 118 73 154c49 37 111 48 186 34zM584 0h-168v518h168v-518z" />
    <glyph glyph-name="fl" unicode="FL" horiz-adv-x="619" 
d="M660 5v147c-23 -6 -42 -4 -57 6c-13 9 -19 21 -19 38v512h-169v-514c0 -67 23 -120 70 -157c49 -39 107 -50 175 -32zM355 561v145c-75 14 -137 3 -186 -34c-49 -36 -73 -87 -73 -154v-518h169v348h85v143h-85v27c0 17 8 30 24 39c17 9 39 10 66 4z" />
    <glyph glyph-name=".notdef" horiz-adv-x="601" 
d="M551 0v700h-529v-700h529zM287 458l-70 104h139c-11 -15 -23 -33 -36 -54zM232 363l8 -14l-88 -127v262zM338 349l8 14l80 121v-262zM355 139h-139l70 102c43 -65 66 -99 69 -102z" />
    <glyph glyph-name="A" unicode="A" 
d="M651 0l-253 708h-163l-247 -708h192l44 142h189l46 -142h192zM370 301h-106l52 207h5z" />
    <glyph glyph-name="Aacute" unicode="&#xc1;" 
d="M370 756l131 166h-186l-100 -166h155zM651 0l-253 708h-163l-247 -708h192l44 142h189l46 -142h192zM370 301h-106l52 207h5z" />
    <glyph glyph-name="Abreve" unicode="&#x102;" 
d="M491 922h-135c0 -25 -13 -38 -39 -38s-39 13 -39 38h-137c0 -55 18 -98 55 -130c33 -29 73 -44 120 -44s87 15 120 44c37 32 55 75 55 130zM651 0l-253 708h-163l-247 -708h192l44 142h189l46 -142h192zM370 301h-106l52 207h5z" />
    <glyph glyph-name="Acircumflex" unicode="&#xc2;" 
d="M526 756l-150 168h-117l-154 -168h169l44 52l46 -52h162zM651 0l-253 708h-163l-247 -708h192l44 142h189l46 -142h192zM370 301h-106l52 207h5z" />
    <glyph glyph-name="Adieresis" unicode="&#xc4;" 
d="M137 895c-16 -17 -24 -37 -24 -61c0 -23 8 -43 24 -59c17 -16 37 -24 60 -24s43 8 60 24c16 16 24 36 24 59c0 24 -8 44 -24 61c-17 16 -37 24 -60 24s-43 -8 -60 -24zM378 895c-16 -17 -24 -37 -24 -61c0 -23 8 -43 24 -59s36 -24 60 -24s44 8 61 24c16 16 24 36 24 59
c0 24 -8 44 -24 61c-17 16 -37 24 -61 24s-44 -8 -60 -24zM651 0l-253 708h-163l-247 -708h192l44 142h189l46 -142h192zM370 301h-106l52 207h5z" />
    <glyph glyph-name="Agrave" unicode="&#xc0;" 
d="M265 756h155l-100 166h-186zM651 0l-253 708h-163l-247 -708h192l44 142h189l46 -142h192zM370 301h-106l52 207h5z" />
    <glyph glyph-name="Amacron" unicode="&#x100;" 
d="M168 892v-134h297v134h-297zM651 0l-253 708h-163l-247 -708h192l44 142h189l46 -142h192zM370 301h-106l52 207h5z" />
    <glyph glyph-name="Aogonek" unicode="&#x104;" 
d="M697 -204l-28 107c-15 -9 -28 -14 -40 -14c-22 -1 -32 10 -29 33c3 24 20 50 51 78l-253 708h-163l-247 -708h192l44 142h189l46 -142h54c-53 -63 -71 -120 -56 -170c15 -49 56 -74 125 -74c44 0 82 13 115 40zM370 301h-106l52 207h5z" />
    <glyph glyph-name="Aring" unicode="&#xc5;" 
d="M413 142l46 -142h192l-245 687c27 25 41 56 41 93c0 34 -12 64 -37 90c-25 27 -56 41 -91 41c-36 0 -67 -13 -93 -38c-25 -25 -38 -56 -38 -92c0 -37 13 -68 40 -93l-240 -688h192l44 142h189zM281 779c0 27 13 40 38 40c10 0 19 -4 26 -12s10 -17 10 -28
c0 -23 -12 -35 -36 -35c-11 0 -21 4 -28 12c-7 7 -10 14 -10 23zM316 508h5l49 -207h-106z" />
    <glyph glyph-name="Atilde" unicode="&#xc3;" 
d="M126 798l87 -49c15 31 39 40 72 28c56 -20 90 -30 102 -30c50 -1 85 36 104 113l-91 52c-13 -29 -34 -38 -63 -26c-51 20 -79 30 -84 30c-69 2 -112 -37 -127 -118zM651 0l-253 708h-163l-247 -708h192l44 142h189l46 -142h192zM370 301h-106l52 207h5z" />
    <glyph glyph-name="AE" unicode="&#xc6;" horiz-adv-x="834" 
d="M536 532h245v176h-505l-302 -708h215l69 192h108v-192h415v171h-245v95h220v173h-220v93zM375 345h-72l68 180h8z" />
    <glyph glyph-name="B" unicode="B" horiz-adv-x="624" 
d="M553 377c47 24 72 62 73 115c2 66 -19 119 -63 159c-42 38 -98 57 -167 57h-284v-708h289c149 0 233 61 252 183c6 34 3 67 -10 99c-17 41 -47 73 -90 95zM396 431h-104v126h104c21 0 38 -7 50 -20c11 -11 17 -26 16 -43c0 -17 -6 -32 -17 -43c-12 -13 -28 -20 -49 -20z
M396 157h-104v145h104c25 0 45 -8 60 -23c13 -13 20 -30 20 -49c0 -20 -7 -37 -20 -50c-15 -15 -35 -23 -60 -23z" />
    <glyph glyph-name="C" unicode="C" horiz-adv-x="582" 
d="M612 149l-156 72c-19 -47 -57 -68 -114 -63c-24 2 -44 10 -59 23c-17 13 -26 30 -26 51v244c0 45 28 70 85 76s97 -13 121 -56l146 59c-49 109 -132 163 -249 163c-77 0 -141 -20 -194 -61c-59 -45 -88 -105 -88 -181v-244c0 -76 29 -136 87 -181c53 -41 117 -61 192 -61
c115 0 200 53 255 159z" />
    <glyph glyph-name="Cacute" unicode="&#x106;" horiz-adv-x="582" 
d="M412 756l131 166h-186l-100 -166h155zM612 149l-156 72c-19 -47 -57 -68 -114 -63c-24 2 -44 10 -59 23c-17 13 -26 30 -26 51v244c0 45 28 70 85 76s97 -13 121 -56l146 59c-49 109 -132 163 -249 163c-77 0 -141 -20 -194 -61c-59 -45 -88 -105 -88 -181v-244
c0 -76 29 -136 87 -181c53 -41 117 -61 192 -61c115 0 200 53 255 159z" />
    <glyph glyph-name="Ccaron" unicode="&#x10c;" horiz-adv-x="582" 
d="M319 924h-168l150 -168h122l150 168h-167l-46 -52zM612 149l-156 72c-19 -47 -57 -68 -114 -63c-24 2 -44 10 -59 23c-17 13 -26 30 -26 51v244c0 45 28 70 85 76s97 -13 121 -56l146 59c-49 109 -132 163 -249 163c-77 0 -141 -20 -194 -61c-59 -45 -88 -105 -88 -181
v-244c0 -76 29 -136 87 -181c53 -41 117 -61 192 -61c115 0 200 53 255 159z" />
    <glyph glyph-name="Ccedilla" unicode="&#xc7;" horiz-adv-x="582" 
d="M612 149l-156 72c-19 -47 -57 -68 -114 -63c-24 2 -44 10 -59 23c-17 13 -26 30 -26 51v244c0 45 28 70 85 76s97 -13 121 -56l146 59c-49 109 -132 163 -249 163c-77 0 -141 -20 -194 -61c-59 -45 -88 -105 -88 -181v-244c0 -65 22 -120 66 -163c40 -39 92 -64 155 -74
l-31 -69c25 -2 45 -8 60 -19c14 -10 19 -21 16 -33c-5 -17 -19 -24 -43 -21c-21 3 -43 13 -68 30l-32 -86c41 -34 90 -51 146 -51c35 0 65 10 90 30c23 18 39 41 47 68c8 28 6 53 -5 75c-13 25 -35 42 -67 50l13 29c85 21 147 72 187 151z" />
    <glyph glyph-name="Cdotaccent" unicode="&#x10a;" horiz-adv-x="582" 
d="M290 920c-19 -19 -29 -42 -29 -69s10 -51 29 -70s42 -28 70 -28s51 9 70 28c18 19 27 42 27 70c0 27 -9 50 -27 69c-19 19 -42 28 -70 28s-51 -9 -70 -28zM612 149l-156 72c-19 -47 -57 -68 -114 -63c-24 2 -44 10 -59 23c-17 13 -26 30 -26 51v244c0 45 28 70 85 76
s97 -13 121 -56l146 59c-49 109 -132 163 -249 163c-77 0 -141 -20 -194 -61c-59 -45 -88 -105 -88 -181v-244c0 -76 29 -136 87 -181c53 -41 117 -61 192 -61c115 0 200 53 255 159z" />
    <glyph glyph-name="D" unicode="D" horiz-adv-x="636" 
d="M377 708h-265v-708h265c77 -1 141 18 191 55c56 42 84 101 84 178v238c0 78 -28 138 -84 180c-50 38 -114 57 -191 57zM383 168h-91v373h91c59 0 89 -25 89 -75v-221c0 -51 -30 -77 -89 -77z" />
    <glyph glyph-name="Eth" unicode="&#xd0;" horiz-adv-x="642" 
d="M76 708v-280h-48v-143h48v-285h286c76 0 136 18 181 55c49 41 73 100 73 178v241c0 79 -24 138 -73 179c-45 37 -105 55 -181 55h-286zM362 176h-105v109h83v143h-83v104h105c49 0 74 -19 74 -58v-241c0 -38 -25 -57 -74 -57z" />
    <glyph glyph-name="Dcaron" unicode="&#x10e;" horiz-adv-x="636" 
d="M304 924h-168l150 -168h122l150 168h-167l-46 -52zM377 708h-265v-708h265c77 -1 141 18 191 55c56 42 84 101 84 178v238c0 78 -28 138 -84 180c-50 38 -114 57 -191 57zM383 168h-91v373h91c59 0 89 -25 89 -75v-221c0 -51 -30 -77 -89 -77z" />
    <glyph glyph-name="Dcroat" unicode="&#x110;" horiz-adv-x="642" 
d="M76 708v-280h-48v-143h48v-285h286c76 0 136 18 181 55c49 41 73 100 73 178v241c0 79 -24 138 -73 179c-45 37 -105 55 -181 55h-286zM362 176h-105v109h83v143h-83v104h105c49 0 74 -19 74 -58v-241c0 -38 -25 -57 -74 -57z" />
    <glyph glyph-name="E" unicode="E" horiz-adv-x="588" 
d="M293 430v110h312v168h-493v-708h493v169h-312v106h287v155h-287z" />
    <glyph glyph-name="Eacute" unicode="&#xc9;" horiz-adv-x="588" 
d="M417 756l131 166h-186l-100 -166h155zM293 430v110h312v168h-493v-708h493v169h-312v106h287v155h-287z" />
    <glyph glyph-name="Ecaron" unicode="&#x11a;" horiz-adv-x="588" 
d="M324 924h-168l150 -168h122l150 168h-167l-46 -52zM293 430v110h312v168h-493v-708h493v169h-312v106h287v155h-287z" />
    <glyph glyph-name="Ecircumflex" unicode="&#xca;" horiz-adv-x="588" 
d="M573 756l-150 168h-117l-154 -168h169l44 52l46 -52h162zM293 430v110h312v168h-493v-708h493v169h-312v106h287v155h-287z" />
    <glyph glyph-name="Edieresis" unicode="&#xcb;" horiz-adv-x="588" 
d="M184 895c-16 -17 -24 -37 -24 -61c0 -23 8 -43 24 -59c17 -16 37 -24 60 -24s43 8 60 24c16 16 24 36 24 59c0 24 -8 44 -24 61c-17 16 -37 24 -60 24s-43 -8 -60 -24zM425 895c-16 -17 -24 -37 -24 -61c0 -23 8 -43 24 -59s36 -24 60 -24s44 8 61 24c16 16 24 36 24 59
c0 24 -8 44 -24 61c-17 16 -37 24 -61 24s-44 -8 -60 -24zM293 430v110h312v168h-493v-708h493v169h-312v106h287v155h-287z" />
    <glyph glyph-name="Edotaccent" unicode="&#x116;" horiz-adv-x="588" 
d="M295 920c-19 -19 -29 -42 -29 -69s10 -51 29 -70s42 -28 70 -28s51 9 70 28c18 19 27 42 27 70c0 27 -9 50 -27 69c-19 19 -42 28 -70 28s-51 -9 -70 -28zM293 430v110h312v168h-493v-708h493v169h-312v106h287v155h-287z" />
    <glyph glyph-name="Egrave" unicode="&#xc8;" horiz-adv-x="588" 
d="M312 756h155l-100 166h-186zM293 430v110h312v168h-493v-708h493v169h-312v106h287v155h-287z" />
    <glyph glyph-name="Emacron" unicode="&#x112;" horiz-adv-x="588" 
d="M215 892v-134h297v134h-297zM293 430v110h312v168h-493v-708h493v169h-312v106h287v155h-287z" />
    <glyph glyph-name="Eogonek" unicode="&#x118;" horiz-adv-x="588" 
d="M652 -204l-28 107c-15 -9 -28 -14 -40 -14c-22 -1 -32 10 -29 32c3 23 19 50 50 79v169h-312v106h287v155h-287v110h312v168h-493v-708h356c-53 -63 -71 -120 -56 -170c15 -49 56 -74 125 -74c44 0 82 13 115 40z" />
    <glyph glyph-name="F" unicode="F" horiz-adv-x="576" 
d="M293 411v127h312v170h-493v-708h181v244h273v167h-273z" />
    <glyph glyph-name="G" unicode="G" horiz-adv-x="623" 
d="M454 498l150 69c-43 101 -125 151 -246 151c-76 0 -140 -20 -192 -60c-59 -45 -88 -105 -88 -180v-243c0 -77 29 -138 88 -184c52 -41 116 -61 192 -61c77 0 141 20 192 61c57 45 86 107 86 184v176h-285v-150h113v-26c0 -26 -11 -47 -32 -62c-19 -14 -43 -21 -71 -21
c-29 0 -53 7 -72 21c-21 15 -32 36 -32 62v243c0 22 8 41 25 56c16 13 36 22 59 25c56 6 94 -14 113 -61z" />
    <glyph glyph-name="Gbreve" unicode="&#x11e;" horiz-adv-x="623" 
d="M531 922h-135c0 -25 -13 -38 -39 -38s-39 13 -39 38h-137c0 -55 18 -98 55 -130c33 -29 73 -44 120 -44s87 15 120 44c37 32 55 75 55 130zM454 498l150 69c-43 101 -125 151 -246 151c-76 0 -140 -20 -192 -60c-59 -45 -88 -105 -88 -180v-243c0 -77 29 -138 88 -184
c52 -41 116 -61 192 -61c77 0 141 20 192 61c57 45 86 107 86 184v176h-285v-150h113v-26c0 -26 -11 -47 -32 -62c-19 -14 -43 -21 -71 -21c-29 0 -53 7 -72 21c-21 15 -32 36 -32 62v243c0 22 8 41 25 56c16 13 36 22 59 25c56 6 94 -14 113 -61z" />
    <glyph glyph-name="Gcommaaccent" unicode="&#x122;" horiz-adv-x="623" 
d="M454 498l150 69c-43 101 -125 151 -246 151c-76 0 -140 -20 -192 -60c-59 -45 -88 -105 -88 -180v-243c0 -77 29 -138 88 -184c52 -41 116 -61 192 -61c77 0 141 20 192 61c57 45 86 107 86 184v176h-285v-150h113v-26c0 -26 -11 -47 -32 -62c-19 -14 -43 -21 -71 -21
c-29 0 -53 7 -72 21c-21 15 -32 36 -32 62v243c0 22 8 41 25 56c16 13 36 22 59 25c56 6 94 -14 113 -61zM392 -250l75 204h-177l-61 -204h163z" />
    <glyph glyph-name="Gdotaccent" unicode="&#x120;" horiz-adv-x="623" 
d="M288 920c-19 -19 -29 -42 -29 -69s10 -51 29 -70s42 -28 70 -28s51 9 70 28c18 19 27 42 27 70c0 27 -9 50 -27 69c-19 19 -42 28 -70 28s-51 -9 -70 -28zM454 498l150 69c-43 101 -125 151 -246 151c-76 0 -140 -20 -192 -60c-59 -45 -88 -105 -88 -180v-243
c0 -77 29 -138 88 -184c52 -41 116 -61 192 -61c77 0 141 20 192 61c57 45 86 107 86 184v176h-285v-150h113v-26c0 -26 -11 -47 -32 -62c-19 -14 -43 -21 -71 -21c-29 0 -53 7 -72 21c-21 15 -32 36 -32 62v243c0 22 8 41 25 56c16 13 36 22 59 25c56 6 94 -14 113 -61z
" />
    <glyph glyph-name="H" unicode="H" horiz-adv-x="676" 
d="M292 0v267h204v-267h180v708h-180v-268h-204v268h-180v-708h180z" />
    <glyph glyph-name="Hbar" unicode="&#x126;" horiz-adv-x="697" 
d="M639 0v518h58v104h-58v86h-180v-86h-204v86h-180v-86h-59v-104h59v-518h180v267h204v-267h180zM255 440v78h204v-78h-204z" />
    <glyph glyph-name="I" unicode="I" horiz-adv-x="291" 
d="M291 0v708h-179v-708h179z" />
    <glyph glyph-name="IJ" unicode="&#x132;" horiz-adv-x="878" 
d="M291 0v708h-179v-708h179zM519 243l-169 -35c9 -71 40 -126 93 -165c47 -35 104 -53 170 -53c72 0 134 21 186 63c56 45 84 105 84 178v477h-338v-162h161v-315c0 -20 -9 -36 -26 -49s-37 -19 -60 -19c-58 0 -92 27 -101 80z" />
    <glyph glyph-name="Iacute" unicode="&#xcd;" horiz-adv-x="291" 
d="M241 756l131 166h-186l-100 -166h155zM278 0v708h-179v-708h179z" />
    <glyph glyph-name="Icircumflex" unicode="&#xce;" horiz-adv-x="291" 
d="M287 756l-140 168h-117l-144 -168h169l34 50l36 -50h162zM178 0v708h-179v-708h179z" />
    <glyph glyph-name="Idieresis" unicode="&#xcf;" horiz-adv-x="291" 
d="M-62 895c-16 -17 -24 -37 -24 -61c0 -23 8 -43 24 -59c17 -16 37 -24 60 -24s43 8 60 24c16 16 24 36 24 59c0 24 -8 44 -24 61c-17 16 -37 24 -60 24s-43 -8 -60 -24zM149 895c-16 -17 -24 -37 -24 -61c0 -23 8 -43 24 -59s36 -24 60 -24s44 8 61 24c16 16 24 36 24 59
c0 24 -8 44 -24 61c-17 16 -37 24 -61 24s-44 -8 -60 -24zM192 0v708h-179v-708h179z" />
    <glyph glyph-name="Idotaccent" unicode="&#x130;" horiz-adv-x="291" 
d="M123 920c-19 -19 -29 -42 -29 -69s10 -51 29 -70s42 -28 70 -28s51 9 70 28c18 19 27 42 27 70c0 27 -9 50 -27 69c-19 19 -42 28 -70 28s-51 -9 -70 -28zM282 0v708h-179v-708h179z" />
    <glyph glyph-name="Igrave" unicode="&#xcc;" horiz-adv-x="291" 
d="M55 756h155l-100 166h-186zM197 0v708h-179v-708h179z" />
    <glyph glyph-name="Imacron" unicode="&#x12a;" horiz-adv-x="291" 
d="M-8 892v-134h297v134h-297zM231 0v708h-179v-708h179z" />
    <glyph glyph-name="Iogonek" unicode="&#x12e;" horiz-adv-x="291" 
d="M298 -204l-28 107c-15 -9 -28 -14 -40 -14c-22 -1 -31 11 -27 36c5 25 21 50 50 75v708h-179v-708h40c-53 -63 -71 -120 -56 -170c15 -49 56 -74 125 -74c44 0 82 13 115 40z" />
    <glyph glyph-name="J" unicode="J" horiz-adv-x="587" 
d="M175 243l-169 -35c9 -71 40 -126 93 -165c47 -35 104 -53 170 -53c72 0 134 21 186 63c56 45 84 105 84 178v477h-338v-162h161v-315c0 -20 -9 -36 -26 -49s-37 -19 -60 -19c-58 0 -92 27 -101 80z" />
    <glyph glyph-name="K" unicode="K" horiz-adv-x="640" 
d="M484 708l-192 -262v262h-180v-708h180v245l6 8l181 -253h227l-279 366l280 342h-223z" />
    <glyph glyph-name="Kcommaaccent" unicode="&#x136;" horiz-adv-x="640" 
d="M484 708l-192 -262v262h-180v-708h180v245l6 8l181 -253h227l-279 366l280 342h-223zM418 -254l75 204h-177l-61 -204h163z" />
    <glyph glyph-name="L" unicode="L" horiz-adv-x="538" 
d="M112 708v-708h468v177h-288v531h-180z" />
    <glyph glyph-name="Lacute" unicode="&#x139;" horiz-adv-x="538" 
d="M245 756l131 166h-186l-100 -166h155zM101 708v-708h468v177h-288v531h-180z" />
    <glyph glyph-name="Lcaron" unicode="&#x13d;" horiz-adv-x="550" 
d="M112 708v-708h468v177h-288v531h-180zM525 500l75 204h-167l-61 -204h153z" />
    <glyph glyph-name="Lcommaaccent" unicode="&#x13b;" horiz-adv-x="538" 
d="M112 708v-708h468v177h-288v531h-180zM387 -254l75 204h-177l-61 -204h163z" />
    <glyph glyph-name="Ldot" unicode="&#x13f;" horiz-adv-x="548" 
d="M112 708v-708h468v177h-288v531h-180zM376 449c-18 -19 -27 -42 -27 -69s9 -49 27 -67c19 -18 42 -27 70 -27c27 0 49 9 67 27s27 40 27 67s-9 50 -27 69s-40 28 -67 28c-28 0 -51 -9 -70 -28z" />
    <glyph glyph-name="Lslash" unicode="&#x141;" horiz-adv-x="570" 
d="M543 0v182h-274v152l176 73l-47 112l-129 -53v242h-181v-319l-86 -36l45 -113l41 17v-257h455z" />
    <glyph glyph-name="M" unicode="M" horiz-adv-x="769" 
d="M112 708v-708h179v204l-12 143l5 1l95 -243h123l93 243l6 -1l-11 -143l-1 -204h180v708h-179l-150 -346l-149 346h-179z" />
    <glyph glyph-name="N" unicode="N" horiz-adv-x="676" 
d="M112 708v-708h179v283l-23 137l5 1l62 -142l160 -279h181v708h-178v-321c1 0 4 -20 10 -61l10 -61l-5 -1l-60 142l-171 302h-170z" />
    <glyph glyph-name="Nacute" unicode="&#x143;" horiz-adv-x="676" 
d="M448 756l131 166h-186l-100 -166h155zM112 708v-708h179v283l-23 137l5 1l62 -142l160 -279h181v708h-178v-321c1 0 4 -20 10 -61l10 -61l-5 -1l-60 142l-171 302h-170z" />
    <glyph glyph-name="Ncaron" unicode="&#x147;" horiz-adv-x="676" 
d="M355 924h-168l150 -168h122l150 168h-167l-46 -52zM112 708v-708h179v283l-23 137l5 1l62 -142l160 -279h181v708h-178v-321c1 0 4 -20 10 -61l10 -61l-5 -1l-60 142l-171 302h-170z" />
    <glyph glyph-name="Ncommaaccent" unicode="&#x145;" horiz-adv-x="676" 
d="M112 708v-708h179v283l-23 137l5 1l62 -142l160 -279h181v708h-178v-321c1 0 4 -20 10 -61l10 -61l-5 -1l-60 142l-171 302h-170zM436 -254l75 204h-177l-61 -204h163z" />
    <glyph glyph-name="Eng" unicode="&#x14a;" horiz-adv-x="676" 
d="M676 -5v713h-178v-313c1 0 4 -20 9 -61l9 -61l-3 -1l-60 142l-171 294h-170v-708h179v283l-22 137l4 1l62 -142l172 -272v-10c0 -17 -6 -31 -19 -42c-15 -11 -34 -14 -57 -9v-147c70 -18 128 -9 175 28s70 93 70 168z" />
    <glyph glyph-name="Ntilde" unicode="&#xd1;" horiz-adv-x="676" 
d="M207 794l87 -49c15 31 39 40 72 28c56 -20 90 -30 102 -30c50 -1 85 36 104 113l-91 52c-13 -29 -34 -38 -63 -26c-51 20 -79 30 -84 30c-69 2 -112 -37 -127 -118zM112 708v-708h179v283l-23 137l5 1l62 -142l160 -279h181v708h-178v-321c1 0 4 -20 10 -61l10 -61l-5 -1
l-60 142l-171 302h-170z" />
    <glyph glyph-name="O" unicode="O" horiz-adv-x="665" 
d="M78 475v-242c0 -77 31 -137 92 -182c55 -41 123 -61 202 -61s147 20 202 61c61 45 91 105 91 182v242c0 77 -31 137 -92 182c-55 41 -123 61 -202 61c-80 0 -147 -20 -202 -60c-61 -45 -91 -106 -91 -183zM257 233v242c0 25 12 45 35 60c21 13 47 20 77 20
c32 0 59 -6 80 -19c25 -15 37 -35 37 -61v-242c0 -24 -12 -43 -36 -58c-21 -13 -47 -19 -78 -19s-58 6 -79 19c-24 14 -36 33 -36 58z" />
    <glyph glyph-name="Oacute" unicode="&#xd3;" horiz-adv-x="665" 
d="M423 758l131 166h-186l-100 -166h155zM78 475v-242c0 -77 31 -137 92 -182c55 -41 123 -61 202 -61s147 20 202 61c61 45 91 105 91 182v242c0 77 -31 137 -92 182c-55 41 -123 61 -202 61c-80 0 -147 -20 -202 -60c-61 -45 -91 -106 -91 -183zM257 233v242
c0 25 12 45 35 60c21 13 47 20 77 20c32 0 59 -6 80 -19c25 -15 37 -35 37 -61v-242c0 -24 -12 -43 -36 -58c-21 -13 -47 -19 -78 -19s-58 6 -79 19c-24 14 -36 33 -36 58z" />
    <glyph glyph-name="Ocircumflex" unicode="&#xd4;" horiz-adv-x="665" 
d="M579 758l-150 168h-117l-154 -168h169l44 52l46 -52h162zM78 475v-242c0 -77 31 -137 92 -182c55 -41 123 -61 202 -61s147 20 202 61c61 45 91 105 91 182v242c0 77 -31 137 -92 182c-55 41 -123 61 -202 61c-80 0 -147 -20 -202 -60c-61 -45 -91 -106 -91 -183z
M257 233v242c0 25 12 45 35 60c21 13 47 20 77 20c32 0 59 -6 80 -19c25 -15 37 -35 37 -61v-242c0 -24 -12 -43 -36 -58c-21 -13 -47 -19 -78 -19s-58 6 -79 19c-24 14 -36 33 -36 58z" />
    <glyph glyph-name="Odieresis" unicode="&#xd6;" horiz-adv-x="665" 
d="M190 897c-16 -17 -24 -37 -24 -61c0 -23 8 -43 24 -59c17 -16 37 -24 60 -24s43 8 60 24c16 16 24 36 24 59c0 24 -8 44 -24 61c-17 16 -37 24 -60 24s-43 -8 -60 -24zM431 897c-16 -17 -24 -37 -24 -61c0 -23 8 -43 24 -59s36 -24 60 -24s44 8 61 24c16 16 24 36 24 59
c0 24 -8 44 -24 61c-17 16 -37 24 -61 24s-44 -8 -60 -24zM78 475v-242c0 -77 31 -137 92 -182c55 -41 123 -61 202 -61s147 20 202 61c61 45 91 105 91 182v242c0 77 -31 137 -92 182c-55 41 -123 61 -202 61c-80 0 -147 -20 -202 -60c-61 -45 -91 -106 -91 -183zM257 233
v242c0 25 12 45 35 60c21 13 47 20 77 20c32 0 59 -6 80 -19c25 -15 37 -35 37 -61v-242c0 -24 -12 -43 -36 -58c-21 -13 -47 -19 -78 -19s-58 6 -79 19c-24 14 -36 33 -36 58z" />
    <glyph glyph-name="Ograve" unicode="&#xd2;" horiz-adv-x="665" 
d="M318 758h155l-100 166h-186zM78 475v-242c0 -77 31 -137 92 -182c55 -41 123 -61 202 -61s147 20 202 61c61 45 91 105 91 182v242c0 77 -31 137 -92 182c-55 41 -123 61 -202 61c-80 0 -147 -20 -202 -60c-61 -45 -91 -106 -91 -183zM257 233v242c0 25 12 45 35 60
c21 13 47 20 77 20c32 0 59 -6 80 -19c25 -15 37 -35 37 -61v-242c0 -24 -12 -43 -36 -58c-21 -13 -47 -19 -78 -19s-58 6 -79 19c-24 14 -36 33 -36 58z" />
    <glyph glyph-name="Ohungarumlaut" unicode="&#x150;" horiz-adv-x="665" 
d="M318 758l111 158h-177l-75 -158h141zM544 758l117 158h-183l-74 -158h140zM78 475v-242c0 -77 31 -137 92 -182c55 -41 123 -61 202 -61s147 20 202 61c61 45 91 105 91 182v242c0 77 -31 137 -92 182c-55 41 -123 61 -202 61c-80 0 -147 -20 -202 -60
c-61 -45 -91 -106 -91 -183zM257 233v242c0 25 12 45 35 60c21 13 47 20 77 20c32 0 59 -6 80 -19c25 -15 37 -35 37 -61v-242c0 -24 -12 -43 -36 -58c-21 -13 -47 -19 -78 -19s-58 6 -79 19c-24 14 -36 33 -36 58z" />
    <glyph glyph-name="Omacron" unicode="&#x14c;" horiz-adv-x="665" 
d="M221 894v-134h297v134h-297zM78 475v-242c0 -77 31 -137 92 -182c55 -41 123 -61 202 -61s147 20 202 61c61 45 91 105 91 182v242c0 77 -31 137 -92 182c-55 41 -123 61 -202 61c-80 0 -147 -20 -202 -60c-61 -45 -91 -106 -91 -183zM257 233v242c0 25 12 45 35 60
c21 13 47 20 77 20c32 0 59 -6 80 -19c25 -15 37 -35 37 -61v-242c0 -24 -12 -43 -36 -58c-21 -13 -47 -19 -78 -19s-58 6 -79 19c-24 14 -36 33 -36 58z" />
    <glyph glyph-name="Oslash" unicode="&#xd8;" horiz-adv-x="665" 
d="M574 657l39 99l-157 52l-36 -93c-16 2 -32 3 -49 3c-80 0 -147 -20 -202 -60c-61 -45 -91 -106 -91 -183v-242c0 -77 31 -137 92 -182l-42 -98l158 -56l39 96c15 -2 31 -3 47 -3c79 0 147 20 202 61c61 45 91 105 91 182v242c0 76 -30 137 -91 182zM486 475v-242
c0 -24 -12 -43 -36 -58c-21 -13 -47 -19 -78 -19s-58 6 -79 19c-24 14 -36 33 -36 58v242c0 25 12 45 35 60c21 13 47 20 77 20c32 0 59 -6 80 -19c25 -15 37 -35 37 -61z" />
    <glyph glyph-name="Otilde" unicode="&#xd5;" horiz-adv-x="665" 
d="M182 796l87 -49c15 31 39 40 72 28c56 -20 90 -30 102 -30c50 -1 85 36 104 113l-91 52c-13 -29 -34 -38 -63 -26c-51 20 -79 30 -84 30c-69 2 -112 -37 -127 -118zM78 475v-242c0 -77 31 -137 92 -182c55 -41 123 -61 202 -61s147 20 202 61c61 45 91 105 91 182v242
c0 77 -31 137 -92 182c-55 41 -123 61 -202 61c-80 0 -147 -20 -202 -60c-61 -45 -91 -106 -91 -183zM257 233v242c0 25 12 45 35 60c21 13 47 20 77 20c32 0 59 -6 80 -19c25 -15 37 -35 37 -61v-242c0 -24 -12 -43 -36 -58c-21 -13 -47 -19 -78 -19s-58 6 -79 19
c-24 14 -36 33 -36 58z" />
    <glyph glyph-name="OE" unicode="&#x152;" horiz-adv-x="812" 
d="M577 434v105h238v169h-391v-25c-39 23 -82 35 -128 35c-58 0 -107 -21 -148 -62c-43 -43 -64 -99 -64 -166v-278c0 -67 18 -120 55 -160c39 -41 93 -62 163 -62c46 0 87 14 122 42v-32h391v168h-238v103h212v163h-212zM424 539v-368c-15 -18 -39 -27 -74 -27
c-57 0 -86 28 -86 84v261c0 36 19 60 58 71c38 11 72 4 102 -21z" />
    <glyph glyph-name="P" unicode="P" horiz-adv-x="618" 
d="M112 708v-708h179v207h105c81 0 145 26 193 78c43 47 65 105 65 173s-22 125 -65 172c-47 52 -112 78 -194 78h-283zM395 366h-104v175h104c25 0 46 -9 61 -27c13 -17 20 -37 20 -60c0 -24 -7 -44 -20 -61c-15 -18 -36 -27 -61 -27z" />
    <glyph glyph-name="Thorn" unicode="&#xde;" horiz-adv-x="556" 
d="M303 602h-10v113h-181v-714h181v126c87 0 156 16 207 49c63 39 95 101 95 186c0 160 -97 240 -292 240zM293 285v154c40 5 72 -2 96 -19c21 -15 32 -35 32 -58c0 -24 -11 -44 -32 -59c-24 -17 -56 -23 -96 -18z" />
    <glyph glyph-name="Q" unicode="Q" horiz-adv-x="665" 
d="M78 475v-242c0 -77 31 -137 92 -182c55 -41 123 -61 202 -61c57 0 108 11 155 33l58 -60l99 89l-55 56c24 37 36 79 36 125v242c0 77 -31 137 -92 182c-55 41 -123 61 -202 61c-80 0 -147 -20 -202 -60c-61 -45 -91 -106 -91 -183zM257 233v242c0 25 12 45 36 60
c21 13 48 20 79 21c31 0 57 -7 78 -20c24 -15 36 -35 36 -61v-222l-49 50l-99 -86l58 -60c-30 -13 -60 -11 -91 4c-32 17 -48 41 -48 72z" />
    <glyph glyph-name="R" unicode="R" horiz-adv-x="646" 
d="M325 225l164 -225h223l-193 243c93 29 139 107 139 232c-2 79 -28 139 -78 179c-45 36 -107 54 -185 54h-283v-708h181v225h32zM398 379h-105v162h105c27 0 48 -8 64 -25c14 -15 21 -34 21 -56s-7 -41 -21 -56c-16 -17 -37 -25 -64 -25z" />
    <glyph glyph-name="Racute" unicode="&#x154;" horiz-adv-x="646" 
d="M415 756l131 166h-186l-100 -166h155zM325 225l164 -225h223l-193 243c93 29 139 107 139 232c-2 79 -28 139 -78 179c-45 36 -107 54 -185 54h-283v-708h181v225h32zM398 379h-105v162h105c27 0 48 -8 64 -25c14 -15 21 -34 21 -56s-7 -41 -21 -56
c-16 -17 -37 -25 -64 -25z" />
    <glyph glyph-name="Rcaron" unicode="&#x158;" horiz-adv-x="646" 
d="M322 924h-168l150 -168h122l150 168h-167l-46 -52zM325 225l164 -225h223l-193 243c93 29 139 107 139 232c-2 79 -28 139 -78 179c-45 36 -107 54 -185 54h-283v-708h181v225h32zM398 379h-105v162h105c27 0 48 -8 64 -25c14 -15 21 -34 21 -56s-7 -41 -21 -56
c-16 -17 -37 -25 -64 -25z" />
    <glyph glyph-name="Rcommaaccent" unicode="&#x156;" horiz-adv-x="646" 
d="M325 225l164 -225h223l-193 243c93 29 139 107 139 232c-2 79 -28 139 -78 179c-45 36 -107 54 -185 54h-283v-708h181v225h32zM398 379h-105v162h105c27 0 48 -8 64 -25c14 -15 21 -34 21 -56s-7 -41 -21 -56c-16 -17 -37 -25 -64 -25zM424 -254l75 204h-177l-61 -204
h163z" />
    <glyph glyph-name="S" unicode="S" horiz-adv-x="564" 
d="M157 224l-113 -106c66 -85 146 -128 241 -128c71 0 133 18 187 55c59 40 90 92 93 157c3 79 -21 138 -72 177c-37 29 -94 50 -172 64c-61 13 -92 35 -94 66c1 41 26 62 75 63s92 -18 129 -57l117 90c-62 75 -143 113 -242 113c-70 0 -129 -18 -177 -54
c-53 -39 -79 -92 -79 -158c0 -63 22 -115 66 -156c39 -36 90 -59 152 -69c83 -11 123 -35 121 -71c-3 -39 -33 -57 -91 -54c-59 3 -106 25 -141 68z" />
    <glyph glyph-name="Sacute" unicode="&#x15a;" horiz-adv-x="564" 
d="M358 756l131 166h-186l-100 -166h155zM157 224l-113 -106c66 -85 146 -128 241 -128c71 0 133 18 187 55c59 40 90 92 93 157c3 79 -21 138 -72 177c-37 29 -94 50 -172 64c-61 13 -92 35 -94 66c1 41 26 62 75 63s92 -18 129 -57l117 90c-62 75 -143 113 -242 113
c-70 0 -129 -18 -177 -54c-53 -39 -79 -92 -79 -158c0 -63 22 -115 66 -156c39 -36 90 -59 152 -69c83 -11 123 -35 121 -71c-3 -39 -33 -57 -91 -54c-59 3 -106 25 -141 68z" />
    <glyph glyph-name="Scaron" unicode="&#x160;" horiz-adv-x="564" 
d="M265 924h-168l150 -168h122l150 168h-167l-46 -52zM157 224l-113 -106c66 -85 146 -128 241 -128c71 0 133 18 187 55c59 40 90 92 93 157c3 79 -21 138 -72 177c-37 29 -94 50 -172 64c-61 13 -92 35 -94 66c1 41 26 62 75 63s92 -18 129 -57l117 90
c-62 75 -143 113 -242 113c-70 0 -129 -18 -177 -54c-53 -39 -79 -92 -79 -158c0 -63 22 -115 66 -156c39 -36 90 -59 152 -69c83 -11 123 -35 121 -71c-3 -39 -33 -57 -91 -54c-59 3 -106 25 -141 68z" />
    <glyph glyph-name="Scedilla" unicode="&#x15e;" horiz-adv-x="564" 
d="M493 379c-37 29 -94 50 -172 64c-61 13 -92 35 -94 66c1 41 26 62 75 63s92 -18 129 -57l117 90c-62 75 -143 113 -242 113c-70 0 -129 -18 -177 -54c-53 -39 -79 -92 -79 -158c0 -63 22 -115 66 -156c39 -36 90 -59 152 -69c83 -11 123 -35 121 -71
c-3 -39 -33 -57 -91 -54c-59 3 -106 25 -141 68l-113 -106c55 -70 121 -112 199 -125l-30 -67c25 -2 45 -8 60 -19c14 -10 19 -21 16 -33c-5 -17 -19 -24 -43 -21c-21 3 -43 13 -68 30l-32 -86c41 -34 90 -51 146 -51c35 0 65 10 90 30c23 18 39 41 47 68c8 28 6 53 -5 75
c-13 25 -35 42 -67 50l14 32c54 13 98 37 133 70c38 37 58 80 61 131c3 79 -21 138 -72 177z" />
    <glyph glyph-name="Scommaaccent" unicode="&#x218;" horiz-adv-x="564" 
d="M157 224l-113 -106c66 -85 146 -128 241 -128c71 0 133 18 187 55c59 40 90 92 93 157c3 79 -21 138 -72 177c-37 29 -94 50 -172 64c-61 13 -92 35 -94 66c1 41 26 62 75 63s92 -18 129 -57l117 90c-62 75 -143 113 -242 113c-70 0 -129 -18 -177 -54
c-53 -39 -79 -92 -79 -158c0 -63 22 -115 66 -156c39 -36 90 -59 152 -69c83 -11 123 -35 121 -71c-3 -39 -33 -57 -91 -54c-59 3 -106 25 -141 68zM327 -254l75 204h-177l-61 -204h163z" />
    <glyph glyph-name="T" unicode="T" horiz-adv-x="585" 
d="M397 539h188v170h-557v-170h188v-539h181v539z" />
    <glyph glyph-name="Tbar" unicode="&#x166;" horiz-adv-x="590" 
d="M479 345h-76v194h188v170h-557v-170h188v-194h-80v-134h80v-211h181v211h76v134z" />
    <glyph glyph-name="Tcaron" unicode="&#x164;" horiz-adv-x="585" 
d="M261 924h-168l150 -168h122l150 168h-167l-46 -52zM397 539h188v170h-557v-170h188v-539h181v539z" />
    <glyph glyph-name="Tcedilla" unicode="&#x162;" horiz-adv-x="585" 
d="M397 539h188v170h-557v-170h188v-539h181v539zM345 -254l75 204h-177l-61 -204h163z" />
    <glyph glyph-name="Tcommaaccent" unicode="&#x21a;" horiz-adv-x="585" 
d="M397 539h188v170h-557v-170h188v-539h181v539zM345 -254l75 204h-177l-61 -204h163z" />
    <glyph glyph-name="U" unicode="U" horiz-adv-x="667" 
d="M285 237v471h-181v-471c0 -79 29 -141 88 -187c53 -41 117 -62 194 -62s141 21 194 62c59 46 89 108 89 187v471h-181v-471c0 -27 -11 -48 -32 -64c-19 -14 -43 -21 -70 -21s-50 7 -69 21c-21 16 -32 37 -32 64z" />
    <glyph glyph-name="Uacute" unicode="&#xda;" horiz-adv-x="667" 
d="M439 756l131 166h-186l-100 -166h155zM285 237v471h-181v-471c0 -79 29 -141 88 -187c53 -41 117 -62 194 -62s141 21 194 62c59 46 89 108 89 187v471h-181v-471c0 -27 -11 -48 -32 -64c-19 -14 -43 -21 -70 -21s-50 7 -69 21c-21 16 -32 37 -32 64z" />
    <glyph glyph-name="Ucircumflex" unicode="&#xdb;" horiz-adv-x="667" 
d="M595 756l-150 168h-117l-154 -168h169l44 52l46 -52h162zM285 237v471h-181v-471c0 -79 29 -141 88 -187c53 -41 117 -62 194 -62s141 21 194 62c59 46 89 108 89 187v471h-181v-471c0 -27 -11 -48 -32 -64c-19 -14 -43 -21 -70 -21s-50 7 -69 21c-21 16 -32 37 -32 64z
" />
    <glyph glyph-name="Udieresis" unicode="&#xdc;" horiz-adv-x="667" 
d="M206 895c-16 -17 -24 -37 -24 -61c0 -23 8 -43 24 -59c17 -16 37 -24 60 -24s43 8 60 24c16 16 24 36 24 59c0 24 -8 44 -24 61c-17 16 -37 24 -60 24s-43 -8 -60 -24zM447 895c-16 -17 -24 -37 -24 -61c0 -23 8 -43 24 -59s36 -24 60 -24s44 8 61 24c16 16 24 36 24 59
c0 24 -8 44 -24 61c-17 16 -37 24 -61 24s-44 -8 -60 -24zM285 237v471h-181v-471c0 -79 29 -141 88 -187c53 -41 117 -62 194 -62s141 21 194 62c59 46 89 108 89 187v471h-181v-471c0 -27 -11 -48 -32 -64c-19 -14 -43 -21 -70 -21s-50 7 -69 21c-21 16 -32 37 -32 64z
" />
    <glyph glyph-name="Ugrave" unicode="&#xd9;" horiz-adv-x="667" 
d="M334 756h155l-100 166h-186zM285 237v471h-181v-471c0 -79 29 -141 88 -187c53 -41 117 -62 194 -62s141 21 194 62c59 46 89 108 89 187v471h-181v-471c0 -27 -11 -48 -32 -64c-19 -14 -43 -21 -70 -21s-50 7 -69 21c-21 16 -32 37 -32 64z" />
    <glyph glyph-name="Uhungarumlaut" unicode="&#x170;" horiz-adv-x="667" 
d="M334 756l111 158h-177l-75 -158h141zM560 756l117 158h-183l-74 -158h140zM285 237v471h-181v-471c0 -79 29 -141 88 -187c53 -41 117 -62 194 -62s141 21 194 62c59 46 89 108 89 187v471h-181v-471c0 -27 -11 -48 -32 -64c-19 -14 -43 -21 -70 -21s-50 7 -69 21
c-21 16 -32 37 -32 64z" />
    <glyph glyph-name="Umacron" unicode="&#x16a;" horiz-adv-x="667" 
d="M237 892v-134h297v134h-297zM285 237v471h-181v-471c0 -79 29 -141 88 -187c53 -41 117 -62 194 -62s141 21 194 62c59 46 89 108 89 187v471h-181v-471c0 -27 -11 -48 -32 -64c-19 -14 -43 -21 -70 -21s-50 7 -69 21c-21 16 -32 37 -32 64z" />
    <glyph glyph-name="Uogonek" unicode="&#x172;" horiz-adv-x="667" 
d="M667 237v471h-181v-471c0 -27 -11 -48 -32 -64c-19 -14 -43 -21 -70 -21s-50 7 -69 21c-21 16 -32 37 -32 64v471h-181v-471c0 -79 29 -141 88 -187c53 -41 117 -62 193 -62c-46 -61 -61 -115 -44 -162s58 -70 125 -70c44 0 82 13 115 40l-28 107c-15 -9 -28 -14 -40 -14
c-23 -1 -33 16 -28 49c4 34 23 63 56 87c85 45 128 115 128 212z" />
    <glyph glyph-name="Uring" unicode="&#x16e;" horiz-adv-x="667" 
d="M294 936c-26 -23 -39 -52 -39 -85s13 -61 39 -84c26 -22 57 -33 94 -33c35 0 66 11 92 34c25 23 38 50 38 83c0 31 -13 59 -38 83s-56 36 -92 36c-37 0 -68 -11 -94 -34zM414 876c7 -7 10 -16 10 -26c0 -22 -12 -33 -36 -33c-25 0 -38 11 -38 33c0 25 13 37 38 37
c10 0 19 -4 26 -11zM285 237v471h-181v-471c0 -79 29 -141 88 -187c53 -41 117 -62 194 -62s141 21 194 62c59 46 89 108 89 187v471h-181v-471c0 -27 -11 -48 -32 -64c-19 -14 -43 -21 -70 -21s-50 7 -69 21c-21 16 -32 37 -32 64z" />
    <glyph glyph-name="V" unicode="V" horiz-adv-x="656" 
d="M464 709l-112 -347l-32 -167h-3l-32 168l-111 346h-192l255 -708h164l255 708h-192z" />
    <glyph glyph-name="W" unicode="W" horiz-adv-x="915" 
d="M730 708l-86 -341l-20 -148h-3l-23 148l-73 249h-136l-79 -248l-17 -149h-5l-18 150l-84 339h-186l205 -708h166l56 197l27 161h3l25 -162l63 -196h166l204 708h-185z" />
    <glyph glyph-name="Wacute" unicode="&#x1e82;" horiz-adv-x="915" 
d="M513 756l131 166h-186l-100 -166h155zM730 708l-86 -341l-20 -148h-3l-23 148l-73 249h-136l-79 -248l-17 -149h-5l-18 150l-84 339h-186l205 -708h166l56 197l27 161h3l25 -162l63 -196h166l204 708h-185z" />
    <glyph glyph-name="Wcircumflex" unicode="&#x174;" horiz-adv-x="915" 
d="M669 756l-150 168h-117l-154 -168h169l44 52l46 -52h162zM730 708l-86 -341l-20 -148h-3l-23 148l-73 249h-136l-79 -248l-17 -149h-5l-18 150l-84 339h-186l205 -708h166l56 197l27 161h3l25 -162l63 -196h166l204 708h-185z" />
    <glyph glyph-name="Wdieresis" unicode="&#x1e84;" horiz-adv-x="915" 
d="M280 895c-16 -17 -24 -37 -24 -61c0 -23 8 -43 24 -59c17 -16 37 -24 60 -24s43 8 60 24c16 16 24 36 24 59c0 24 -8 44 -24 61c-17 16 -37 24 -60 24s-43 -8 -60 -24zM521 895c-16 -17 -24 -37 -24 -61c0 -23 8 -43 24 -59s36 -24 60 -24s44 8 61 24c16 16 24 36 24 59
c0 24 -8 44 -24 61c-17 16 -37 24 -61 24s-44 -8 -60 -24zM730 708l-86 -341l-20 -148h-3l-23 148l-73 249h-136l-79 -248l-17 -149h-5l-18 150l-84 339h-186l205 -708h166l56 197l27 161h3l25 -162l63 -196h166l204 708h-185z" />
    <glyph glyph-name="Wgrave" unicode="&#x1e80;" horiz-adv-x="915" 
d="M408 756h155l-100 166h-186zM730 708l-86 -341l-20 -148h-3l-23 148l-73 249h-136l-79 -248l-17 -149h-5l-18 150l-84 339h-186l205 -708h166l56 197l27 161h3l25 -162l63 -196h166l204 708h-185z" />
    <glyph glyph-name="X" unicode="X" horiz-adv-x="656" 
d="M448 708l-124 -242l-121 242h-209l199 -355l-199 -353h209l121 241l124 -241h208l-198 353l198 355h-208z" />
    <glyph glyph-name="Y" unicode="Y" horiz-adv-x="655" 
d="M229 0h179v279l248 429h-210l-128 -260l-128 260h-208l247 -429v-279z" />
    <glyph glyph-name="Yacute" unicode="&#xdd;" horiz-adv-x="655" 
d="M367 756l131 166h-186l-100 -166h155zM229 0h179v279l248 429h-210l-128 -260l-128 260h-208l247 -429v-279z" />
    <glyph glyph-name="Ycircumflex" unicode="&#x176;" horiz-adv-x="655" 
d="M523 756l-150 168h-117l-154 -168h169l44 52l46 -52h162zM229 0h179v279l248 429h-210l-128 -260l-128 260h-208l247 -429v-279z" />
    <glyph glyph-name="Ydieresis" unicode="&#x178;" horiz-adv-x="655" 
d="M134 895c-16 -17 -24 -37 -24 -61c0 -23 8 -43 24 -59c17 -16 37 -24 60 -24s43 8 60 24c16 16 24 36 24 59c0 24 -8 44 -24 61c-17 16 -37 24 -60 24s-43 -8 -60 -24zM375 895c-16 -17 -24 -37 -24 -61c0 -23 8 -43 24 -59s36 -24 60 -24s44 8 61 24c16 16 24 36 24 59
c0 24 -8 44 -24 61c-17 16 -37 24 -61 24s-44 -8 -60 -24zM229 0h179v279l248 429h-210l-128 -260l-128 260h-208l247 -429v-279z" />
    <glyph glyph-name="Ygrave" unicode="&#x1ef2;" horiz-adv-x="655" 
d="M262 756h155l-100 166h-186zM229 0h179v279l248 429h-210l-128 -260l-128 260h-208l247 -429v-279z" />
    <glyph glyph-name="Z" unicode="Z" horiz-adv-x="605" 
d="M565 708h-515v-166h284l-306 -476l33 -66h525v165l-288 -2l305 485z" />
    <glyph glyph-name="Zacute" unicode="&#x179;" horiz-adv-x="605" 
d="M377 756l131 166h-186l-100 -166h155zM565 708h-515v-166h284l-306 -476l33 -66h525v165l-288 -2l305 485z" />
    <glyph glyph-name="Zcaron" unicode="&#x17d;" horiz-adv-x="605" 
d="M284 924h-168l150 -168h122l150 168h-167l-46 -52zM565 708h-515v-166h284l-306 -476l33 -66h525v165l-288 -2l305 485z" />
    <glyph glyph-name="Zdotaccent" unicode="&#x17b;" horiz-adv-x="605" 
d="M255 920c-19 -19 -29 -42 -29 -69s10 -51 29 -70s42 -28 70 -28s51 9 70 28c18 19 27 42 27 70c0 27 -9 50 -27 69c-19 19 -42 28 -70 28s-51 -9 -70 -28zM565 708h-515v-166h284l-306 -476l33 -66h525v165l-288 -2l305 485z" />
    <glyph glyph-name="A" unicode="a" horiz-adv-x="483" 
d="M301 319c-15 3 -35 4 -60 4c-63 0 -111 -16 -146 -47c-33 -29 -49 -67 -49 -114c0 -115 73 -172 218 -172c69 0 136 12 200 35v318c0 60 -21 107 -63 140c-37 30 -85 45 -142 45c-85 0 -150 -31 -196 -93l78 -79c28 25 58 37 90 37c49 0 73 -25 70 -74zM299 209v-89
c-24 -6 -45 -7 -62 -2c-22 7 -33 22 -33 45c0 21 10 35 31 44c19 9 41 9 64 2z" />
    <glyph glyph-name="Aacute" unicode="&#xe1;" horiz-adv-x="483" 
d="M307 565l126 159h-179l-96 -159h149zM301 319c-15 3 -35 4 -60 4c-63 0 -111 -16 -146 -47c-33 -29 -49 -67 -49 -114c0 -115 73 -172 218 -172c69 0 136 12 200 35v318c0 60 -21 107 -63 140c-37 30 -85 45 -142 45c-85 0 -150 -31 -196 -93l78 -79c28 25 58 37 90 37
c49 0 73 -25 70 -74zM299 209v-89c-24 -6 -45 -7 -62 -2c-22 7 -33 22 -33 45c0 21 10 35 31 44c19 9 41 9 64 2z" />
    <glyph glyph-name="Abreve" unicode="&#x103;" horiz-adv-x="483" 
d="M433 723h-129c0 -25 -12 -37 -37 -37s-38 12 -38 37h-132c0 -53 18 -94 53 -125c31 -28 70 -42 115 -42s84 14 116 42c35 31 52 72 52 125zM301 319c-15 3 -35 4 -60 4c-63 0 -111 -16 -146 -47c-33 -29 -49 -67 -49 -114c0 -115 73 -172 218 -172c69 0 136 12 200 35
v318c0 60 -21 107 -63 140c-37 30 -85 45 -142 45c-85 0 -150 -31 -196 -93l78 -79c28 25 58 37 90 37c49 0 73 -25 70 -74zM299 209v-89c-24 -6 -45 -7 -62 -2c-22 7 -33 22 -33 45c0 21 10 35 31 44c19 9 41 9 64 2z" />
    <glyph glyph-name="Acircumflex" unicode="&#xe2;" horiz-adv-x="483" 
d="M467 565l-144 161h-113l-148 -161h163l42 49l44 -49h156zM301 319c-15 3 -35 4 -60 4c-63 0 -111 -16 -146 -47c-33 -29 -49 -67 -49 -114c0 -115 73 -172 218 -172c69 0 136 12 200 35v318c0 60 -21 107 -63 140c-37 30 -85 45 -142 45c-85 0 -150 -31 -196 -93l78 -79
c28 25 58 37 90 37c49 0 73 -25 70 -74zM299 209v-89c-24 -6 -45 -7 -62 -2c-22 7 -33 22 -33 45c0 21 10 35 31 44c19 9 41 9 64 2z" />
    <glyph glyph-name="Adieresis" unicode="&#xe4;" horiz-adv-x="483" 
d="M97 703c-16 -16 -24 -36 -24 -59s8 -42 24 -57c16 -16 35 -24 58 -24s43 8 59 24c16 15 24 34 24 57s-8 43 -24 59s-36 24 -59 24s-43 -8 -58 -24zM313 703c-16 -16 -24 -36 -24 -59s8 -42 24 -57c15 -16 35 -24 59 -24c23 0 43 8 59 24c16 15 24 34 24 57s-8 43 -24 59
s-36 24 -59 24c-24 0 -44 -8 -59 -24zM301 319c-15 3 -35 4 -60 4c-63 0 -111 -16 -146 -47c-33 -29 -49 -67 -49 -114c0 -115 73 -172 218 -172c69 0 136 12 200 35v318c0 60 -21 107 -63 140c-37 30 -85 45 -142 45c-85 0 -150 -31 -196 -93l78 -79c28 25 58 37 90 37
c49 0 73 -25 70 -74zM299 209v-89c-24 -6 -45 -7 -62 -2c-22 7 -33 22 -33 45c0 21 10 35 31 44c19 9 41 9 64 2z" />
    <glyph glyph-name="Agrave" unicode="&#xe0;" horiz-adv-x="483" 
d="M216 565h149l-96 159h-179zM301 319c-15 3 -35 4 -60 4c-63 0 -111 -16 -146 -47c-33 -29 -49 -67 -49 -114c0 -115 73 -172 218 -172c69 0 136 12 200 35v318c0 60 -21 107 -63 140c-37 30 -85 45 -142 45c-85 0 -150 -31 -196 -93l78 -79c28 25 58 37 90 37
c49 0 73 -25 70 -74zM299 209v-89c-24 -6 -45 -7 -62 -2c-22 7 -33 22 -33 45c0 21 10 35 31 44c19 9 41 9 64 2z" />
    <glyph glyph-name="Amacron" unicode="&#x101;" horiz-adv-x="483" 
d="M125 703v-126h285v126h-285zM301 319c-15 3 -35 4 -60 4c-63 0 -111 -16 -146 -47c-33 -29 -49 -67 -49 -114c0 -115 73 -172 218 -172c69 0 136 12 200 35v318c0 60 -21 107 -63 140c-37 30 -85 45 -142 45c-85 0 -150 -31 -196 -93l78 -79c28 25 58 37 90 37
c49 0 73 -25 70 -74zM299 209v-89c-24 -6 -45 -7 -62 -2c-22 7 -33 22 -33 45c0 21 10 35 31 44c19 9 41 9 64 2z" />
    <glyph glyph-name="Aogonek" unicode="&#x105;" horiz-adv-x="484" 
d="M495 -204l-28 107c-15 -9 -28 -14 -40 -14c-22 -1 -29 15 -22 46c8 32 28 62 59 90v318c0 60 -21 107 -64 141c-37 29 -85 44 -143 44c-86 0 -151 -32 -195 -96l79 -75c25 23 53 35 85 35c48 0 72 -24 71 -71c-65 10 -121 3 -168 -20c-55 -27 -83 -72 -83 -134
c0 -55 18 -98 54 -129c37 -32 92 -48 164 -48c23 0 43 1 62 4c-57 -55 -79 -109 -66 -161c12 -51 52 -77 120 -77c44 0 82 13 115 40zM299 216v-96c-23 -6 -44 -6 -62 1c-22 8 -33 24 -33 48c0 21 10 36 31 45c19 9 41 9 64 2z" />
    <glyph glyph-name="Aring" unicode="&#xe5;" horiz-adv-x="483" 
d="M176 771c-26 -25 -39 -55 -39 -90s13 -65 39 -89s57 -36 94 -36c35 0 66 12 92 37c25 24 38 53 38 87c0 33 -13 63 -38 88c-25 26 -56 39 -92 39c-37 0 -68 -12 -94 -36zM296 707c7 -8 10 -17 10 -28c0 -23 -12 -35 -36 -35c-11 0 -21 4 -28 12c-7 7 -10 14 -10 23
c0 27 13 40 38 40c10 0 19 -4 26 -12zM301 319c-15 3 -35 4 -60 4c-63 0 -111 -16 -146 -47c-33 -29 -49 -67 -49 -114c0 -115 73 -172 218 -172c69 0 136 12 200 35v318c0 60 -21 107 -63 140c-37 30 -85 45 -142 45c-85 0 -150 -31 -196 -93l78 -79c28 25 58 37 90 37
c49 0 73 -25 70 -74zM299 209v-89c-24 -6 -45 -7 -62 -2c-22 7 -33 22 -33 45c0 21 10 35 31 44c19 9 41 9 64 2z" />
    <glyph glyph-name="Atilde" unicode="&#xe3;" horiz-adv-x="483" 
d="M90 605l84 -47c15 29 38 38 69 27c54 -19 87 -29 98 -29c48 -1 81 35 100 109l-88 50c-12 -29 -32 -37 -60 -26c-49 19 -76 29 -81 29c-67 2 -108 -36 -122 -113zM301 319c-15 3 -35 4 -60 4c-63 0 -111 -16 -146 -47c-33 -29 -49 -67 -49 -114c0 -115 73 -172 218 -172
c69 0 136 12 200 35v318c0 60 -21 107 -63 140c-37 30 -85 45 -142 45c-85 0 -150 -31 -196 -93l78 -79c28 25 58 37 90 37c49 0 73 -25 70 -74zM299 209v-89c-24 -6 -45 -7 -62 -2c-22 7 -33 22 -33 45c0 21 10 35 31 44c19 9 41 9 64 2z" />
    <glyph glyph-name="AE" unicode="&#xe6;" horiz-adv-x="707" 
d="M452 181v8h249v147c0 59 -19 106 -58 142c-37 33 -81 50 -134 50c-51 0 -94 -18 -131 -55c-26 37 -70 55 -131 55c-79 0 -140 -32 -183 -96l79 -75c29 28 61 38 97 31s54 -29 54 -64c-15 3 -34 4 -56 4c-62 0 -110 -16 -145 -47c-31 -29 -47 -66 -47 -113
c0 -60 20 -106 60 -137c35 -27 79 -41 134 -41c63 0 108 17 135 51c35 -34 78 -51 130 -51c63 0 118 30 167 91l-99 79c-25 -31 -51 -41 -80 -31c-27 9 -41 26 -41 52zM554 342v-45h-105v44c0 29 18 43 53 43s52 -14 52 -42zM308 217v-35c0 -16 4 -36 11 -59
c-79 -22 -118 -7 -118 44c0 22 12 38 36 48c23 9 46 10 71 2z" />
    <glyph glyph-name="B" unicode="b" horiz-adv-x="507" 
d="M264 516v192h-170v-675c74 -29 145 -43 213 -43c141 0 212 63 212 189v165c0 59 -20 106 -60 139c-36 30 -81 45 -134 45c-19 0 -39 -4 -61 -12zM264 127v252c15 7 27 10 35 10c35 0 53 -16 53 -48v-174c0 -31 -18 -46 -55 -46c-12 0 -23 2 -33 6z" />
    <glyph glyph-name="C" unicode="c" horiz-adv-x="462" 
d="M484 142l-146 33c-9 -29 -27 -43 -56 -43c-31 0 -47 15 -47 44v166c0 29 15 44 45 44c29 0 46 -15 52 -44l142 44c-27 95 -91 142 -192 142c-57 0 -106 -16 -145 -47c-45 -35 -67 -83 -67 -143v-163c0 -62 22 -110 67 -143c38 -28 86 -42 145 -42c41 0 79 11 113 33
c43 27 72 66 89 119z" />
    <glyph glyph-name="Cacute" unicode="&#x107;" horiz-adv-x="462" 
d="M334 566l131 166h-186l-100 -166h155zM484 142l-146 33c-9 -29 -27 -43 -56 -43c-31 0 -47 15 -47 44v166c0 29 15 44 45 44c29 0 46 -15 52 -44l142 44c-27 95 -91 142 -192 142c-57 0 -106 -16 -145 -47c-45 -35 -67 -83 -67 -143v-163c0 -62 22 -110 67 -143
c38 -28 86 -42 145 -42c41 0 79 11 113 33c43 27 72 66 89 119z" />
    <glyph glyph-name="Ccaron" unicode="&#x10d;" horiz-adv-x="462" 
d="M241 734h-168l150 -168h122l150 168h-167l-46 -52zM484 142l-146 33c-9 -29 -27 -43 -56 -43c-31 0 -47 15 -47 44v166c0 29 15 44 45 44c29 0 46 -15 52 -44l142 44c-27 95 -91 142 -192 142c-57 0 -106 -16 -145 -47c-45 -35 -67 -83 -67 -143v-163
c0 -62 22 -110 67 -143c38 -28 86 -42 145 -42c41 0 79 11 113 33c43 27 72 66 89 119z" />
    <glyph glyph-name="Ccedilla" unicode="&#xe7;" horiz-adv-x="462" 
d="M484 142l-146 33c-9 -29 -27 -43 -56 -43c-31 0 -47 15 -47 44v166c0 29 15 44 45 44c29 0 46 -15 52 -44l142 44c-27 95 -91 142 -192 142c-57 0 -106 -16 -145 -47c-45 -35 -67 -83 -67 -143v-163c0 -99 51 -159 154 -180l-32 -75c29 0 52 -6 67 -17
c13 -10 17 -21 13 -34c-5 -17 -18 -23 -41 -20c-20 3 -42 12 -66 28l-30 -82c39 -33 86 -49 140 -49c33 0 62 10 85 29c21 17 35 39 42 65c6 27 3 51 -9 72c-13 24 -35 40 -66 48l18 39c69 22 115 70 139 143z" />
    <glyph glyph-name="Cdotaccent" unicode="&#x10b;" horiz-adv-x="462" 
d="M212 730c-19 -19 -29 -42 -29 -69s10 -51 29 -70s42 -28 70 -28s51 9 70 28c18 19 27 42 27 70c0 27 -9 50 -27 69c-19 19 -42 28 -70 28s-51 -9 -70 -28zM484 142l-146 33c-9 -29 -27 -43 -56 -43c-31 0 -47 15 -47 44v166c0 29 15 44 45 44c29 0 46 -15 52 -44l142 44
c-27 95 -91 142 -192 142c-57 0 -106 -16 -145 -47c-45 -35 -67 -83 -67 -143v-163c0 -62 22 -110 67 -143c38 -28 86 -42 145 -42c41 0 79 11 113 33c43 27 72 66 89 119z" />
    <glyph glyph-name="D" unicode="d" horiz-adv-x="508" 
d="M497 32v676h-170v-189c-19 6 -39 9 -60 9c-54 0 -99 -16 -136 -49c-39 -35 -59 -79 -59 -134v-173c0 -121 71 -182 212 -182c68 0 139 14 213 42zM327 383v-256c-10 -3 -21 -5 -32 -5c-37 0 -56 16 -56 48v173c0 31 17 47 50 47c14 0 27 -2 38 -7z" />
    <glyph glyph-name="Eth" unicode="&#xf0;" horiz-adv-x="504" 
d="M355 696l15 38l-75 28l-20 -53c-63 0 -118 -20 -165 -61l59 -80c18 12 39 19 64 21l-11 -26l68 -22l12 30c19 -15 27 -35 24 -60c-47 18 -95 18 -144 0c-72 -31 -108 -85 -108 -162v-176c0 -64 23 -112 68 -143c39 -27 90 -40 154 -40c70 0 136 15 198 44v446
c0 112 -46 184 -139 216zM325 381v-251c-16 -11 -34 -13 -54 -6c-22 7 -33 22 -33 45v179c0 23 11 38 32 43c19 5 37 1 55 -10z" />
    <glyph glyph-name="Dcaron" unicode="&#x10f;" horiz-adv-x="613" 
d="M497 32v676h-170v-189c-19 6 -39 9 -60 9c-54 0 -99 -16 -136 -49c-39 -35 -59 -79 -59 -134v-173c0 -121 71 -182 212 -182c68 0 139 14 213 42zM658 502l53 204h-151l-39 -204h137zM327 383v-256c-10 -3 -21 -5 -32 -5c-37 0 -56 16 -56 48v173c0 31 17 47 50 47
c14 0 27 -2 38 -7z" />
    <glyph glyph-name="Dcroat" unicode="&#x111;" horiz-adv-x="508" 
d="M497 32v541h47v86h-47v49h-170v-49h-80v-86h80v-54c-19 6 -39 9 -60 9c-54 0 -99 -16 -136 -49c-39 -35 -59 -79 -59 -134v-173c0 -121 71 -182 212 -182c68 0 139 14 213 42zM327 383v-256c-10 -3 -21 -5 -32 -5c-37 0 -56 16 -56 48v173c0 31 17 47 50 47
c14 0 27 -2 38 -7z" />
    <glyph glyph-name="E" unicode="e" horiz-adv-x="479" 
d="M224 180v19h261v140c0 61 -21 108 -62 143c-37 31 -84 46 -140 46c-58 0 -107 -15 -146 -45c-45 -33 -67 -80 -67 -141v-162c0 -60 23 -108 68 -143c40 -31 89 -47 147 -47c81 0 142 30 185 90l-94 76c-19 -23 -46 -35 -79 -35c-20 0 -37 5 -51 15c-15 11 -22 26 -22 44z
M339 347v-37h-113v34c0 32 19 48 57 48c37 0 56 -15 56 -45z" />
    <glyph glyph-name="Eacute" unicode="&#xe9;" horiz-adv-x="479" 
d="M333 565l126 159h-179l-96 -159h149zM224 180v19h261v140c0 61 -21 108 -62 143c-37 31 -84 46 -140 46c-58 0 -107 -15 -146 -45c-45 -33 -67 -80 -67 -141v-162c0 -60 23 -108 68 -143c40 -31 89 -47 147 -47c81 0 142 30 185 90l-94 76c-19 -23 -46 -35 -79 -35
c-20 0 -37 5 -51 15c-15 11 -22 26 -22 44zM339 347v-37h-113v34c0 32 19 48 57 48c37 0 56 -15 56 -45z" />
    <glyph glyph-name="Ecaron" unicode="&#x11b;" horiz-adv-x="479" 
d="M244 726h-162l145 -161h117l144 161h-160l-45 -50zM224 180v19h261v140c0 61 -21 108 -62 143c-37 31 -84 46 -140 46c-58 0 -107 -15 -146 -45c-45 -33 -67 -80 -67 -141v-162c0 -60 23 -108 68 -143c40 -31 89 -47 147 -47c81 0 142 30 185 90l-94 76
c-19 -23 -46 -35 -79 -35c-20 0 -37 5 -51 15c-15 11 -22 26 -22 44zM339 347v-37h-113v34c0 32 19 48 57 48c37 0 56 -15 56 -45z" />
    <glyph glyph-name="Ecircumflex" unicode="&#xea;" horiz-adv-x="479" 
d="M483 565l-144 161h-113l-148 -161h163l42 49l44 -49h156zM224 180v19h261v140c0 61 -21 108 -62 143c-37 31 -84 46 -140 46c-58 0 -107 -15 -146 -45c-45 -33 -67 -80 -67 -141v-162c0 -60 23 -108 68 -143c40 -31 89 -47 147 -47c81 0 142 30 185 90l-94 76
c-19 -23 -46 -35 -79 -35c-20 0 -37 5 -51 15c-15 11 -22 26 -22 44zM339 347v-37h-113v34c0 32 19 48 57 48c37 0 56 -15 56 -45z" />
    <glyph glyph-name="Edieresis" unicode="&#xeb;" horiz-adv-x="479" 
d="M108 705c-16 -17 -24 -37 -24 -61c0 -23 8 -43 24 -59c17 -16 37 -24 60 -24s43 8 60 24c16 16 24 36 24 59c0 24 -8 44 -24 61c-17 16 -37 24 -60 24s-43 -8 -60 -24zM330 705c-16 -17 -24 -37 -24 -61c0 -23 8 -43 24 -59s36 -24 60 -24s44 8 61 24c16 16 24 36 24 59
c0 24 -8 44 -24 61c-17 16 -37 24 -61 24s-44 -8 -60 -24zM224 180v19h261v140c0 61 -21 108 -62 143c-37 31 -84 46 -140 46c-58 0 -107 -15 -146 -45c-45 -33 -67 -80 -67 -141v-162c0 -60 23 -108 68 -143c40 -31 89 -47 147 -47c81 0 142 30 185 90l-94 76
c-19 -23 -46 -35 -79 -35c-20 0 -37 5 -51 15c-15 11 -22 26 -22 44zM339 347v-37h-113v34c0 32 19 48 57 48c37 0 56 -15 56 -45z" />
    <glyph glyph-name="Edotaccent" unicode="&#x117;" horiz-adv-x="479" 
d="M215 722c-18 -18 -27 -40 -27 -66c0 -27 9 -49 27 -67c19 -18 41 -27 68 -27s49 9 67 27c17 18 26 40 26 67c0 26 -9 48 -26 66c-18 18 -40 27 -67 27s-49 -9 -68 -27zM224 180v19h261v140c0 61 -21 108 -62 143c-37 31 -84 46 -140 46c-58 0 -107 -15 -146 -45
c-45 -33 -67 -80 -67 -141v-162c0 -60 23 -108 68 -143c40 -31 89 -47 147 -47c81 0 142 30 185 90l-94 76c-19 -23 -46 -35 -79 -35c-20 0 -37 5 -51 15c-15 11 -22 26 -22 44zM339 347v-37h-113v34c0 32 19 48 57 48c37 0 56 -15 56 -45z" />
    <glyph glyph-name="Egrave" unicode="&#xe8;" horiz-adv-x="479" 
d="M232 565h149l-96 159h-179zM224 180v19h261v140c0 61 -21 108 -62 143c-37 31 -84 46 -140 46c-58 0 -107 -15 -146 -45c-45 -33 -67 -80 -67 -141v-162c0 -60 23 -108 68 -143c40 -31 89 -47 147 -47c81 0 142 30 185 90l-94 76c-19 -23 -46 -35 -79 -35
c-20 0 -37 5 -51 15c-15 11 -22 26 -22 44zM339 347v-37h-113v34c0 32 19 48 57 48c37 0 56 -15 56 -45z" />
    <glyph glyph-name="Emacron" unicode="&#x113;" horiz-adv-x="479" 
d="M139 695v-123h285v123h-285zM224 180v19h261v140c0 61 -21 108 -62 143c-37 31 -84 46 -140 46c-58 0 -107 -15 -146 -45c-45 -33 -67 -80 -67 -141v-162c0 -60 23 -108 68 -143c40 -31 89 -47 147 -47c81 0 142 30 185 90l-94 76c-19 -23 -46 -35 -79 -35
c-20 0 -37 5 -51 15c-15 11 -22 26 -22 44zM339 347v-37h-113v34c0 32 19 48 57 48c37 0 56 -15 56 -45z" />
    <glyph glyph-name="Eogonek" unicode="&#x119;" horiz-adv-x="480" 
d="M224 180v19h263v140c0 61 -21 108 -63 143c-38 31 -85 46 -141 46c-58 0 -107 -15 -146 -45c-45 -33 -67 -80 -67 -141v-162c0 -57 20 -102 60 -137c35 -31 80 -48 134 -52c-49 -56 -66 -109 -53 -159c14 -51 54 -76 119 -76c44 0 82 13 115 40l-28 107
c-15 -9 -28 -14 -40 -14c-22 -1 -30 15 -23 48c7 34 26 63 57 88c21 14 40 32 56 55l-94 76c-19 -23 -45 -35 -78 -35c-20 0 -37 5 -50 15c-14 11 -21 26 -21 44zM339 347v-37h-113v34c0 32 19 48 57 48c37 0 56 -15 56 -45z" />
    <glyph glyph-name="F" unicode="f" horiz-adv-x="324" 
d="M359 567v145c-19 4 -39 6 -60 6c-62 0 -111 -17 -148 -52s-55 -82 -55 -142v-524h169v351h90v140h-90v32c0 17 9 30 26 39c18 9 41 11 68 5z" />
    <glyph glyph-name="G" unicode="g" horiz-adv-x="504" 
d="M74 345v-181c0 -57 19 -102 58 -133c33 -27 75 -41 126 -41c31 0 57 4 78 12c0 -52 -26 -78 -79 -78c-31 0 -63 9 -94 28l-63 -110c51 -41 112 -61 182 -61c141 0 212 78 212 233v470c-61 29 -126 44 -194 44c-65 0 -117 -13 -156 -40c-47 -31 -70 -79 -70 -143zM331 391
v-259c-11 -7 -25 -11 -40 -11c-35 0 -53 16 -53 47v183c0 33 19 50 57 50c14 0 26 -3 36 -10z" />
    <glyph glyph-name="Gbreve" unicode="&#x11f;" horiz-adv-x="504" 
d="M472 732h-135c0 -25 -13 -38 -39 -38s-39 13 -39 38h-137c0 -55 18 -98 55 -130c33 -29 73 -44 120 -44s87 15 120 44c37 32 55 75 55 130zM74 345v-181c0 -57 19 -102 58 -133c33 -27 75 -41 126 -41c31 0 57 4 78 12c0 -52 -26 -78 -79 -78c-31 0 -63 9 -94 28
l-63 -110c51 -41 112 -61 182 -61c141 0 212 78 212 233v470c-61 29 -126 44 -194 44c-65 0 -117 -13 -156 -40c-47 -31 -70 -79 -70 -143zM331 391v-259c-11 -7 -25 -11 -40 -11c-35 0 -53 16 -53 47v183c0 33 19 50 57 50c14 0 26 -3 36 -10z" />
    <glyph glyph-name="Gcommaaccent" unicode="&#x123;" horiz-adv-x="504" 
d="M280 762l-71 -190h167l57 190h-153zM74 345v-181c0 -57 19 -102 58 -133c33 -27 75 -41 126 -41c31 0 57 4 78 12c0 -52 -26 -78 -79 -78c-31 0 -63 9 -94 28l-63 -110c51 -41 112 -61 182 -61c141 0 212 78 212 233v470c-61 29 -126 44 -194 44c-65 0 -117 -13 -156 -40
c-47 -31 -70 -79 -70 -143zM331 391v-259c-11 -7 -25 -11 -40 -11c-35 0 -53 16 -53 47v183c0 33 19 50 57 50c14 0 26 -3 36 -10z" />
    <glyph glyph-name="Gdotaccent" unicode="&#x121;" horiz-adv-x="504" 
d="M233 728c-18 -17 -27 -39 -27 -64s9 -47 27 -65c19 -17 42 -26 69 -26s50 9 68 26c17 17 26 39 26 65c0 25 -9 47 -26 64c-18 17 -41 26 -68 26s-50 -9 -69 -26zM74 345v-181c0 -57 19 -102 58 -133c33 -27 75 -41 126 -41c31 0 57 4 78 12c0 -52 -26 -78 -79 -78
c-31 0 -63 9 -94 28l-63 -110c51 -41 112 -61 182 -61c141 0 212 78 212 233v470c-61 29 -126 44 -194 44c-65 0 -117 -13 -156 -40c-47 -31 -70 -79 -70 -143zM331 391v-259c-11 -7 -25 -11 -40 -11c-35 0 -53 16 -53 47v183c0 33 19 50 57 50c14 0 26 -3 36 -10z" />
    <glyph glyph-name="H" unicode="h" horiz-adv-x="514" 
d="M264 518v190h-168v-708h168v371c10 6 22 9 37 9c33 0 50 -14 50 -42v-338h168v337c0 60 -18 107 -54 142c-34 33 -78 49 -133 49c-23 0 -46 -3 -68 -10z" />
    <glyph glyph-name="Hbar" unicode="&#x127;" horiz-adv-x="514" 
d="M419 479c-34 33 -78 49 -133 49c-23 0 -46 -3 -68 -10v47h94v89h-94v54h-168v-54h-46v-89h46v-565h168v371c10 6 22 9 37 9c33 0 50 -14 50 -42v-338h168v337c0 60 -18 107 -54 142z" />
    <glyph glyph-name="I" unicode="i" horiz-adv-x="264" 
d="M98 709c-20 -17 -30 -40 -30 -70s10 -53 30 -70c19 -16 41 -24 67 -23c26 0 48 8 67 23c20 17 30 41 30 70s-10 53 -30 70c-19 15 -41 23 -67 23c-26 1 -48 -7 -67 -23zM250 518h-168v-518h168v518z" />
    <glyph glyph-name="dotlessi" unicode="&#x131;" horiz-adv-x="268" 
d="M268 0v518h-172v-518h172z" />
    <glyph glyph-name="Iacute" unicode="&#xed;" horiz-adv-x="268" 
d="M211 566l121 166h-166l-100 -166h145zM253 0v518h-172v-518h172z" />
    <glyph glyph-name="Icircumflex" unicode="&#xee;" horiz-adv-x="268" 
d="M267 566l-124 168h-117l-128 -168h159l28 39l30 -39h152zM169 0v518h-172v-518h172z" />
    <glyph glyph-name="Idieresis" unicode="&#xef;" horiz-adv-x="268" 
d="M-72 684c-16 -15 -24 -34 -24 -55s8 -38 24 -53c15 -15 34 -22 57 -22s42 7 58 22c16 14 24 32 24 53s-8 40 -24 55s-35 22 -58 22s-42 -7 -57 -22zM121 684c-15 -15 -23 -33 -23 -55c0 -21 8 -39 23 -53c15 -15 35 -22 59 -22c23 0 42 7 58 22c16 14 24 32 24 53
s-8 40 -24 55s-35 22 -58 22c-24 0 -44 -7 -59 -22zM172 0v518h-172v-518h172z" />
    <glyph glyph-name="_157" horiz-adv-x="268" 
d="M113 710c-18 -18 -27 -40 -27 -65c0 -26 9 -48 27 -66s40 -27 66 -27s48 9 66 27c17 18 26 40 26 66s-9 48 -26 65s-39 26 -66 26c-26 0 -48 -9 -66 -26zM263 0v518h-172v-518h172z" />
    <glyph glyph-name="Igrave" unicode="&#xec;" horiz-adv-x="268" 
d="M65 566h145l-100 166h-166zM192 0v518h-172v-518h172z" />
    <glyph glyph-name="IJ" unicode="&#x133;" horiz-adv-x="529" 
d="M98 709c-20 -17 -30 -40 -30 -70s10 -53 30 -70c19 -16 41 -24 67 -23c26 0 48 8 67 23c20 17 30 41 30 70s-10 53 -30 70c-19 15 -41 23 -67 23c-26 1 -48 -7 -67 -23zM250 518h-168v-518h168v518zM363 711c-20 -17 -30 -40 -30 -70s10 -53 30 -70c19 -16 41 -24 67 -23
c26 0 48 8 67 23c20 17 30 41 30 70s-10 53 -30 70c-19 15 -41 23 -67 23c-26 1 -48 -7 -67 -23zM270 -191v147c23 -5 42 -2 57 9c13 11 19 25 19 42v511h169v-513c0 -68 -23 -122 -70 -161c-49 -41 -107 -52 -175 -35z" />
    <glyph glyph-name="Imacron" unicode="&#x12b;" horiz-adv-x="268" 
d="M-28 702v-134h297v134h-297zM206 0v518h-172v-518h172z" />
    <glyph glyph-name="Iogonek" unicode="&#x12f;" horiz-adv-x="268" 
d="M64 710c-18 -18 -27 -40 -27 -66c0 -27 9 -49 27 -67c19 -18 41 -27 68 -27s49 9 67 27c17 18 26 40 26 67c0 26 -9 48 -26 66c-18 18 -40 27 -67 27s-49 -9 -68 -27zM258 -204l-28 107c-15 -9 -28 -14 -40 -14c-23 -1 -33 11 -29 36c5 26 23 51 55 75v518h-172v-518h30
c-55 -67 -74 -124 -58 -173c15 -47 57 -71 127 -71c44 0 82 13 115 40z" />
    <glyph glyph-name="J" unicode="j" horiz-adv-x="265" 
d="M37 711c-20 -17 -30 -40 -30 -70s10 -53 30 -70c19 -16 41 -24 67 -23c26 0 48 8 67 23c20 17 30 41 30 70s-10 53 -30 70c-19 15 -41 23 -67 23c-26 1 -48 -7 -67 -23zM-56 -191v147c23 -5 42 -2 57 9c13 11 19 25 19 42v511h169v-513c0 -68 -23 -122 -70 -161
c-49 -41 -107 -52 -175 -35z" />
    <glyph glyph-name="K" unicode="k" horiz-adv-x="509" 
d="M368 518l-111 -161v351h-161v-708h161v166l102 -166h198l-187 267l188 251h-190z" />
    <glyph glyph-name="Kcommaaccent" unicode="&#x137;" horiz-adv-x="509" 
d="M368 518l-111 -161v351h-161v-708h161v166l102 -166h198l-187 267l188 251h-190zM346 -252l74 200h-173l-60 -200h159z" />
    <glyph glyph-name="L" unicode="l" horiz-adv-x="295" 
d="M331 -2v147c-9 -2 -17 -3 -25 -3c-34 0 -51 16 -51 47v519h-169v-521c0 -62 18 -111 53 -146c34 -35 79 -52 135 -51c17 0 36 3 57 8z" />
    <glyph glyph-name="Lacute" unicode="&#x13a;" horiz-adv-x="295" 
d="M213 756l131 166h-186l-100 -166h155zM317 -2v147c-9 -2 -17 -3 -25 -3c-34 0 -51 16 -51 47v519h-169v-521c0 -62 18 -111 53 -146c34 -35 79 -52 135 -51c17 0 36 3 57 8z" />
    <glyph glyph-name="Lcaron" unicode="&#x13e;" horiz-adv-x="365" 
d="M331 -2v147c-9 -2 -17 -3 -25 -3c-34 0 -51 16 -51 47v519h-169v-521c0 -62 18 -111 53 -146c34 -35 79 -52 135 -51c17 0 36 3 57 8zM412 504l65 204h-157l-41 -204h133z" />
    <glyph glyph-name="Lcommaaccent" unicode="&#x13c;" horiz-adv-x="295" 
d="M331 -2v147c-9 -2 -17 -3 -25 -3c-34 0 -51 16 -51 47v519h-169v-521c0 -62 18 -111 53 -146c34 -35 79 -52 135 -51c17 0 36 3 57 8zM258 -252l74 200h-173l-60 -200h159z" />
    <glyph glyph-name="Ldot" unicode="&#x140;" horiz-adv-x="404" 
d="M331 -2v147c-9 -2 -17 -3 -25 -3c-34 0 -51 16 -51 47v519h-169v-521c0 -62 18 -111 53 -146c34 -35 79 -52 135 -51c17 0 36 3 57 8zM307 420c-17 -18 -26 -40 -26 -66s9 -48 26 -65s39 -26 66 -26c26 0 48 9 65 26s26 39 26 65s-9 48 -26 66s-39 27 -65 27
c-27 0 -49 -9 -66 -27z" />
    <glyph glyph-name="Lslash" unicode="&#x142;" horiz-adv-x="348" 
d="M252 189v161l101 42l-34 98l-67 -28v246h-169v-318l-81 -35l34 -98l47 20v-90c0 -62 18 -111 53 -146c34 -35 79 -52 135 -51c17 0 36 3 57 8v147c-9 -2 -17 -3 -25 -3c-34 0 -51 16 -51 47z" />
    <glyph glyph-name="M" unicode="m" horiz-adv-x="735" 
d="M94 476v-476h166v362c9 9 21 13 37 13c25 0 38 -10 38 -29v-346h163v344c0 20 13 30 38 30c23 0 35 -10 35 -31v-343h168v341c0 61 -19 109 -57 142c-35 30 -81 45 -138 45c-50 0 -92 -18 -125 -53c-35 35 -86 53 -152 53c-70 0 -128 -17 -173 -52z" />
    <glyph glyph-name="N" unicode="n" horiz-adv-x="512" 
d="M94 486v-486h169v374c10 4 22 6 35 6c33 0 50 -16 50 -48v-332h168v333c0 67 -24 117 -71 152c-41 29 -95 44 -162 43c-68 0 -131 -14 -189 -42z" />
    <glyph glyph-name="Nacute" unicode="&#x144;" horiz-adv-x="512" 
d="M360 566l131 166h-186l-100 -166h155zM94 486v-486h169v374c10 4 22 6 35 6c33 0 50 -16 50 -48v-332h168v333c0 67 -24 117 -71 152c-41 29 -95 44 -162 43c-68 0 -131 -14 -189 -42z" />
    <glyph glyph-name="Ncaron" unicode="&#x148;" horiz-adv-x="512" 
d="M267 734h-168l150 -168h122l150 168h-167l-46 -52zM94 486v-486h169v374c10 4 22 6 35 6c33 0 50 -16 50 -48v-332h168v333c0 67 -24 117 -71 152c-41 29 -95 44 -162 43c-68 0 -131 -14 -189 -42z" />
    <glyph glyph-name="Ncommaaccent" unicode="&#x146;" horiz-adv-x="512" 
d="M94 486v-486h169v374c10 4 22 6 35 6c33 0 50 -16 50 -48v-332h168v333c0 67 -24 117 -71 152c-41 29 -95 44 -162 43c-68 0 -131 -14 -189 -42zM341 -252l74 200h-173l-60 -200h159z" />
    <glyph glyph-name="Eng" unicode="&#x14b;" horiz-adv-x="511" 
d="M443 485c-41 29 -95 44 -162 43c-68 0 -131 -14 -189 -42v-486h169v374c10 4 22 6 35 6c35 0 53 -16 53 -48v-335c0 -17 -7 -32 -21 -44c-16 -13 -36 -17 -59 -12v-142c68 -17 126 -6 175 35c47 39 70 93 70 161v338c0 67 -24 117 -71 152z" />
    <glyph glyph-name="Ntilde" unicode="&#xf1;" horiz-adv-x="512" 
d="M126 601l84 -47c15 29 38 38 69 27c54 -19 87 -29 98 -29c48 -1 81 35 100 109l-88 50c-12 -29 -32 -37 -60 -26c-49 19 -76 29 -81 29c-67 2 -108 -36 -122 -113zM94 486v-486h169v374c10 4 22 6 35 6c33 0 50 -16 50 -48v-332h168v333c0 67 -24 117 -71 152
c-41 29 -95 44 -162 43c-68 0 -131 -14 -189 -42z" />
    <glyph glyph-name="O" unicode="o" horiz-adv-x="493" 
d="M70 337v-164c0 -57 22 -103 66 -136c39 -31 88 -46 145 -47c57 0 106 15 146 46c44 34 66 80 66 137v164c0 60 -22 108 -67 143c-39 31 -88 47 -145 48c-57 -1 -106 -17 -145 -48c-44 -35 -66 -83 -66 -143zM251 368c9 7 19 10 30 10s22 -3 31 -10c10 -7 15 -17 15 -28
v-169c0 -11 -5 -21 -15 -28c-9 -7 -19 -11 -31 -11s-22 4 -31 11c-10 7 -15 17 -15 28v169c0 11 5 21 16 28z" />
    <glyph glyph-name="Oacute" unicode="&#xf3;" horiz-adv-x="493" 
d="M331 565l126 159h-179l-96 -159h149zM70 337v-164c0 -57 22 -103 66 -136c39 -31 88 -46 145 -47c57 0 106 15 146 46c44 34 66 80 66 137v164c0 60 -22 108 -67 143c-39 31 -88 47 -145 48c-57 -1 -106 -17 -145 -48c-44 -35 -66 -83 -66 -143zM251 368c9 7 19 10 30 10
s22 -3 31 -10c10 -7 15 -17 15 -28v-169c0 -11 -5 -21 -15 -28c-9 -7 -19 -11 -31 -11s-22 4 -31 11c-10 7 -15 17 -15 28v169c0 11 5 21 16 28z" />
    <glyph glyph-name="Ocircumflex" unicode="&#xf4;" horiz-adv-x="493" 
d="M481 565l-144 161h-113l-148 -161h163l42 49l44 -49h156zM70 337v-164c0 -57 22 -103 66 -136c39 -31 88 -46 145 -47c57 0 106 15 146 46c44 34 66 80 66 137v164c0 60 -22 108 -67 143c-39 31 -88 47 -145 48c-57 -1 -106 -17 -145 -48c-44 -35 -66 -83 -66 -143z
M251 368c9 7 19 10 30 10s22 -3 31 -10c10 -7 15 -17 15 -28v-169c0 -11 -5 -21 -15 -28c-9 -7 -19 -11 -31 -11s-22 4 -31 11c-10 7 -15 17 -15 28v169c0 11 5 21 16 28z" />
    <glyph glyph-name="Odieresis" unicode="&#xf6;" horiz-adv-x="493" 
d="M110 705c-16 -17 -24 -37 -24 -61c0 -23 8 -43 24 -59c17 -16 37 -24 60 -24s43 8 60 24c16 16 24 36 24 59c0 24 -8 44 -24 61c-17 16 -37 24 -60 24s-43 -8 -60 -24zM331 705c-16 -17 -24 -37 -24 -61c0 -23 8 -43 24 -59s36 -24 60 -24s44 8 61 24c16 16 24 36 24 59
c0 24 -8 44 -24 61c-17 16 -37 24 -61 24s-44 -8 -60 -24zM70 337v-164c0 -57 22 -103 66 -136c39 -31 88 -46 145 -47c57 0 106 15 146 46c44 34 66 80 66 137v164c0 60 -22 108 -67 143c-39 31 -88 47 -145 48c-57 -1 -106 -17 -145 -48c-44 -35 -66 -83 -66 -143z
M251 368c9 7 19 10 30 10s22 -3 31 -10c10 -7 15 -17 15 -28v-169c0 -11 -5 -21 -15 -28c-9 -7 -19 -11 -31 -11s-22 4 -31 11c-10 7 -15 17 -15 28v169c0 11 5 21 16 28z" />
    <glyph glyph-name="Ograve" unicode="&#xf2;" horiz-adv-x="493" 
d="M230 565h149l-96 159h-179zM70 337v-164c0 -57 22 -103 66 -136c39 -31 88 -46 145 -47c57 0 106 15 146 46c44 34 66 80 66 137v164c0 60 -22 108 -67 143c-39 31 -88 47 -145 48c-57 -1 -106 -17 -145 -48c-44 -35 -66 -83 -66 -143zM251 368c9 7 19 10 30 10
s22 -3 31 -10c10 -7 15 -17 15 -28v-169c0 -11 -5 -21 -15 -28c-9 -7 -19 -11 -31 -11s-22 4 -31 11c-10 7 -15 17 -15 28v169c0 11 5 21 16 28z" />
    <glyph glyph-name="Ohungarumlaut" unicode="&#x151;" horiz-adv-x="493" 
d="M236 566l103 148h-162l-70 -148h129zM433 566l109 148h-162l-77 -148h130zM70 337v-164c0 -57 22 -103 66 -136c39 -31 88 -46 145 -47c57 0 106 15 146 46c44 34 66 80 66 137v164c0 60 -22 108 -67 143c-39 31 -88 47 -145 48c-57 -1 -106 -17 -145 -48
c-44 -35 -66 -83 -66 -143zM251 368c9 7 19 10 30 10s22 -3 31 -10c10 -7 15 -17 15 -28v-169c0 -11 -5 -21 -15 -28c-9 -7 -19 -11 -31 -11s-22 4 -31 11c-10 7 -15 17 -15 28v169c0 11 5 21 16 28z" />
    <glyph glyph-name="Omacron" unicode="&#x14d;" horiz-adv-x="493" 
d="M140 691v-126h280v126h-280zM70 337v-164c0 -57 22 -103 66 -136c39 -31 88 -46 145 -47c57 0 106 15 146 46c44 34 66 80 66 137v164c0 60 -22 108 -67 143c-39 31 -88 47 -145 48c-57 -1 -106 -17 -145 -48c-44 -35 -66 -83 -66 -143zM251 368c9 7 19 10 30 10
s22 -3 31 -10c10 -7 15 -17 15 -28v-169c0 -11 -5 -21 -15 -28c-9 -7 -19 -11 -31 -11s-22 4 -31 11c-10 7 -15 17 -15 28v169c0 11 5 21 16 28z" />
    <glyph glyph-name="Oslash" unicode="&#xf8;" horiz-adv-x="493" 
d="M425 481l25 70l-109 33l-21 -59c-13 2 -26 3 -39 3c-57 -1 -106 -17 -145 -48c-44 -35 -66 -83 -66 -143v-164c0 -61 25 -109 76 -144l-25 -64l105 -32l24 59c13 -1 24 -2 31 -2c57 0 106 15 146 46c44 34 66 80 66 137v164c0 61 -23 109 -68 144zM327 340v-169
c0 -11 -5 -21 -15 -28c-9 -7 -19 -11 -31 -11s-22 4 -31 11c-10 7 -15 17 -15 28v169c0 11 5 21 16 28c9 7 19 10 30 10s22 -3 31 -10c10 -7 15 -17 15 -28z" />
    <glyph glyph-name="Otilde" unicode="&#xf5;" horiz-adv-x="493" 
d="M96 602l85 -48c15 30 39 39 71 28c55 -20 88 -30 100 -30c49 -1 83 36 102 111l-89 51c-13 -29 -34 -38 -63 -26c-49 20 -77 30 -82 30c-67 2 -109 -37 -124 -116zM70 337v-164c0 -57 22 -103 66 -136c39 -31 88 -46 145 -47c57 0 106 15 146 46c44 34 66 80 66 137v164
c0 60 -22 108 -67 143c-39 31 -88 47 -145 48c-57 -1 -106 -17 -145 -48c-44 -35 -66 -83 -66 -143zM251 368c9 7 19 10 30 10s22 -3 31 -10c10 -7 15 -17 15 -28v-169c0 -11 -5 -21 -15 -28c-9 -7 -19 -11 -31 -11s-22 4 -31 11c-10 7 -15 17 -15 28v169c0 11 5 21 16 28z
" />
    <glyph glyph-name="OE" unicode="&#x153;" horiz-adv-x="742" 
d="M497 181v8h251v147c0 61 -21 109 -63 144c-39 31 -87 46 -145 45c-53 -1 -96 -20 -129 -56c-32 39 -75 59 -129 59c-58 -1 -107 -17 -146 -48c-44 -35 -66 -83 -66 -143v-163c0 -58 23 -104 68 -138c41 -31 90 -45 149 -44c52 1 92 23 121 64c27 -43 71 -65 132 -65
c75 0 133 30 176 90l-99 79c-25 -29 -51 -39 -80 -30c-27 8 -40 25 -40 51zM595 342v-42h-102v45c3 25 20 37 53 36s49 -14 49 -39zM252 368c9 7 19 10 30 10c27 0 42 -12 45 -35v-171c-1 -26 -17 -39 -46 -39s-44 13 -45 39v168c0 11 5 21 16 28z" />
    <glyph glyph-name="P" unicode="p" horiz-adv-x="508" 
d="M94 484v-670h170v186c22 -7 43 -10 63 -10c52 0 96 17 133 50c39 35 59 82 59 139v171c0 119 -70 178 -211 178c-67 0 -138 -15 -214 -44zM264 137v252c13 5 25 7 36 7c35 0 52 -14 52 -41v-177c0 -31 -16 -47 -49 -48c-15 -1 -28 1 -39 7z" />
    <glyph glyph-name="Thorn" unicode="&#xfe;" horiz-adv-x="507" 
d="M264 520v188h-168v-866h168v155c19 -5 34 -7 46 -7c56 0 104 16 144 49c44 36 66 83 66 142v169c0 63 -21 109 -64 140c-35 25 -83 38 -142 38c-12 0 -29 -3 -50 -8zM264 136v248c19 9 38 11 55 6c21 -6 32 -22 32 -47v-169c0 -25 -11 -40 -32 -46c-18 -5 -36 -2 -55 8z
" />
    <glyph glyph-name="Q" unicode="q" horiz-adv-x="508" 
d="M327 -1v-185h170v668c-68 31 -137 46 -207 46c-145 0 -218 -61 -218 -184v-171c0 -57 19 -103 57 -136c35 -31 80 -47 134 -47c22 0 43 3 64 9zM327 385v-250c-11 -5 -24 -7 -37 -7c-34 0 -51 17 -51 51v174c0 27 17 41 50 41c15 0 27 -3 38 -9z" />
    <glyph glyph-name="R" unicode="r" horiz-adv-x="353" 
d="M381 515c-35 9 -64 13 -87 13c-62 0 -111 -16 -147 -48c-41 -35 -61 -87 -61 -154v-326h169v318c0 27 14 46 43 56c27 9 54 7 83 -6v147z" />
    <glyph glyph-name="Racute" unicode="&#x155;" horiz-adv-x="353" 
d="M297 566l131 166h-180l-100 -166h149zM381 515c-35 9 -64 13 -87 13c-62 0 -111 -16 -147 -48c-41 -35 -61 -87 -61 -154v-326h169v318c0 27 14 46 43 56c27 9 54 7 83 -6v147z" />
    <glyph glyph-name="Rcaron" unicode="&#x159;" horiz-adv-x="353" 
d="M166 734h-168l144 -168h122l146 168h-167l-39 -51zM337 515c-35 9 -64 13 -87 13c-62 0 -111 -16 -147 -48c-41 -35 -61 -87 -61 -154v-326h169v318c0 27 14 46 43 56c27 9 54 7 83 -6v147z" />
    <glyph glyph-name="Rcommaaccent" unicode="&#x157;" horiz-adv-x="353" 
d="M340 515c-35 9 -64 13 -87 13c-62 0 -111 -16 -147 -48c-41 -35 -61 -87 -61 -154v-326h169v318c0 27 14 46 43 56c27 9 54 7 83 -6v147zM157 -248l71 192h-167l-57 -192h153z" />
    <glyph glyph-name="S" unicode="s" horiz-adv-x="426" 
d="M123 174l-75 -100c48 -56 110 -84 185 -84c53 0 98 15 133 45c39 33 59 77 59 133c0 77 -52 129 -157 156c-17 4 -30 11 -39 20c-6 7 -7 15 -3 24c4 8 10 13 17 14c20 3 50 -4 91 -23l82 102c-53 45 -113 67 -179 67c-56 0 -101 -18 -135 -54c-31 -33 -46 -70 -46 -112
c0 -101 57 -159 170 -174c21 -3 32 -12 33 -27s-8 -24 -27 -25c-35 -3 -71 9 -109 38z" />
    <glyph glyph-name="Sacute" unicode="&#x15b;" horiz-adv-x="426" 
d="M294 566l131 166h-186l-100 -166h155zM123 174l-75 -100c48 -56 110 -84 185 -84c53 0 98 15 133 45c39 33 59 77 59 133c0 77 -52 129 -157 156c-17 4 -30 11 -39 20c-6 7 -7 15 -3 24c4 8 10 13 17 14c20 3 50 -4 91 -23l82 102c-53 45 -113 67 -179 67
c-56 0 -101 -18 -135 -54c-31 -33 -46 -70 -46 -112c0 -101 57 -159 170 -174c21 -3 32 -12 33 -27s-8 -24 -27 -25c-35 -3 -71 9 -109 38z" />
    <glyph glyph-name="Scaron" unicode="&#x161;" horiz-adv-x="426" 
d="M186 734h-168l150 -168h122l150 168h-167l-46 -52zM108 174l-75 -100c48 -56 110 -84 185 -84c53 0 98 15 133 45c39 33 59 77 59 133c0 77 -52 129 -157 156c-17 4 -30 11 -39 20c-6 7 -7 15 -3 24c4 8 10 13 17 14c20 3 50 -4 91 -23l82 102c-53 45 -113 67 -179 67
c-56 0 -101 -18 -135 -54c-31 -33 -46 -70 -46 -112c0 -101 57 -159 170 -174c21 -3 32 -12 33 -27s-8 -24 -27 -25c-35 -3 -71 9 -109 38z" />
    <glyph glyph-name="Scedilla" unicode="&#x15f;" horiz-adv-x="426" 
d="M306 2c79 26 119 81 119 166c0 77 -52 129 -157 156c-17 4 -30 11 -39 20c-6 7 -7 15 -3 24c4 8 10 13 17 14c20 3 50 -4 91 -23l82 102c-53 45 -113 67 -179 67c-56 0 -101 -18 -135 -54c-31 -33 -46 -70 -46 -112c0 -101 57 -159 170 -174c21 -3 32 -12 33 -27
s-8 -24 -27 -25c-35 -3 -71 9 -109 38l-75 -100c37 -43 83 -70 137 -80l-34 -76c24 -2 43 -8 57 -18c13 -9 18 -20 15 -31c-5 -17 -18 -23 -40 -19c-20 3 -42 12 -65 28l-30 -81c39 -32 85 -48 138 -48c35 0 65 9 90 28c23 17 37 39 44 65c6 25 3 49 -8 70
c-13 23 -35 39 -65 47z" />
    <glyph glyph-name="Scommaaccent" unicode="&#x219;" horiz-adv-x="426" 
d="M123 174l-75 -100c48 -56 110 -84 185 -84c53 0 98 15 133 45c39 33 59 77 59 133c0 77 -52 129 -157 156c-17 4 -30 11 -39 20c-6 7 -7 15 -3 24c4 8 10 13 17 14c20 3 50 -4 91 -23l82 102c-53 45 -113 67 -179 67c-56 0 -101 -18 -135 -54c-31 -33 -46 -70 -46 -112
c0 -101 57 -159 170 -174c21 -3 32 -12 33 -27s-8 -24 -27 -25c-35 -3 -71 9 -109 38zM265 -239l69 187h-163l-55 -187h149z" />
    <glyph glyph-name="germandbls" unicode="&#xdf;" horiz-adv-x="576" 
d="M95 507v-507h169v500c0 19 7 34 20 45c12 10 27 15 45 15c21 0 37 -8 48 -23c11 -14 15 -30 12 -49s-12 -34 -27 -44c-17 -12 -39 -15 -66 -10v-152h45c21 0 38 -5 51 -16c14 -11 21 -25 21 -44c0 -27 -12 -48 -36 -63c-25 -16 -52 -17 -81 -2v-158c25 -6 49 -9 72 -9
c93 0 158 32 197 96c30 47 39 99 27 155c-13 61 -49 101 -106 122c49 33 74 82 74 149c0 65 -24 117 -71 155c-43 34 -95 51 -158 51c-64 0 -118 -18 -163 -53c-49 -39 -74 -92 -73 -158z" />
    <glyph glyph-name="T" unicode="t" horiz-adv-x="336" 
d="M357 9v134c-16 -5 -30 -7 -41 -7c-41 0 -61 20 -61 60v179h89v143h-89l-9 117h-158v-449c0 -64 17 -113 51 -148c31 -32 71 -48 122 -48c33 0 65 6 96 19z" />
    <glyph glyph-name="Tbar" unicode="&#x167;" horiz-adv-x="346" 
d="M335 143c-16 -5 -30 -7 -41 -7c-40 0 -60 20 -60 60v29h64v98h-64v53h85v142h-85l-10 117h-158v-312h-42v-98h42v-39c0 -64 17 -113 51 -148c31 -32 71 -48 122 -48c33 0 65 6 96 19v134z" />
    <glyph glyph-name="Tcaron" unicode="&#x165;" horiz-adv-x="336" 
d="M416 558l62 196h-150l-38 -196h126zM357 9v134c-16 -5 -30 -7 -41 -7c-41 0 -61 20 -61 60v179h89v143h-89l-9 117h-158v-449c0 -64 17 -113 51 -148c31 -32 71 -48 122 -48c33 0 65 6 96 19z" />
    <glyph glyph-name="Tcedilla" unicode="&#x163;" horiz-adv-x="336" 
d="M265 -252l74 200h-173l-60 -200h159zM357 9v134c-16 -5 -30 -7 -41 -7c-41 0 -61 20 -61 60v179h89v143h-89l-9 117h-158v-449c0 -64 17 -113 51 -148c31 -32 71 -48 122 -48c33 0 65 6 96 19z" />
    <glyph glyph-name="Tcommaaccent" unicode="&#x21b;" horiz-adv-x="336" 
d="M265 -252l74 200h-173l-60 -200h159zM357 9v134c-16 -5 -30 -7 -41 -7c-41 0 -61 20 -61 60v179h89v143h-89l-9 117h-158v-449c0 -64 17 -113 51 -148c31 -32 71 -48 122 -48c33 0 65 6 96 19z" />
    <glyph glyph-name="U" unicode="u" horiz-adv-x="513" 
d="M510 32v486h-169v-374c-10 -4 -21 -6 -32 -6c-35 0 -53 16 -53 48v332h-168v-333c0 -69 24 -120 72 -153c40 -28 94 -42 163 -42c67 0 130 14 187 42z" />
    <glyph glyph-name="Uacute" unicode="&#xfa;" horiz-adv-x="513" 
d="M352 566l131 166h-186l-100 -166h155zM510 32v486h-169v-374c-10 -4 -21 -6 -32 -6c-35 0 -53 16 -53 48v332h-168v-333c0 -69 24 -120 72 -153c40 -28 94 -42 163 -42c67 0 130 14 187 42z" />
    <glyph glyph-name="Ucircumflex" unicode="&#xfb;" horiz-adv-x="513" 
d="M507 566l-150 168h-117l-154 -168h169l44 52l46 -52h162zM509 32v486h-169v-374c-10 -4 -21 -6 -32 -6c-35 0 -53 16 -53 48v332h-168v-333c0 -69 24 -120 72 -153c40 -28 94 -42 163 -42c67 0 130 14 187 42z" />
    <glyph glyph-name="Udieresis" unicode="&#xfc;" horiz-adv-x="513" 
d="M119 705c-16 -17 -24 -37 -24 -61c0 -23 8 -43 24 -59c17 -16 37 -24 60 -24s43 8 60 24c16 16 24 36 24 59c0 24 -8 44 -24 61c-17 16 -37 24 -60 24s-43 -8 -60 -24zM360 705c-16 -17 -24 -37 -24 -61c0 -23 8 -43 24 -59s36 -24 60 -24s44 8 61 24c16 16 24 36 24 59
c0 24 -8 44 -24 61c-17 16 -37 24 -61 24s-44 -8 -60 -24zM510 32v486h-169v-374c-10 -4 -21 -6 -32 -6c-35 0 -53 16 -53 48v332h-168v-333c0 -69 24 -120 72 -153c40 -28 94 -42 163 -42c67 0 130 14 187 42z" />
    <glyph glyph-name="Ugrave" unicode="&#xf9;" horiz-adv-x="513" 
d="M247 566h155l-100 166h-186zM510 32v486h-169v-374c-10 -4 -21 -6 -32 -6c-35 0 -53 16 -53 48v332h-168v-333c0 -69 24 -120 72 -153c40 -28 94 -42 163 -42c67 0 130 14 187 42z" />
    <glyph glyph-name="Uhungarumlaut" unicode="&#x171;" horiz-adv-x="513" 
d="M247 566l111 158h-177l-75 -158h141zM473 566l117 158h-183l-74 -158h140zM510 32v486h-169v-374c-10 -4 -21 -6 -32 -6c-35 0 -53 16 -53 48v332h-168v-333c0 -69 24 -120 72 -153c40 -28 94 -42 163 -42c67 0 130 14 187 42z" />
    <glyph glyph-name="Umacron" unicode="&#x16b;" horiz-adv-x="513" 
d="M157 704v-131h292v131h-292zM510 32v486h-169v-374c-10 -4 -21 -6 -32 -6c-35 0 -53 16 -53 48v332h-168v-333c0 -69 24 -120 72 -153c40 -28 94 -42 163 -42c67 0 130 14 187 42z" />
    <glyph glyph-name="Uogonek" unicode="&#x173;" horiz-adv-x="513" 
d="M538 -204l-28 107c-15 -9 -28 -14 -40 -14c-23 -1 -30 16 -22 49c8 35 29 66 62 94v486h-169v-374c-10 -4 -21 -6 -32 -6c-35 0 -53 16 -53 48v332h-168v-333c0 -69 24 -120 72 -153c40 -28 94 -42 163 -42c13 0 22 0 29 1c-50 -59 -67 -113 -52 -162s56 -73 123 -73
c44 0 82 13 115 40z" />
    <glyph glyph-name="Uring" unicode="&#x16f;" horiz-adv-x="513" 
d="M207 760c-26 -25 -39 -55 -39 -90s13 -65 39 -89s57 -36 94 -36c35 0 66 12 92 37c25 24 38 53 38 87c0 33 -13 63 -38 88c-25 26 -56 39 -92 39c-37 0 -68 -12 -94 -36zM327 696c7 -8 10 -17 10 -28c0 -23 -12 -35 -36 -35c-11 0 -21 4 -28 12c-7 7 -10 14 -10 23
c0 27 13 40 38 40c10 0 19 -4 26 -12zM510 32v486h-169v-374c-10 -4 -21 -6 -32 -6c-35 0 -53 16 -53 48v332h-168v-333c0 -69 24 -120 72 -153c40 -28 94 -42 163 -42c67 0 130 14 187 42z" />
    <glyph glyph-name="V" unicode="v" horiz-adv-x="511" 
d="M331 518l-64 -249l-12 -103h-2l-15 102l-65 250h-179l183 -518h150l185 518h-181z" />
    <glyph glyph-name="W" unicode="w" horiz-adv-x="754" 
d="M513 185h-3l-58 323h-145l-58 -323h-3l-16 108l-54 225h-170l150 -518h173l34 127l16 87h3l14 -87l34 -127h173l151 518h-171l-54 -225z" />
    <glyph glyph-name="Wacute" unicode="&#x1e83;" horiz-adv-x="754" 
d="M432 566l131 166h-186l-100 -166h155zM513 185h-3l-58 323h-145l-58 -323h-3l-16 108l-54 225h-170l150 -518h173l34 127l16 87h3l14 -87l34 -127h173l151 518h-171l-54 -225z" />
    <glyph glyph-name="Wcircumflex" unicode="&#x175;" horiz-adv-x="754" 
d="M588 566l-150 168h-117l-154 -168h169l44 52l46 -52h162zM513 185h-3l-58 323h-145l-58 -323h-3l-16 108l-54 225h-170l150 -518h173l34 127l16 87h3l14 -87l34 -127h173l151 518h-171l-54 -225z" />
    <glyph glyph-name="Wdieresis" unicode="&#x1e85;" horiz-adv-x="754" 
d="M199 705c-16 -17 -24 -37 -24 -61c0 -23 8 -43 24 -59c17 -16 37 -24 60 -24s43 8 60 24c16 16 24 36 24 59c0 24 -8 44 -24 61c-17 16 -37 24 -60 24s-43 -8 -60 -24zM440 705c-16 -17 -24 -37 -24 -61c0 -23 8 -43 24 -59s36 -24 60 -24s44 8 61 24c16 16 24 36 24 59
c0 24 -8 44 -24 61c-17 16 -37 24 -61 24s-44 -8 -60 -24zM513 185h-3l-58 323h-145l-58 -323h-3l-16 108l-54 225h-170l150 -518h173l34 127l16 87h3l14 -87l34 -127h173l151 518h-171l-54 -225z" />
    <glyph glyph-name="Wgrave" unicode="&#x1e81;" horiz-adv-x="754" 
d="M327 566h155l-100 166h-186zM513 185h-3l-58 323h-145l-58 -323h-3l-16 108l-54 225h-170l150 -518h173l34 127l16 87h3l14 -87l34 -127h173l151 518h-171l-54 -225z" />
    <glyph glyph-name="X" unicode="x" horiz-adv-x="525" 
d="M187 0l54 94l18 59h2l17 -58l57 -95h192c-91 147 -146 234 -166 261l162 257h-188l-52 -89l-19 -67h-1l-21 65l-53 91h-183l159 -259l-158 -259h180z" />
    <glyph glyph-name="Y" unicode="y" horiz-adv-x="514" 
d="M510 12v506h-166v-379c-11 -7 -25 -11 -40 -11c-35 0 -53 16 -53 47v343h-163v-354c0 -57 19 -102 57 -133c33 -27 75 -41 126 -41c31 0 57 4 78 12c0 -53 -26 -80 -79 -80c-29 0 -60 10 -95 31l-67 -104c55 -47 117 -70 187 -70c65 0 117 19 155 58c40 41 60 100 60 175
z" />
    <glyph glyph-name="Yacute" unicode="&#xfd;" horiz-adv-x="514" 
d="M350 566l131 166h-186l-100 -166h155zM510 12v506h-166v-379c-11 -7 -25 -11 -40 -11c-35 0 -53 16 -53 47v343h-163v-354c0 -57 19 -102 57 -133c33 -27 75 -41 126 -41c31 0 57 4 78 12c0 -53 -26 -80 -79 -80c-29 0 -60 10 -95 31l-67 -104c55 -47 117 -70 187 -70
c65 0 117 19 155 58c40 41 60 100 60 175z" />
    <glyph glyph-name="Ycircumflex" unicode="&#x177;" horiz-adv-x="514" 
d="M503 566l-150 168h-117l-154 -168h169l44 52l46 -52h162zM507 12v506h-166v-379c-11 -7 -25 -11 -40 -11c-35 0 -53 16 -53 47v343h-163v-354c0 -57 19 -102 57 -133c33 -27 75 -41 126 -41c31 0 57 4 78 12c0 -53 -26 -80 -79 -80c-29 0 -60 10 -95 31l-67 -104
c55 -47 117 -70 187 -70c65 0 117 19 155 58c40 41 60 100 60 175z" />
    <glyph glyph-name="Ydieresis" unicode="&#xff;" horiz-adv-x="514" 
d="M117 705c-16 -17 -24 -37 -24 -61c0 -23 8 -43 24 -59c17 -16 37 -24 60 -24s43 8 60 24c16 16 24 36 24 59c0 24 -8 44 -24 61c-17 16 -37 24 -60 24s-43 -8 -60 -24zM358 705c-16 -17 -24 -37 -24 -61c0 -23 8 -43 24 -59s36 -24 60 -24s44 8 61 24c16 16 24 36 24 59
c0 24 -8 44 -24 61c-17 16 -37 24 -61 24s-44 -8 -60 -24zM510 12v506h-166v-379c-11 -7 -25 -11 -40 -11c-35 0 -53 16 -53 47v343h-163v-354c0 -57 19 -102 57 -133c33 -27 75 -41 126 -41c31 0 57 4 78 12c0 -53 -26 -80 -79 -80c-29 0 -60 10 -95 31l-67 -104
c55 -47 117 -70 187 -70c65 0 117 19 155 58c40 41 60 100 60 175z" />
    <glyph glyph-name="Ygrave" unicode="&#x1ef3;" horiz-adv-x="514" 
d="M245 566h155l-100 166h-186zM510 12v506h-166v-379c-11 -7 -25 -11 -40 -11c-35 0 -53 16 -53 47v343h-163v-354c0 -57 19 -102 57 -133c33 -27 75 -41 126 -41c31 0 57 4 78 12c0 -53 -26 -80 -79 -80c-29 0 -60 10 -95 31l-67 -104c55 -47 117 -70 187 -70
c65 0 117 19 155 58c40 41 60 100 60 175z" />
    <glyph glyph-name="Z" unicode="z" horiz-adv-x="457" 
d="M419 518h-364v-150h165l-182 -316l38 -52h369v150h-176l183 321z" />
    <glyph glyph-name="Zacute" unicode="&#x17a;" horiz-adv-x="457" 
d="M307 566l131 166h-186l-100 -166h155zM419 518h-364v-150h165l-182 -316l38 -52h369v150h-176l183 321z" />
    <glyph glyph-name="Zcaron" unicode="&#x17e;" horiz-adv-x="457" 
d="M214 734h-168l150 -168h122l150 168h-167l-46 -52zM419 518h-364v-150h165l-182 -316l38 -52h369v150h-176l183 321z" />
    <glyph glyph-name="Zdotaccent" unicode="&#x17c;" horiz-adv-x="457" 
d="M185 730c-19 -19 -29 -42 -29 -69s10 -51 29 -70s42 -28 70 -28s51 9 70 28c18 19 27 42 27 70c0 27 -9 50 -27 69c-19 19 -42 28 -70 28s-51 -9 -70 -28zM419 518h-364v-150h165l-182 -316l38 -52h369v150h-176l183 321z" />
    <glyph glyph-name="ordfeminine" unicode="&#xaa;" horiz-adv-x="372" 
d="M67 626l56 -52c22 19 48 28 78 27c32 -2 49 -16 50 -42c-42 13 -82 12 -121 -4c-47 -19 -70 -56 -70 -109c0 -70 34 -112 101 -127c52 -12 118 -7 198 15v233c0 37 -12 67 -35 92c-21 22 -48 36 -81 41c-77 13 -135 -12 -176 -74zM244 471v-66c-18 -5 -34 -5 -49 0
c-18 7 -27 19 -27 38c1 15 10 26 28 31c17 5 33 4 48 -3z" />
    <glyph glyph-name="ordmasculine" unicode="&#xba;" horiz-adv-x="410" 
d="M121 335c32 -25 71 -37 117 -37s85 12 118 37c36 28 54 65 54 112v120c0 47 -18 84 -54 112c-33 25 -72 37 -118 37s-85 -12 -117 -37c-37 -28 -55 -65 -55 -112v-120c0 -47 18 -84 55 -112zM201 447v120c0 23 12 35 37 34c24 0 36 -12 37 -35v-119
c-1 -23 -13 -35 -37 -34s-36 12 -37 34z" />
    <glyph glyph-name="uni0410" unicode="&#x410;" 
d="M651 0l-253 708h-163l-247 -708h192l44 142h189l46 -142h192zM370 301h-106l52 207h5z" />
    <glyph glyph-name="uni0411" unicode="&#x411;" horiz-adv-x="616" 
d="M586 63c45 41 68 97 68 168c0 74 -18 128 -55 161c-41 37 -108 56 -203 56h-104v110h304v150h-484v-708h289c78 0 140 21 185 63zM396 157h-104v161h103c55 0 82 -26 82 -78c0 -55 -27 -83 -81 -83z" />
    <glyph glyph-name="uni0412" unicode="&#x412;" horiz-adv-x="626" 
d="M553 377c47 24 72 62 73 115c2 66 -19 119 -63 159c-42 38 -98 57 -167 57h-284v-708h289c149 0 233 61 252 183c6 34 3 67 -10 99c-17 41 -47 73 -90 95zM396 431h-104v126h104c21 0 38 -7 50 -20c11 -11 17 -26 16 -43c0 -17 -6 -32 -17 -43c-12 -13 -28 -20 -49 -20z
M396 157h-104v145h104c25 0 45 -8 60 -23c13 -13 20 -30 20 -49c0 -20 -7 -37 -20 -50c-15 -15 -35 -23 -60 -23z" />
    <glyph glyph-name="uni0413" unicode="&#x413;" horiz-adv-x="510" 
d="M553 708h-441v-708h180v538h261v170z" />
    <glyph glyph-name="uni0414" unicode="&#x414;" horiz-adv-x="746" 
d="M36 -142h183v142h346v-142h180v303h-86v547h-462l-17 -237c-8 -118 -16 -190 -24 -215c-19 -63 -59 -95 -120 -95v-303zM479 538v-377h-165c16 43 26 97 30 162l15 215h120z" />
    <glyph glyph-name="uni0415" unicode="&#x415;" horiz-adv-x="588" 
d="M293 430v110h312v168h-493v-708h493v169h-312v106h287v155h-287z" />
    <glyph glyph-name="uni0401" unicode="&#x401;" horiz-adv-x="588" 
d="M184 895c-16 -17 -24 -37 -24 -61c0 -23 8 -43 24 -59c17 -16 37 -24 60 -24s43 8 60 24c16 16 24 36 24 59c0 24 -8 44 -24 61c-17 16 -37 24 -60 24s-43 -8 -60 -24zM425 895c-16 -17 -24 -37 -24 -61c0 -23 8 -43 24 -59s36 -24 60 -24s44 8 61 24c16 16 24 36 24 59
c0 24 -8 44 -24 61c-17 16 -37 24 -61 24s-44 -8 -60 -24zM293 430v110h312v168h-493v-708h493v169h-312v106h287v155h-287z" />
    <glyph glyph-name="uni0416" unicode="&#x416;" horiz-adv-x="948" 
d="M375 260v-260h180v260l6 8l163 -268h223l-252 360l253 348h-216l-177 -265v265h-180v-265l-177 265h-216l253 -348l-252 -360h223l163 268z" />
    <glyph glyph-name="uni0417" unicode="&#x417;" horiz-adv-x="570" 
d="M541 212c0 77 -34 132 -101 165c51 26 77 71 77 136s-21 115 -63 151c-43 36 -103 54 -181 54c-99 0 -177 -36 -236 -108l94 -92c45 33 88 50 129 50c60 0 90 -22 90 -67c0 -49 -28 -74 -85 -74h-101v-123h105c61 0 92 -27 92 -81c0 -51 -38 -76 -114 -76
c-48 0 -93 24 -135 71l-114 -89c57 -93 143 -139 259 -139c89 0 159 20 209 59s75 93 75 163z" />
    <glyph glyph-name="uni0418" unicode="&#x418;" horiz-adv-x="685" 
d="M505 283v-283h180v708h-164l-181 -301l-59 -127l-4 1c9 71 14 106 15 106v321h-180v-708h169l170 279l67 138l5 -1c-11 -89 -17 -133 -18 -133z" />
    <glyph glyph-name="uni0419" unicode="&#x419;" horiz-adv-x="685" 
d="M269 810c33 -29 75 -44 125 -44s92 15 125 44c37 32 56 75 56 130h-139c0 -27 -14 -41 -42 -41s-42 14 -42 41h-139c0 -55 19 -98 56 -130zM505 283v-283h180v708h-164l-181 -301l-59 -127l-4 1c9 71 14 106 15 106v321h-180v-708h169l170 279l67 138l5 -1
c-11 -89 -17 -133 -18 -133z" />
    <glyph glyph-name="uni041A" unicode="&#x41a;" horiz-adv-x="640" 
d="M484 708l-192 -262v262h-180v-708h180v245l6 8l183 -253h225l-279 360l280 348h-223z" />
    <glyph glyph-name="uni041B" unicode="&#x41b;" horiz-adv-x="709" 
d="M347 323l12 215h131v-538h180v708h-473l-17 -237c-9 -121 -16 -192 -22 -214c-19 -63 -60 -93 -124 -90v-167c105 -11 185 20 240 91c43 57 68 135 73 232z" />
    <glyph glyph-name="uni041C" unicode="&#x41c;" horiz-adv-x="769" 
d="M112 708v-708h179v204l-12 143l5 1l95 -243h123l93 243l6 -1l-11 -143l-1 -204h180v708h-179l-150 -346l-149 346h-179z" />
    <glyph glyph-name="uni041D" unicode="&#x41d;" horiz-adv-x="676" 
d="M292 0v267h204v-267h180v708h-180v-268h-204v268h-180v-708h180z" />
    <glyph glyph-name="uni041E" unicode="&#x41e;" horiz-adv-x="665" 
d="M78 475v-242c0 -77 31 -137 92 -182c55 -41 123 -61 202 -61s147 20 202 61c61 45 91 105 91 182v242c0 77 -31 137 -92 182c-55 41 -123 61 -202 61c-80 0 -147 -20 -202 -60c-61 -45 -91 -106 -91 -183zM257 233v242c0 25 12 45 35 60c21 13 47 20 77 20
c32 0 59 -6 80 -19c25 -15 37 -35 37 -61v-242c0 -24 -12 -43 -36 -58c-21 -13 -47 -19 -78 -19s-58 6 -79 19c-24 14 -36 33 -36 58z" />
    <glyph glyph-name="uni041F" unicode="&#x41f;" horiz-adv-x="671" 
d="M292 0v538h199v-538h180v708h-559v-708h180z" />
    <glyph glyph-name="uni0420" unicode="&#x420;" horiz-adv-x="618" 
d="M112 708v-708h179v207h105c81 0 145 26 193 78c43 47 65 105 65 173s-22 125 -65 172c-47 52 -112 78 -194 78h-283zM395 366h-104v175h104c25 0 46 -9 61 -27c13 -17 20 -37 20 -60c0 -24 -7 -44 -20 -61c-15 -18 -36 -27 -61 -27z" />
    <glyph glyph-name="uni0421" unicode="&#x421;" horiz-adv-x="582" 
d="M612 149l-156 72c-19 -47 -57 -68 -114 -63c-24 2 -44 10 -59 23c-17 13 -26 30 -26 51v244c0 45 28 70 85 76s97 -13 121 -56l146 59c-49 109 -132 163 -249 163c-77 0 -141 -20 -194 -61c-59 -45 -88 -105 -88 -181v-244c0 -76 29 -136 87 -181c53 -41 117 -61 192 -61
c115 0 200 53 255 159z" />
    <glyph glyph-name="uni0422" unicode="&#x422;" horiz-adv-x="585" 
d="M397 539h188v170h-557v-170h188v-539h181v539z" />
    <glyph glyph-name="uni0423" unicode="&#x423;" horiz-adv-x="600" 
d="M267 426l-48 128l-70 154h-203l233 -479l-104 -229h193l320 708h-199l-64 -144l-53 -138h-5z" />
    <glyph glyph-name="uni0424" unicode="&#x424;" horiz-adv-x="804" 
d="M343 58v-58h170v58c81 0 148 18 201 54c60 42 90 102 90 181v122c0 79 -30 139 -90 181c-53 36 -120 54 -201 54v58h-170v-58c-81 0 -148 -18 -201 -54c-60 -42 -90 -102 -90 -181v-122c0 -79 30 -139 90 -181c53 -36 120 -54 201 -54zM232 292v124c0 48 37 72 111 72
v-268c-74 0 -111 24 -111 72zM624 416v-124c0 -48 -37 -72 -111 -72v268c74 0 111 -24 111 -72z" />
    <glyph glyph-name="uni0425" unicode="&#x425;" horiz-adv-x="656" 
d="M448 708l-124 -242l-121 242h-209l199 -355l-199 -353h209l121 241l124 -241h208l-198 353l198 355h-208z" />
    <glyph glyph-name="uni0427" unicode="&#x427;" horiz-adv-x="639" 
d="M435 237v-237h180v708h-180l-1 -307c-25 -23 -62 -34 -113 -34c-51 1 -77 26 -77 73v268h-180v-268c0 -77 25 -137 74 -182c45 -41 101 -61 168 -61c55 0 98 13 129 40z" />
    <glyph glyph-name="uni0426" unicode="&#x426;" horiz-adv-x="715" 
d="M112 708v-708h469v-142h170v312h-86v538h-180v-538h-193v538h-180z" />
    <glyph glyph-name="uni0428" unicode="&#x428;" horiz-adv-x="988" 
d="M292 708h-180v-708h876v708h-180v-538h-168v538h-180v-538h-168v538z" />
    <glyph glyph-name="uni0429" unicode="&#x429;" horiz-adv-x="1038" 
d="M988 708h-180v-538h-168v538h-180v-538h-168v538h-180v-708h792v-142h170v312h-86v538z" />
    <glyph glyph-name="uni042F" unicode="&#x42f;" horiz-adv-x="646" 
d="M378 0h180v708h-282c-83 0 -147 -20 -194 -61s-72 -98 -74 -172c0 -113 48 -186 144 -219l-216 -256h223l190 238h29v-238zM273 538h105v-159h-105c-57 0 -85 27 -85 82c0 51 28 77 85 77z" />
    <glyph glyph-name="uni042C" unicode="&#x42c;" horiz-adv-x="618" 
d="M587 69c44 45 66 103 66 174c0 149 -85 224 -255 224h-106v241h-180v-708h291c77 0 138 23 184 69zM398 157h-106v168h106c53 0 79 -27 79 -80c0 -59 -26 -88 -79 -88z" />
    <glyph glyph-name="uni042A" unicode="&#x42a;" horiz-adv-x="714" 
d="M34 538h135v-538h291c77 0 138 23 184 69c44 45 66 103 66 174c0 149 -85 224 -255 224h-106v241h-315v-170zM455 157h-106v168h106c53 0 79 -27 79 -80c0 -59 -26 -88 -79 -88z" />
    <glyph glyph-name="uni042B" unicode="&#x42b;" horiz-adv-x="915" 
d="M587 69c44 45 66 103 66 174c0 149 -85 224 -255 224h-106v241h-180v-708h291c77 0 138 23 184 69zM915 0v708h-179v-708h179zM398 157h-106v168h106c53 0 79 -27 79 -80c0 -59 -26 -88 -79 -88z" />
    <glyph glyph-name="uni042D" unicode="&#x42d;" horiz-adv-x="588" 
d="M383 283v-50c0 -22 -10 -40 -29 -53c-18 -13 -40 -19 -66 -20c-53 0 -87 21 -104 62l-156 -72c55 -107 140 -160 255 -160c75 0 139 20 192 61c59 45 88 106 88 182v241c0 76 -29 137 -88 182c-53 41 -118 62 -195 62c-116 0 -199 -55 -249 -165l146 -59
c21 38 56 57 106 57c27 0 50 -7 69 -20c21 -15 31 -34 31 -57v-42h-157v-149h157z" />
    <glyph glyph-name="uni042E" unicode="&#x42e;" horiz-adv-x="974" 
d="M400 475v-36h-112v269h-180v-708h180v275h112v-42c0 -77 31 -137 92 -182c55 -41 123 -61 203 -61c79 0 147 20 202 61c61 45 92 105 92 182v242c0 77 -31 137 -92 182c-55 41 -123 61 -203 61s-147 -20 -202 -60c-61 -45 -92 -106 -92 -183zM580 237v231
c0 25 12 44 36 59c21 13 47 20 78 21c31 0 58 -7 79 -20c24 -15 36 -35 36 -60v-231c0 -25 -12 -44 -36 -58c-21 -13 -48 -19 -79 -19s-57 6 -78 19c-24 15 -36 34 -36 58z" />
    <glyph glyph-name="_268" horiz-adv-x="722" 
d="M32 -142h182v142h327v-142h182v303h-62l-191 547h-189l-185 -547h-64v-303zM379 508l35 -156l49 -191h-172l53 189l31 158h4z" />
    <glyph glyph-name="_269" horiz-adv-x="634" 
d="M309 508h6l41 -207l89 -301h192l-244 708h-165l-238 -708h192l84 301z" />
    <glyph glyph-name="uni0430" unicode="&#x430;" horiz-adv-x="483" 
d="M301 319c-15 3 -35 4 -60 4c-63 0 -111 -16 -146 -47c-33 -29 -49 -67 -49 -114c0 -115 73 -172 218 -172c69 0 136 12 200 35v318c0 60 -21 107 -63 140c-37 30 -85 45 -142 45c-85 0 -150 -31 -196 -93l78 -79c28 25 58 37 90 37c49 0 73 -25 70 -74zM299 209v-89
c-24 -6 -45 -7 -62 -2c-22 7 -33 22 -33 45c0 21 10 35 31 44c19 9 41 9 64 2z" />
    <glyph glyph-name="uni0431" unicode="&#x431;" horiz-adv-x="511" 
d="M470 436c-33 33 -75 49 -128 49c-35 0 -63 -8 -84 -23v48c0 28 11 46 33 55c7 3 29 7 64 11c60 8 107 24 142 49l-49 126c-33 -20 -91 -36 -175 -48c-123 -17 -185 -74 -185 -172v-358c0 -57 23 -103 68 -137c41 -31 90 -46 148 -46s107 15 148 46c45 34 68 80 68 137
v129c0 56 -17 101 -50 134zM350 305v-126c0 -26 -15 -39 -46 -39s-46 13 -46 39v149c11 10 27 15 46 15c12 0 22 -3 31 -10c10 -7 15 -17 15 -28z" />
    <glyph glyph-name="uni0432" unicode="&#x432;" horiz-adv-x="517" 
d="M456 276c42 21 63 58 63 109c0 89 -66 133 -198 133h-225v-518h225c143 0 215 47 215 140c0 66 -27 111 -80 136zM317 315h-51v88h48c34 0 51 -15 52 -44c0 -29 -16 -44 -49 -44zM317 115h-51v101h51c40 0 60 -17 59 -50c-1 -34 -21 -51 -59 -51z" />
    <glyph glyph-name="uni0433" unicode="&#x433;" horiz-adv-x="399" 
d="M96 0h170v368h168v150h-338v-518z" />
    <glyph glyph-name="uni0434" unicode="&#x434;" horiz-adv-x="598" 
d="M435 -118h159v256h-64v380h-375l-20 -227c-5 -57 -13 -95 -24 -116c-13 -25 -37 -37 -70 -37h-5v-256h159v118h240v-118zM367 138h-102c12 19 19 47 21 83l11 154h70v-237z" />
    <glyph glyph-name="uni0435" unicode="&#x435;" horiz-adv-x="479" 
d="M224 180v19h261v140c0 61 -21 108 -62 143c-37 31 -84 46 -140 46c-58 0 -107 -15 -146 -45c-45 -33 -67 -80 -67 -141v-162c0 -60 23 -108 68 -143c40 -31 89 -47 147 -47c81 0 142 30 185 90l-94 76c-19 -23 -46 -35 -79 -35c-20 0 -37 5 -51 15c-15 11 -22 26 -22 44z
M339 347v-37h-113v34c0 32 19 48 57 48c37 0 56 -15 56 -45z" />
    <glyph glyph-name="uni0451" unicode="&#x451;" horiz-adv-x="479" 
d="M102 705c-16 -17 -24 -37 -24 -61c0 -23 8 -43 24 -59c17 -16 37 -24 60 -24s43 8 60 24c16 16 24 36 24 59c0 24 -8 44 -24 61c-17 16 -37 24 -60 24s-43 -8 -60 -24zM333 705c-16 -17 -24 -37 -24 -61c0 -23 8 -43 24 -59s36 -24 60 -24s44 8 61 24c16 16 24 36 24 59
c0 24 -8 44 -24 61c-17 16 -37 24 -61 24s-44 -8 -60 -24zM224 180v19h261v140c0 61 -21 108 -62 143c-37 31 -84 46 -140 46c-58 0 -107 -15 -146 -45c-45 -33 -67 -80 -67 -141v-162c0 -60 23 -108 68 -143c40 -31 89 -47 147 -47c81 0 142 30 185 90l-94 76
c-19 -23 -46 -35 -79 -35c-20 0 -37 5 -51 15c-15 11 -22 26 -22 44zM339 347v-37h-113v34c0 32 19 48 57 48c37 0 56 -15 56 -45z" />
    <glyph glyph-name="uni0436" unicode="&#x436;" horiz-adv-x="747" 
d="M293 167v-167h165v167l100 -167h188l-181 267l182 251h-190l-99 -171v171h-165v-171l-99 171h-190l182 -251l-181 -267h188z" />
    <glyph glyph-name="uni0437" unicode="&#x437;" horiz-adv-x="443" 
d="M112 160l-90 -74c32 -65 101 -97 207 -96c55 1 100 13 136 38c41 29 61 68 61 119c0 61 -27 104 -80 129c42 21 63 60 63 116c0 45 -19 79 -56 104c-33 22 -74 33 -125 32c-85 0 -147 -29 -185 -87l83 -75c26 23 52 34 77 34c35 0 53 -13 53 -38c0 -31 -16 -47 -49 -47
h-61v-102h65c38 0 56 -16 55 -49c-1 -29 -22 -44 -62 -44c-37 0 -67 13 -92 40z" />
    <glyph glyph-name="uni0438" unicode="&#x438;" horiz-adv-x="557" 
d="M400 292l-13 -113v-179h170v518h-167l-99 -222l-32 -89l-3 1l10 111v199h-170v-518h168l104 203l28 90z" />
    <glyph glyph-name="uni0439" unicode="&#x439;" horiz-adv-x="557" 
d="M516 756h-132c0 -31 -14 -47 -43 -46s-43 16 -43 46h-132c-2 -55 15 -99 51 -132c33 -30 73 -45 121 -45s89 15 122 44c37 33 56 78 56 133zM400 292l-13 -113v-179h170v518h-167l-99 -222l-32 -89l-3 1l10 111v199h-170v-518h168l104 203l28 90z" />
    <glyph glyph-name="uni043A" unicode="&#x43a;" horiz-adv-x="522" 
d="M377 518l-111 -161v161h-170v-518h170v166l112 -166h191l-187 267l188 251h-193z" />
    <glyph glyph-name="uni043B" unicode="&#x43b;" horiz-adv-x="551" 
d="M351 0h170v518h-368l-19 -227c-5 -57 -13 -97 -26 -118c-14 -24 -38 -36 -72 -36v-137c86 0 147 13 183 38c39 27 61 77 67 150l14 180h51v-368z" />
    <glyph glyph-name="uni043C" unicode="&#x43c;" horiz-adv-x="656" 
d="M257 261l68 -185h103l67 185h5l-14 -112v-149h170v518h-181l-99 -261l-99 261h-181v-518h170v149l-14 112h5z" />
    <glyph glyph-name="uni043D" unicode="&#x43d;" horiz-adv-x="525" 
d="M355 0h170v518h-170v-173h-89v173h-170v-518h170v195h89v-195z" />
    <glyph glyph-name="uni043E" unicode="&#x43e;" horiz-adv-x="493" 
d="M70 337v-164c0 -57 22 -103 66 -136c39 -31 88 -46 145 -47c57 0 106 15 146 46c44 34 66 80 66 137v164c0 60 -22 108 -67 143c-39 31 -88 47 -145 48c-57 -1 -106 -17 -145 -48c-44 -35 -66 -83 -66 -143zM251 368c9 7 19 10 30 10s22 -3 31 -10c10 -7 15 -17 15 -28
v-169c0 -11 -5 -21 -15 -28c-9 -7 -19 -11 -31 -11s-22 4 -31 11c-10 7 -15 17 -15 28v169c0 11 5 21 16 28z" />
    <glyph glyph-name="uni043F" unicode="&#x43f;" horiz-adv-x="527" 
d="M357 0h170v518h-431v-518h170v368h91v-368z" />
    <glyph glyph-name="uni0440" unicode="&#x440;" horiz-adv-x="521" 
d="M102 484v-670h170v185c19 -6 39 -9 59 -9c53 0 99 16 139 49c43 35 65 80 64 134v177c-6 119 -77 178 -214 178c-68 0 -141 -15 -218 -44zM272 128v259c10 3 21 5 32 5c40 0 60 -14 60 -42v-186c0 -29 -19 -43 -58 -43c-12 0 -23 2 -34 7z" />
    <glyph glyph-name="uni0441" unicode="&#x441;" horiz-adv-x="462" 
d="M484 142l-146 33c-9 -29 -27 -43 -56 -43c-31 0 -47 15 -47 44v166c0 29 15 44 45 44c29 0 46 -15 52 -44l142 44c-27 95 -91 142 -192 142c-57 0 -106 -16 -145 -47c-45 -35 -67 -83 -67 -143v-163c0 -62 22 -110 67 -143c38 -28 86 -42 145 -42c41 0 79 11 113 33
c43 27 72 66 89 119z" />
    <glyph glyph-name="uni0442" unicode="&#x442;" horiz-adv-x="460" 
d="M331 378h129v140h-428v-140h129v-378h170v378z" />
    <glyph glyph-name="uni0443" unicode="&#x443;" horiz-adv-x="514" 
d="M510 12v506h-166v-379c-11 -7 -25 -11 -40 -11c-35 0 -53 16 -53 47v343h-163v-354c0 -57 19 -102 57 -133c33 -27 75 -41 126 -41c31 0 57 4 78 12c0 -53 -26 -80 -79 -80c-29 0 -60 10 -95 31l-67 -104c55 -47 117 -70 187 -70c65 0 117 19 155 58c40 41 60 100 60 175
z" />
    <glyph glyph-name="uni0444" unicode="&#x444;" horiz-adv-x="724" 
d="M319 2l-1 -188h165v188c17 -8 38 -12 62 -12c119 0 179 58 179 173v192c0 115 -60 173 -179 173c-24 0 -45 -4 -62 -12v192h-165v-192c-17 8 -38 12 -61 12c-119 0 -179 -58 -179 -173v-192c0 -115 60 -173 179 -173c24 0 45 4 62 12zM248 172v174c0 29 14 44 43 44
c10 0 19 -3 28 -9v-244c-9 -6 -18 -9 -28 -9c-29 0 -43 15 -43 44zM554 346v-174c0 -29 -14 -44 -43 -44c-9 0 -19 3 -28 9v244c9 6 19 9 28 9c29 0 43 -15 43 -44z" />
    <glyph glyph-name="uni0445" unicode="&#x445;" horiz-adv-x="527" 
d="M189 0l54 94l18 59h2l17 -58l57 -95h192c-91 147 -146 234 -166 261l162 257h-188l-52 -89l-19 -67h-1l-21 65l-53 91h-183l159 -259l-158 -259h180z" />
    <glyph glyph-name="uni0447" unicode="&#x447;" horiz-adv-x="501" 
d="M310 0h170v518h-170v-215c-13 -8 -27 -12 -43 -12c-29 0 -43 16 -43 47v180h-170v-208c0 -60 20 -105 60 -135c31 -23 67 -34 110 -34c36 0 65 7 86 22v-163z" />
    <glyph glyph-name="uni0446" unicode="&#x446;" horiz-adv-x="564" 
d="M591 -128v266h-66v380h-170v-380h-89v380h-170v-518h337l10 -128h148z" />
    <glyph glyph-name="uni0448" unicode="&#x448;" horiz-adv-x="766" 
d="M266 518h-170v-518h670v518h-170v-373h-80v373h-170v-373h-80v373z" />
    <glyph glyph-name="uni0449" unicode="&#x449;" horiz-adv-x="805" 
d="M96 518v-518h578l10 -128h147v266h-65v380h-170v-380h-80v380h-170v-380h-80v380h-170z" />
    <glyph glyph-name="uni044F" unicode="&#x44f;" horiz-adv-x="523" 
d="M305 0h170v518h-214c-149 0 -223 -56 -223 -167c0 -75 36 -125 108 -150l-146 -201h190l112 181h4zM259 402h46v-116h-46c-41 0 -62 20 -62 60c0 37 21 56 62 56z" />
    <glyph glyph-name="uni044C" unicode="&#x44c;" horiz-adv-x="504" 
d="M351 349h-85v169h-170v-518h225c72 0 125 12 159 37c37 27 56 71 56 133c0 119 -62 179 -185 179zM317 115h-51v123h51c41 0 60 -21 59 -63c-1 -40 -21 -60 -59 -60z" />
    <glyph glyph-name="uni044A" unicode="&#x44a;" horiz-adv-x="565" 
d="M24 518v-122h97v-396h225c72 0 125 12 159 37c37 27 56 71 56 133c0 119 -62 179 -185 179h-85v169h-267zM342 115h-51v123h51c41 0 60 -21 59 -63c-1 -40 -21 -60 -59 -60z" />
    <glyph glyph-name="uni044B" unicode="&#x44b;" horiz-adv-x="759" 
d="M351 349h-85v169h-170v-518h225c72 0 125 12 159 37c37 27 56 71 56 133c0 119 -62 179 -185 179zM590 518v-518h169v518h-169zM317 115h-51v123h51c41 0 60 -21 59 -63c-1 -40 -21 -60 -59 -60z" />
    <glyph glyph-name="uni044D" unicode="&#x44d;" horiz-adv-x="470" 
d="M382 481c-41 31 -91 47 -148 47c-101 0 -165 -47 -192 -142l142 -51c6 31 23 45 52 44c30 0 45 -15 45 -44v-33h-86v-101h86v-41c0 -29 -16 -44 -48 -44c-26 0 -46 18 -60 55l-141 -33c31 -99 99 -148 202 -148c57 0 107 16 148 47c46 35 69 83 69 142v159
c0 59 -23 107 -69 143z" />
    <glyph glyph-name="uni044E" unicode="&#x44e;" horiz-adv-x="739" 
d="M263 336v182h-169v-518h169v200h56v-27c0 -57 23 -103 68 -137c41 -31 90 -46 148 -46s107 15 148 46c45 34 68 80 68 137v164c0 60 -23 108 -69 143c-40 31 -89 47 -147 48c-57 -1 -106 -17 -147 -48c-46 -36 -69 -84 -69 -144h-56zM581 179c-1 -26 -17 -39 -46 -39
s-45 13 -46 39v161c0 11 5 21 15 28c9 7 19 10 31 10s22 -3 31 -10c10 -7 15 -17 15 -28v-161z" />
    <glyph glyph-name="_303" horiz-adv-x="515" 
d="M529 173v87c0 75 -31 118 -94 127c55 24 82 76 82 155c0 57 -22 102 -65 134c-38 28 -85 42 -142 42c-58 0 -107 -15 -148 -46c-45 -34 -68 -80 -68 -137v-505c67 -27 139 -40 214 -40c59 0 109 15 151 46c47 34 70 80 70 137zM264 418v111c0 26 14 39 43 39
c27 0 40 -16 40 -47c0 -49 -15 -79 -46 -90c-14 -5 -26 -10 -37 -13zM359 272v-82c0 -33 -17 -50 -50 -50c-17 0 -32 2 -45 7v158c21 7 35 11 42 12c15 3 28 -1 39 -10c9 -9 14 -20 14 -35z" />
    <glyph glyph-name="_304" horiz-adv-x="432" 
d="M439 73l-87 99c-34 -27 -66 -40 -96 -40c-32 0 -48 10 -48 29c0 17 21 30 63 40c101 23 151 79 151 170c0 44 -15 81 -44 110c-33 31 -77 47 -133 47c-78 0 -139 -24 -183 -73l90 -90c22 11 42 17 60 17c26 0 39 -8 39 -25c0 -15 -21 -27 -63 -38
c-92 -25 -138 -81 -138 -170c0 -51 19 -91 57 -120c34 -25 78 -38 131 -38c88 0 155 27 201 82z" />
    <glyph glyph-name="_305" horiz-adv-x="503" 
d="M72 345v-181c0 -57 19 -102 58 -133c33 -27 75 -41 126 -41c31 0 57 4 78 12c0 -52 -26 -78 -79 -78c-31 0 -63 9 -94 28l-63 -110c51 -41 112 -61 182 -61c141 0 212 78 212 233v470c-61 29 -126 44 -194 44c-65 0 -117 -13 -156 -40c-47 -31 -70 -79 -70 -143zM329 391
v-259c-11 -7 -25 -11 -40 -11c-35 0 -53 16 -53 47v183c0 33 19 50 57 50c14 0 26 -3 36 -10z" />
    <glyph glyph-name="_306" horiz-adv-x="745" 
d="M291 167v-167h165v167l100 -167h188l-181 267l182 251h-190l-99 -171v361h-165v-361l-99 171h-190l182 -251l-181 -267h188z" />
    <glyph glyph-name="_307" horiz-adv-x="513" 
d="M510 32v486h-169v-374c-10 -4 -21 -6 -32 -6c-35 0 -53 16 -53 48v332h-168v-333c0 -69 24 -120 72 -153c40 -28 94 -42 163 -42c67 0 130 14 187 42z" />
    <glyph glyph-name="_308" horiz-adv-x="515" 
d="M481 756h-131c0 -28 -15 -42 -44 -42s-44 14 -44 42h-131c0 -56 18 -100 55 -133c33 -29 73 -44 120 -44s87 15 120 44c37 33 55 77 55 133zM511 32v486h-170v-372c-11 -5 -24 -7 -37 -7c-32 0 -48 16 -48 49v330h-170v-333c0 -67 24 -117 71 -151c41 -29 94 -44 161 -44
c69 0 134 14 193 42z" />
    <glyph glyph-name="_309" horiz-adv-x="523" 
d="M377 518l-111 -161v351h-170v-708h170v166l112 -166h191l-187 267l188 251h-193z" />
    <glyph glyph-name="_310" horiz-adv-x="512" 
d="M254 366h3l23 -145l48 -221h185l-162 518h-192l-157 -518h178l52 222z" />
    <glyph glyph-name="_311" horiz-adv-x="512" 
d="M94 486v-486h169v374c10 4 22 6 35 6c33 0 50 -16 50 -48v-332h168v333c0 67 -24 117 -71 152c-41 29 -95 44 -162 43c-68 0 -131 -14 -189 -42z" />
    <glyph glyph-name="_312" horiz-adv-x="735" 
d="M94 476v-476h166v362c9 9 21 13 37 13c25 0 38 -10 38 -29v-346h163v344c0 20 13 30 38 30c23 0 35 -10 35 -31v-343h168v341c0 61 -19 109 -57 142c-35 30 -81 45 -138 45c-50 0 -92 -18 -125 -53c-35 35 -86 53 -152 53c-70 0 -128 -17 -173 -52z" />
    <glyph glyph-name="_313" horiz-adv-x="556" 
d="M157 34c39 -29 92 -44 158 -44c41 0 79 8 113 23l-4 -151h137c10 48 16 93 19 134v163h-72v359h-170v-372c-11 -5 -24 -7 -37 -7c-29 0 -43 16 -43 49v330h-170v-333c0 -67 23 -117 69 -151z" />
    <glyph glyph-name="_314" horiz-adv-x="776" 
d="M772 42v476h-170v-368c-7 -7 -21 -11 -42 -11c-31 0 -46 10 -46 29v350h-170v-349c0 -9 -5 -16 -16 -22c-9 -5 -19 -8 -29 -8c-29 0 -43 10 -43 31v348h-170v-344c0 -55 21 -100 63 -135c39 -33 85 -49 140 -49c61 0 108 18 141 53c35 -35 88 -53 159 -53
c77 0 138 17 183 52z" />
    <glyph glyph-name="_315" horiz-adv-x="822" 
d="M829 -137l17 128v168h-74v359h-170v-368c-7 -7 -21 -11 -42 -11c-31 0 -46 10 -46 29v350h-170v-349c0 -9 -5 -16 -16 -22c-9 -5 -19 -8 -29 -8c-29 0 -43 10 -43 31v348h-170v-344c0 -55 21 -100 63 -135c39 -33 85 -49 140 -49c61 0 108 18 141 53
c35 -35 88 -53 159 -53c37 0 72 6 105 19v-147z" />
    <glyph glyph-name="_316" horiz-adv-x="739" 
d="M263 336v372h-169v-708h169v200h56v-27c0 -57 23 -103 68 -137c41 -31 90 -46 148 -46s107 15 148 46c45 34 68 80 68 137v164c0 60 -23 108 -69 143c-40 31 -89 47 -147 48c-57 -1 -106 -17 -147 -48c-46 -36 -69 -84 -69 -144h-56zM581 179c-1 -26 -17 -39 -46 -39
s-45 13 -46 39v161c0 11 5 21 15 28c9 7 19 10 31 10s22 -3 31 -10c10 -7 15 -17 15 -28v-161z" />
    <glyph glyph-name="Delta" unicode="&#x2206;" horiz-adv-x="585" 
d="M386 675h-139l-199 -568v-107h537v108zM241 169l73 273l72 -273h-145z" />
    <glyph glyph-name="Omega" unicode="&#x2126;" horiz-adv-x="774" 
d="M452 143l1 -143h319v176h-77c51 47 76 115 76 202c0 103 -36 185 -109 247c-65 57 -145 85 -238 85s-171 -28 -235 -84c-71 -62 -106 -146 -106 -252c0 -81 25 -147 74 -198h-79v-176h319v143c-44 17 -79 46 -104 87c-24 38 -36 79 -36 124c0 51 14 94 42 128
c30 37 72 56 125 56c56 0 100 -18 131 -54c28 -32 42 -73 42 -122c0 -46 -12 -89 -37 -128c-27 -43 -63 -73 -108 -91z" />
    <glyph glyph-name="_319" unicode="&#x3a9;" horiz-adv-x="776" 
d="M145 176h-65v-176h332v141c-51 15 -91 43 -119 84c-25 38 -38 81 -38 129c0 51 15 93 44 128c31 37 74 56 127 56c57 0 101 -18 133 -54c29 -32 43 -73 43 -122c0 -113 -54 -187 -161 -221v-141h333v176h-64c42 53 63 121 63 202c0 103 -36 185 -109 247
c-65 57 -145 85 -238 85s-171 -28 -235 -84c-71 -62 -106 -146 -106 -252c0 -80 20 -146 60 -198z" />
    <glyph glyph-name="mu" unicode="&#xb5;" horiz-adv-x="528" 
d="M377 37l6 -38l146 -1l-2 518h-172v-311c0 -33 -15 -50 -45 -49c-30 0 -45 17 -45 50v310h-171v-688h171v206c14 -23 32 -34 53 -35c23 0 42 13 59 38z" />
    <glyph glyph-name="_321" unicode="&#x3bc;" horiz-adv-x="530" 
d="M379 37l6 -38l146 -1l-2 518h-172v-311c0 -33 -15 -50 -45 -49c-30 0 -45 17 -45 50v310h-171v-688h171v206c14 -23 32 -34 53 -35c23 0 42 13 59 38z" />
    <glyph glyph-name="pi" unicode="&#x3c0;" horiz-adv-x="575" 
d="M537 -5l-1 135c-27 -1 -41 13 -41 42v196h40l16 156h-389c-45 0 -90 -14 -133 -42l-19 -17l33 -126l63 14v-353h168v368h51v-199c0 -130 71 -188 212 -174z" />
    <glyph glyph-name="zero" unicode="0" horiz-adv-x="596" 
d="M167 42c48 -35 106 -52 173 -52s125 17 173 52c55 40 83 95 83 165v293c0 70 -28 125 -83 166c-47 35 -105 52 -173 52c-67 0 -125 -17 -173 -52c-55 -41 -83 -96 -83 -166v-293c0 -70 28 -125 83 -165zM281 544c17 11 36 17 59 17c22 0 41 -6 58 -17
c19 -13 28 -29 28 -49v-290c0 -19 -9 -35 -28 -47c-16 -11 -35 -16 -58 -16s-43 5 -59 16c-18 12 -27 28 -27 47v290c0 20 9 36 27 49z" />
    <glyph glyph-name="one" unicode="1" horiz-adv-x="373" 
d="M160 0h161v708h-135l-188 -198l94 -82l68 47v-475z" />
    <glyph glyph-name="two" unicode="2" horiz-adv-x="557" 
d="M46 557l134 -73c18 33 41 55 68 65c24 9 46 7 67 -4c20 -11 31 -28 34 -51c3 -25 -6 -51 -29 -76l-288 -324l45 -93h456v170h-160l-83 -17l156 148c59 55 88 121 88 198c0 59 -20 110 -60 151c-44 45 -103 67 -177 67c-111 0 -195 -54 -251 -161z" />
    <glyph glyph-name="three" unicode="3" horiz-adv-x="540" 
d="M148 225l-116 -107c51 -85 130 -128 237 -128c69 0 128 20 177 59c53 43 80 97 80 163c0 78 -32 133 -95 166c34 21 55 54 63 99c7 39 2 78 -13 117c-33 83 -104 124 -213 124c-87 0 -161 -38 -223 -115l104 -92c23 26 51 41 86 44c36 4 62 -6 77 -31
c11 -16 12 -34 4 -55c-9 -21 -24 -32 -46 -32h-106v-143h110c25 0 44 -7 58 -20c13 -13 19 -29 19 -48s-9 -34 -26 -45s-38 -16 -63 -16c-51 0 -89 20 -114 60z" />
    <glyph glyph-name="four" unicode="4" horiz-adv-x="574" 
d="M543 154v145h-66v409h-147l-330 -449l57 -105h249v-154h171v154h66zM319 297h-125l127 181z" />
    <glyph glyph-name="five" unicode="5" horiz-adv-x="541" 
d="M183 221l-127 -100c53 -87 127 -131 222 -131c87 0 154 27 203 82c43 49 64 109 64 181c0 87 -32 152 -96 197c-65 45 -141 52 -226 21v80h277v157h-420v-413h82c29 39 68 59 115 59c29 0 51 -8 68 -25c19 -19 27 -46 25 -80c-2 -43 -25 -68 -70 -76s-84 8 -117 48z" />
    <glyph glyph-name="six" unicode="6" horiz-adv-x="584" 
d="M444 515l125 72c-42 87 -116 131 -223 131c-70 0 -130 -19 -181 -58c-55 -43 -83 -98 -83 -165v-282c0 -69 27 -125 82 -167c49 -37 109 -56 180 -56s130 19 179 57c53 41 79 97 79 166v42c0 87 -41 148 -123 185c-81 37 -157 30 -226 -19v73c0 21 10 39 29 52
c17 13 39 19 64 19c45 0 77 -17 98 -50zM431 260v-53c0 -19 -9 -34 -28 -45c-17 -10 -37 -15 -61 -15s-44 5 -61 15c-19 11 -28 26 -28 45v53c0 17 9 31 28 42c17 9 37 14 61 14s44 -5 61 -14c19 -10 28 -24 28 -42z" />
    <glyph glyph-name="seven" unicode="7" horiz-adv-x="530" 
d="M503 708h-457v-170h270l-230 -538h192l273 612z" />
    <glyph glyph-name="eight" unicode="8" horiz-adv-x="600" 
d="M324 -10h14c171 0 259 78 262 233c1 28 -6 56 -21 84c-17 33 -41 57 -71 72c41 28 61 68 61 119c0 74 -24 130 -72 169c-41 34 -94 51 -159 51h-14c-57 0 -107 -15 -149 -45c-55 -38 -82 -94 -82 -168c0 -57 21 -100 62 -127c-63 -47 -95 -102 -95 -165
c0 -71 24 -126 71 -165s111 -58 193 -58zM324 572h15c22 -1 40 -9 53 -24c13 -14 19 -30 19 -48c0 -19 -7 -34 -20 -47c-15 -14 -35 -21 -61 -21c-23 0 -41 7 -55 22c-12 13 -18 28 -19 47s5 35 16 48c13 15 30 22 52 23zM340 157h-17c-28 1 -49 9 -64 25
c-13 15 -20 32 -19 53s8 38 22 52c15 15 35 23 58 22h23c24 2 44 -5 59 -20c15 -14 22 -32 23 -53s-6 -39 -20 -54c-15 -17 -37 -25 -65 -25z" />
    <glyph glyph-name="nine" unicode="9" horiz-adv-x="588" 
d="M198 209l-127 -84c43 -90 124 -135 241 -135c70 0 130 20 180 59c55 43 82 99 82 168v282c-1 69 -28 124 -82 165c-49 36 -109 54 -180 54s-130 -18 -178 -55c-53 -40 -80 -95 -80 -164v-42c0 -87 41 -149 124 -186c81 -37 156 -30 225 20v-73c0 -19 -9 -36 -28 -49
c-18 -13 -40 -19 -65 -19c-51 0 -88 20 -112 59zM225 452v53c0 18 9 32 28 42c17 9 37 14 61 14s44 -5 61 -14c19 -11 28 -25 28 -42v-53c0 -17 -9 -31 -28 -42c-17 -9 -37 -14 -61 -14s-44 5 -61 14c-19 10 -28 24 -28 42z" />
    <glyph glyph-name="fraction" unicode="&#x2044;" horiz-adv-x="583" 
d="M129 -77l454 762l-141 86l-454 -761z" />
    <glyph glyph-name="onehalf" unicode="&#xbd;" horiz-adv-x="857" 
d="M264 -45l423 694l-116 70l-422 -693zM275 713v-441h-134v262l-49 -28l-50 70l126 137h107zM619 280l-91 76c36 56 87 84 152 84c47 0 86 -15 117 -44c29 -28 43 -62 43 -103c0 -44 -17 -80 -51 -109l-59 -54h112v-127h-291l-28 74l153 170c14 15 21 29 21 42
c1 11 -4 18 -13 23s-20 4 -32 -1c-13 -5 -24 -16 -33 -31z" />
    <glyph glyph-name="onequarter" unicode="&#xbc;" horiz-adv-x="830" 
d="M258 -45l422 694l-117 70l-422 -694zM275 713v-441h-134v262l-49 -28l-50 70l126 137h107zM669 468h113v-264h36v-117h-36v-87h-134v87h-161l-58 90zM576 200h84l2 93l-4 1z" />
    <glyph glyph-name="threequarters" unicode="&#xbe;" horiz-adv-x="860" 
d="M318 -45l422 694l-113 70l-422 -693zM217 438h-54v103h53c17 0 24 10 22 30c-1 19 -13 29 -35 28c-23 -1 -40 -10 -53 -26l-80 66c43 45 87 69 130 72c63 3 110 -20 141 -69c32 -51 24 -98 -25 -143c41 -19 64 -48 67 -88c3 -37 -10 -70 -37 -101
c-41 -45 -95 -64 -160 -56c-67 7 -113 39 -140 94l95 58c12 -22 32 -32 61 -30c28 2 42 14 42 36c0 7 -2 13 -7 18c-5 6 -12 9 -20 8zM481 171l232 281h105v-255h35v-113h-35v-84h-118v84h-163zM702 284l-79 -91h81l2 90z" />
    <glyph glyph-name="onesuperior" unicode="&#xb9;" horiz-adv-x="291" 
d="M16 570l50 -70l49 28v-262h134v441h-107z" />
    <glyph glyph-name="twosuperior" unicode="&#xb2;" horiz-adv-x="398" 
d="M63 611l92 -79c9 16 21 27 34 33c12 5 23 6 32 1s14 -13 14 -24c-1 -13 -8 -28 -22 -44l-155 -176l28 -76h301v131h-119l59 56c35 29 52 67 52 113c0 42 -15 77 -44 106c-31 31 -70 46 -118 46c-66 0 -117 -29 -154 -87z" />
    <glyph glyph-name="threesuperior" unicode="&#xb3;" horiz-adv-x="374" 
d="M202 532h-50v-100h51c7 1 14 -2 19 -8c5 -5 7 -11 7 -17c0 -21 -13 -33 -40 -35s-47 8 -58 29l-91 -57c26 -53 70 -84 133 -91c63 -8 114 10 153 54c27 30 39 63 36 98c-3 39 -25 68 -64 86c46 44 54 90 23 139c-29 48 -74 70 -134 67c-41 -3 -83 -26 -124 -70l76 -64
c12 15 29 24 51 25c21 1 32 -8 34 -27c1 -19 -6 -29 -22 -29z" />
    <glyph glyph-name="asterisk" unicode="*" horiz-adv-x="477" 
d="M477 490l-47 159l-104 -45l19 106h-164l15 -107l-102 48l-46 -158l110 -13l-81 -84l134 -97l52 101l54 -101l129 99l-81 78z" />
    <glyph glyph-name="backslash" unicode="\" horiz-adv-x="503" 
d="M38 711l306 -769l159 54l-304 771z" />
    <glyph glyph-name="bullet" unicode="&#x2022;" horiz-adv-x="420" 
d="M143 445c-31 -31 -47 -69 -47 -114s16 -84 47 -115c32 -32 71 -48 116 -48s83 16 114 48c31 31 47 70 47 115s-16 83 -47 114c-31 32 -69 48 -114 48s-84 -16 -116 -48z" />
    <glyph glyph-name="colon" unicode=":" horiz-adv-x="277" 
d="M107 463c-19 -19 -29 -43 -29 -70c0 -28 10 -52 29 -71c20 -20 44 -30 71 -30s51 10 70 30c19 19 29 43 29 71c0 27 -10 51 -29 70s-43 28 -70 28s-51 -9 -71 -28zM107 178c-19 -19 -29 -43 -29 -72c0 -27 10 -51 29 -71c20 -19 44 -29 71 -29s51 10 70 29
c19 20 29 44 29 71c0 29 -10 53 -29 72s-42 28 -70 28s-52 -9 -71 -28z" />
    <glyph glyph-name="comma" unicode="," horiz-adv-x="288" 
d="M129 -149l100 255h-188l-85 -255h173z" />
    <glyph glyph-name="ellipsis" unicode="&#x2026;" horiz-adv-x="785" 
d="M87 165c-19 -19 -29 -43 -29 -70c0 -28 10 -52 29 -71c19 -20 43 -30 72 -30c27 0 51 10 70 30c19 19 29 43 29 71c0 27 -10 51 -29 70s-43 29 -70 29c-29 0 -53 -10 -72 -29zM351 165c-19 -19 -28 -43 -28 -70c0 -28 9 -52 28 -71c19 -20 43 -30 70 -30
c29 0 53 10 72 30c19 19 29 43 29 71c0 27 -10 51 -29 70s-43 29 -72 29c-27 0 -51 -10 -70 -29zM615 165c-19 -19 -29 -43 -29 -70c0 -28 10 -52 29 -71c19 -20 42 -30 70 -30c29 0 53 10 72 30c19 19 28 43 28 71s-9 51 -28 70s-43 29 -72 29c-28 0 -51 -10 -70 -29z" />
    <glyph glyph-name="exclam" unicode="!" horiz-adv-x="291" 
d="M86 712l10 -492h184l10 492h-204zM119 161c-19 -20 -29 -44 -29 -72c0 -27 10 -51 29 -70s43 -29 70 -29c28 0 52 10 72 29c19 19 29 43 29 70c0 28 -10 52 -29 72c-20 19 -44 29 -72 29c-27 0 -51 -10 -70 -29z" />
    <glyph glyph-name="exclamdown" unicode="&#xa1;" horiz-adv-x="267" 
d="M239 344c19 19 29 43 29 72c0 27 -10 51 -29 70s-42 28 -71 28s-52 -9 -71 -28c-18 -19 -27 -42 -27 -70c0 -29 9 -53 27 -72c19 -19 42 -28 71 -28s52 9 71 28zM254 -184v475h-171v-475h171z" />
    <glyph glyph-name="numbersign" unicode="#" 
d="M591 315h-66l9 33h67l44 152h-66l48 161h-165l-47 -161h-42l47 161h-158l-47 -161h-74l-45 -152h74l-9 -33h-74l-43 -146h74l-50 -170h163l49 170h42l-49 -170h158l50 170h67zM313 302l17 59h58l-16 -59h-59z" />
    <glyph glyph-name="period" unicode="." horiz-adv-x="257" 
d="M87 165c-19 -19 -29 -43 -29 -70c0 -28 10 -52 29 -71c19 -20 43 -30 70 -30s51 10 71 30c19 19 29 43 29 71c0 27 -10 51 -29 70c-20 19 -44 29 -71 29s-51 -10 -70 -29z" />
    <glyph glyph-name="periodcentered" unicode="&#xb7;" horiz-adv-x="264" 
d="M94 375c-19 -19 -28 -43 -28 -72c0 -28 9 -51 28 -70s43 -28 72 -28c28 0 51 9 70 28s28 42 28 70s-9 52 -28 72c-19 19 -42 29 -70 29c-29 0 -53 -10 -72 -29z" />
    <glyph glyph-name="question" unicode="?" horiz-adv-x="491" 
d="M42 584l102 -87c20 37 53 54 98 49s68 -26 68 -63s-17 -63 -51 -78c-35 -16 -73 -15 -115 3l10 -228h150l10 117c56 8 100 32 131 72c27 36 41 78 41 125c0 55 -17 102 -52 143c-33 37 -74 62 -124 75c-51 12 -100 8 -147 -12c-51 -22 -92 -61 -121 -116zM164 130
c-17 -17 -26 -39 -26 -65c0 -25 9 -47 26 -65c18 -17 40 -26 65 -26s47 9 64 26c17 18 26 40 26 65c0 26 -9 48 -26 65s-39 25 -64 25c-26 0 -48 -8 -65 -25z" />
    <glyph glyph-name="questiondown" unicode="&#xbf;" horiz-adv-x="487" 
d="M370 370c17 17 26 39 26 65c0 25 -9 47 -26 65c-18 17 -40 26 -65 26s-47 -9 -64 -26c-17 -18 -26 -40 -26 -65c0 -26 9 -48 26 -65s39 -25 64 -25c26 0 48 8 65 25zM390 3l102 -87c-29 -55 -70 -94 -121 -116c-47 -20 -96 -24 -147 -11c-50 12 -91 37 -124 74
c-35 41 -52 88 -52 143c0 47 14 89 41 125c31 40 75 64 131 72l10 113h150l10 -224c-42 18 -80 19 -115 3c-34 -15 -51 -41 -51 -78s23 -57 68 -62s78 11 98 48z" />
    <glyph glyph-name="quotedbl" unicode="&#x22;" horiz-adv-x="462" 
d="M246 419l21 290h-173v-290h152zM452 419l20 290h-173v-290h153z" />
    <glyph glyph-name="quotesingle" unicode="'" horiz-adv-x="256" 
d="M249 418l15 290h-170v-290h155z" />
    <glyph glyph-name="semicolon" unicode=";" horiz-adv-x="292" 
d="M80 452c-19 -19 -28 -42 -28 -70c0 -29 9 -53 28 -72s43 -29 72 -29c28 0 51 10 70 29s28 43 28 72c0 28 -9 51 -28 70s-42 28 -70 28c-29 0 -53 -9 -72 -28zM170 -128l92 255h-187l-61 -255h156z" />
    <glyph glyph-name="slash" unicode="/" horiz-adv-x="492" 
d="M198 -70l294 779l-157 55l-295 -777z" />
    <glyph glyph-name="underscore" unicode="_" horiz-adv-x="593" 
d="M594 -135v169h-504v-169h504z" />
    <glyph glyph-name="braceleft" unicode="{" horiz-adv-x="351" 
d="M283 418v129h59v163h-82c-99 0 -148 -52 -148 -155v-122c0 -35 -18 -52 -54 -52v-163c36 0 54 -18 54 -53v-111c0 -51 9 -89 28 -113c22 -27 59 -41 112 -41h90v163h-59v118c0 62 -24 102 -72 119c21 8 38 25 53 50c13 23 19 45 19 68z" />
    <glyph glyph-name="braceright" unicode="}" horiz-adv-x="344" 
d="M147 708h-69v-163h51v-127c-2 -23 6 -47 23 -70c15 -21 33 -37 54 -47c-21 -8 -40 -23 -55 -46c-16 -25 -23 -49 -22 -74v-126h-51v-163h67c59 0 101 14 125 41c19 23 29 61 29 113v119c0 35 18 53 55 53v163c-37 0 -55 17 -55 52v120c0 54 -8 92 -25 113
c-21 28 -64 42 -127 42z" />
    <glyph glyph-name="bracketleft" unicode="[" horiz-adv-x="328" 
d="M271 65v479h69v166h-240v-810h240v165h-69z" />
    <glyph glyph-name="bracketright" unicode="]" horiz-adv-x="328" 
d="M143 547v-484h-67v-163h240v810h-240v-163h67z" />
    <glyph glyph-name="parenleft" unicode="(" horiz-adv-x="322" 
d="M337 718l-118 77c-107 -121 -161 -271 -161 -448c0 -167 52 -324 155 -469l127 85c-167 257 -168 508 -3 755z" />
    <glyph glyph-name="parenright" unicode=")" horiz-adv-x="316" 
d="M138 783l-114 -76c81 -113 121 -235 120 -367c-1 -127 -41 -253 -120 -379l120 -81c103 144 155 300 155 467c0 169 -54 315 -161 436z" />
    <glyph glyph-name="emdash" unicode="&#x2014;" horiz-adv-x="868" 
d="M868 205v169h-776v-169h776z" />
    <glyph glyph-name="endash" unicode="&#x2013;" horiz-adv-x="571" 
d="M571 205v169h-479v-169h479z" />
    <glyph glyph-name="hyphen" unicode="-" horiz-adv-x="404" 
d="M404 205v170h-312v-170h312z" />
    <glyph glyph-name="softhyphen" unicode="&#xad;" horiz-adv-x="408" 
d="M409 161v171h-313v-171h313z" />
    <glyph glyph-name="guillemotleft" unicode="&#xab;" horiz-adv-x="612" 
d="M343 438l-145 86l-160 -237l159 -239l147 86l-104 153zM601 438l-145 86l-160 -237l160 -239l147 87l-106 150z" />
    <glyph glyph-name="guillemotright" unicode="&#xbb;" horiz-adv-x="602" 
d="M56 134l148 -85l159 238l-161 238l-144 -87l103 -151zM307 135l145 -87l160 239l-159 237l-147 -85l104 -152z" />
    <glyph glyph-name="guilsinglleft" unicode="&#x2039;" horiz-adv-x="353" 
d="M342 438l-144 87l-160 -238l159 -239l145 85l-103 155z" />
    <glyph glyph-name="guilsinglright" unicode="&#x203a;" horiz-adv-x="353" 
d="M58 133l148 -84l157 238l-159 237l-145 -86l102 -151z" />
    <glyph glyph-name="quotedblbase" unicode="&#x201e;" horiz-adv-x="517" 
d="M132 -104l117 208h-195l-74 -208h152zM356 -104l117 208h-196l-73 -208h152z" />
    <glyph glyph-name="quotedblleft" unicode="&#x201c;" horiz-adv-x="544" 
d="M159 709l-113 -217h202l68 217h-157zM393 709l-113 -217h202l68 217h-157z" />
    <glyph glyph-name="quotedblright" unicode="&#x201d;" horiz-adv-x="530" 
d="M215 500l103 206h-202l-58 -206h157zM446 500l103 206h-202l-58 -206h157z" />
    <glyph glyph-name="quoteleft" unicode="&#x2018;" horiz-adv-x="310" 
d="M159 709l-113 -217h202l68 217h-157z" />
    <glyph glyph-name="quoteright" unicode="&#x2019;" horiz-adv-x="299" 
d="M215 500l103 206h-202l-58 -206h157z" />
    <glyph glyph-name="quotesinglbase" unicode="&#x201a;" horiz-adv-x="295" 
d="M134 -104l117 219h-195l-74 -219h152z" />
    <glyph glyph-name="space" unicode=" " horiz-adv-x="182" 
 />
    <glyph glyph-name="nbspace" unicode="&#xa0;" horiz-adv-x="182" 
 />
    <glyph glyph-name="florin" unicode="&#x192;" horiz-adv-x="510" 
d="M63 40l-41 -123c61 -33 119 -39 174 -17c56 23 90 68 103 135l49 269h96v146h-70l18 78c7 37 29 49 64 34l56 108c-61 49 -122 58 -184 28c-59 -29 -95 -79 -107 -152l-21 -96h-98v-146h71l-45 -235c-7 -37 -28 -47 -65 -29z" />
    <glyph glyph-name="Euro" unicode="&#x20ac;" horiz-adv-x="645" 
d="M112 474v-4h-40l-22 -108h62v-31h-40l-22 -108h62c3 -73 32 -132 89 -175c51 -39 114 -58 187 -58c115 0 200 53 255 160l-156 72c-19 -45 -55 -67 -109 -64c-53 3 -83 25 -89 65h154l23 108h-178v31h155l23 108h-178v4c0 45 28 70 85 76s97 -13 121 -56l146 59
c-50 110 -133 165 -249 165c-76 0 -140 -21 -193 -62c-57 -45 -86 -106 -86 -182z" />
    <glyph glyph-name="cent" unicode="&#xa2;" horiz-adv-x="478" 
d="M358 514v73h-128v-71c-44 -11 -79 -31 -106 -60c-29 -33 -44 -73 -44 -122v-151c0 -49 15 -89 44 -122c27 -29 62 -49 106 -60v-70h128v73c68 22 113 69 136 142l-146 33c-9 -30 -29 -44 -59 -43c-29 1 -44 16 -44 44v158c0 28 15 43 44 44s46 -13 53 -44l142 44
c-19 69 -61 113 -126 132z" />
    <glyph glyph-name="currency" unicode="&#xa4;" horiz-adv-x="616" 
d="M112 220l-46 -49l111 -118c25 23 43 40 54 51c33 -15 69 -23 108 -23c42 0 79 8 110 24l53 -53l113 121l-48 46c16 35 24 73 24 112s-8 75 -25 110l49 48l-113 121l-54 -54c-37 17 -73 25 -109 25c-38 0 -74 -8 -108 -23l-53 53l-114 -122l48 -47
c-16 -38 -24 -75 -24 -111c0 -41 8 -78 24 -111zM269 260c-19 19 -29 43 -29 70c0 28 10 52 29 72c19 19 43 29 70 29s50 -10 69 -29c19 -20 29 -44 29 -72c0 -27 -10 -51 -29 -70s-42 -29 -69 -29s-51 10 -70 29z" />
    <glyph glyph-name="dollar" unicode="$" horiz-adv-x="570" 
d="M249 -1v-64h129v65c52 13 95 35 128 68c37 35 58 79 62 130c3 70 -14 124 -52 162c-30 29 -76 52 -138 67v112c24 -5 42 -17 53 -36l120 76c-47 71 -104 110 -173 119v58h-129v-59c-53 -11 -96 -34 -130 -68c-37 -36 -56 -81 -59 -134c-1 -117 62 -191 189 -221v-97
c-28 4 -52 20 -73 49l-128 -88c52 -89 119 -136 201 -139zM218 493v1c0 22 13 40 38 54v-114c-27 9 -39 29 -38 59zM410 218v-1c0 -22 -13 -40 -38 -54v114c27 -9 39 -29 38 -59z" />
    <glyph glyph-name="sterling" unicode="&#xa3;" horiz-adv-x="530" 
d="M439 532l99 95c-47 55 -104 83 -171 83c-75 0 -132 -23 -169 -70c-31 -38 -46 -85 -46 -142v-75h-78v-153h78v-112h-78v-158h455v158h-206v112h168v153h-168v70c0 31 14 51 43 60c28 9 52 2 73 -21z" />
    <glyph glyph-name="yen" unicode="&#xa5;" horiz-adv-x="712" 
d="M559 253l23 108h-71l201 347h-210l-128 -270l-128 270h-208l200 -347h-40l-22 -108h109v-31h-87l-22 -108h109v-114h179v114h95l23 108h-118v31h95z" />
    <glyph glyph-name="approxequal" unicode="&#x2248;" horiz-adv-x="498" 
d="M495 422l-90 74c-22 -32 -54 -38 -95 -19c-55 25 -90 37 -105 35c-52 -4 -100 -42 -143 -113l82 -75c27 31 61 36 101 16c41 -18 75 -27 104 -27c58 0 107 36 146 109zM498 226l-97 72c-25 -15 -42 -22 -53 -22c-5 0 -22 5 -52 16v-1c-56 23 -98 29 -125 20
c-31 -11 -66 -48 -105 -110l91 -78c25 26 42 39 50 39s21 -6 39 -17c35 -21 69 -32 102 -32c59 0 109 38 150 113z" />
    <glyph glyph-name="asciitilde" unicode="~" horiz-adv-x="488" 
d="M489 306l-102 85c-13 -25 -27 -39 -41 -43c-11 -3 -24 -1 -39 8c-51 31 -84 46 -101 46c-52 0 -104 -38 -156 -114l111 -93c21 35 46 44 75 27c47 -26 78 -39 92 -39c59 0 113 41 161 123z" />
    <glyph glyph-name="divide" unicode="&#xf7;" horiz-adv-x="509" 
d="M508 374h-454v-152h454v152zM216 163c-18 -17 -27 -39 -27 -65s9 -48 27 -65s40 -26 67 -26s49 9 67 26c19 17 28 39 28 65s-9 48 -28 65c-18 17 -40 25 -67 25s-49 -8 -67 -25zM216 564c-18 -17 -27 -39 -27 -65s9 -48 27 -65s40 -26 67 -26s49 9 67 26
c19 17 28 39 28 65s-9 48 -28 65c-18 17 -40 25 -67 25s-49 -8 -67 -25z" />
    <glyph glyph-name="equal" unicode="=" horiz-adv-x="529" 
d="M528 319v155h-434v-155h434zM528 115v156h-434v-156h434z" />
    <glyph glyph-name="greater" unicode="&#x3e;" horiz-adv-x="445" 
d="M473 238v109l-367 235v-199l169 -91l-169 -87v-199z" />
    <glyph glyph-name="greaterequal" unicode="&#x2265;" horiz-adv-x="489" 
d="M490 345v104l-392 208v-185l144 -75l-144 -72v-142h-16v-165h412v165h-313z" />
    <glyph glyph-name="infinity" unicode="&#x221e;" horiz-adv-x="671" 
d="M672 284v1c0 51 -16 93 -47 125s-72 49 -123 51c-50 2 -95 -20 -134 -67c-37 45 -81 67 -133 67c-51 0 -94 -17 -127 -51s-50 -77 -50 -129c0 -49 17 -91 50 -125c33 -33 74 -50 122 -50c53 0 98 20 135 61c32 -41 76 -61 131 -61c47 0 87 16 122 49c36 34 54 77 54 129z
M187 284c0 27 16 40 47 40c14 0 34 -13 61 -40c-26 -27 -47 -41 -62 -41c-31 0 -47 14 -46 41zM437 284c27 27 47 40 61 40c31 0 47 -13 47 -40c1 -27 -15 -41 -46 -41c-15 0 -36 14 -62 41z" />
    <glyph glyph-name="integral" unicode="&#x222b;" horiz-adv-x="383" 
d="M347 644l34 98c-37 27 -78 41 -121 41c-45 0 -81 -15 -110 -46c-32 -33 -48 -77 -48 -134c6 -325 9 -508 9 -550c0 -19 -7 -31 -22 -36c-14 -5 -29 -1 -46 11l-43 -106c45 -29 88 -43 127 -43c45 0 83 15 112 44c32 31 48 75 48 130l-5 546c1 25 8 42 21 50
c12 7 27 5 44 -5z" />
    <glyph glyph-name="less" unicode="&#x3c;" horiz-adv-x="445" 
d="M255 292l161 91v199l-366 -235v-109l366 -232v199c-57 31 -111 60 -161 87z" />
    <glyph glyph-name="lessequal" unicode="&#x2264;" horiz-adv-x="489" 
d="M323 400l145 77v183l-392 -207v-105l321 -168h-325v-167h412v167h-16v148c-96 48 -144 72 -145 72z" />
    <glyph glyph-name="logicalnot" unicode="&#xac;" horiz-adv-x="577" 
d="M80 429v-169h319v-132h168v301h-487z" />
    <glyph glyph-name="minus" unicode="&#x2212;" horiz-adv-x="606" 
d="M605 211v168h-511v-168h511z" />
    <glyph glyph-name="multiply" unicode="&#xd7;" horiz-adv-x="536" 
d="M415 534l-122 -122l-123 123l-120 -119l124 -125l-120 -120l117 -121c12 13 32 33 61 61l62 62l120 -120l120 120l-119 120l119 119z" />
    <glyph glyph-name="notequal" unicode="&#x2260;" horiz-adv-x="528" 
d="M76 256v-142h65l-22 -43l121 -51l49 94h238v142h-163l22 42h141v142h-66l22 41l-121 55l-50 -96h-236v-142h161l-22 -42h-139z" />
    <glyph glyph-name="partialdiff" unicode="&#x2202;" horiz-adv-x="505" 
d="M79 629l76 -114c38 26 75 35 111 27c38 -9 58 -37 61 -82c-22 8 -44 12 -65 12c-57 0 -106 -23 -149 -69c-46 -49 -68 -110 -66 -183c1 -63 18 -116 50 -157c35 -46 84 -69 147 -69c79 0 142 34 187 103c43 66 65 153 65 262c0 110 -26 195 -78 255
c-45 51 -101 77 -168 77c-50 0 -107 -21 -171 -62zM253 153h-8c-17 0 -28 12 -34 37c-5 23 -4 47 4 74c8 28 21 47 39 56c21 12 46 7 74 -14c-1 -39 -8 -71 -19 -96c-18 -39 -37 -58 -56 -57z" />
    <glyph glyph-name="percent" unicode="%" horiz-adv-x="740" 
d="M573 767l-492 -760l129 -83l492 757zM308 411c29 33 43 76 43 130c0 57 -13 100 -39 131s-63 46 -112 46c-43 0 -79 -16 -106 -47c-28 -33 -42 -75 -42 -128c0 -119 49 -179 148 -179c44 0 80 16 108 47zM199 601c22 0 33 -20 33 -60c0 -39 -11 -58 -33 -58
c-23 0 -35 20 -35 59s12 59 35 59zM698 41c29 33 43 76 43 130c0 57 -13 100 -39 131s-63 46 -112 46c-43 0 -79 -16 -106 -47c-28 -33 -42 -75 -42 -128c0 -119 49 -179 148 -179c44 0 80 16 108 47zM589 231c22 0 33 -20 33 -60c0 -39 -11 -58 -33 -58
c-23 0 -35 20 -35 59s12 59 35 59z" />
    <glyph glyph-name="perthousand" unicode="&#x2030;" horiz-adv-x="1072" 
d="M573 767l-492 -760l129 -83l492 757zM308 411c29 33 43 76 43 130c0 57 -13 100 -39 131s-63 46 -112 46c-43 0 -79 -16 -106 -47c-28 -33 -42 -75 -42 -128c0 -119 49 -179 148 -179c44 0 80 16 108 47zM199 601c22 0 33 -20 33 -60c0 -39 -11 -58 -33 -58
c-23 0 -35 20 -35 59s12 59 35 59zM698 41c29 33 43 76 43 130c0 57 -13 100 -39 131s-63 46 -112 46c-43 0 -79 -16 -106 -47c-28 -33 -42 -75 -42 -128c0 -119 49 -179 148 -179c44 0 80 16 108 47zM1032 41c29 33 43 76 43 130c0 57 -13 100 -39 131s-63 46 -112 46
c-43 0 -79 -16 -106 -47c-28 -33 -42 -75 -42 -128c0 -119 49 -179 148 -179c44 0 80 16 108 47zM589 231c22 0 33 -20 33 -60c0 -39 -11 -58 -33 -58c-23 0 -35 20 -35 59s12 59 35 59zM923 231c22 0 33 -20 33 -60c0 -39 -11 -58 -33 -58c-23 0 -35 20 -35 59s12 59 35 59
z" />
    <glyph glyph-name="plus" unicode="+" horiz-adv-x="566" 
d="M229 576v-170h-175v-170h175v-171h169v171h168v170h-168v170h-169z" />
    <glyph glyph-name="plusminus" unicode="&#xb1;" horiz-adv-x="539" 
d="M227 652v-132h-138v-170h138v-131h170v131h141v170h-141v132h-170zM539 13v168h-451v-168h451z" />
    <glyph glyph-name="product" unicode="&#x220f;" horiz-adv-x="632" 
d="M385 -53h169v594h79v168h-579v-168h76v-594h170v594h85v-594z" />
    <glyph glyph-name="radical" unicode="&#x221a;" horiz-adv-x="541" 
d="M105 224l108 -340h140l184 875h-174l-94 -605l-56 283l-217 -83l53 -145z" />
    <glyph glyph-name="summation" unicode="&#x2211;" horiz-adv-x="547" 
d="M243 312l-189 -260v-117h490v154h-262l166 223c-19 27 -45 68 -79 122c-39 62 -65 104 -79 125h242v147h-468v-119c20 -29 50 -75 90 -137c41 -65 70 -111 89 -138z" />
    <glyph glyph-name="uni2215" unicode="&#x2215;" horiz-adv-x="563" 
d="M119 -49l445 751l-141 86l-445 -750z" />
    <glyph glyph-name="uni2219" unicode="&#x2219;" horiz-adv-x="264" 
d="M94 375c-19 -19 -28 -43 -28 -72c0 -28 9 -51 28 -70s43 -28 72 -28c28 0 51 9 70 28s28 42 28 70s-9 52 -28 72c-19 19 -42 29 -70 29c-29 0 -53 -10 -72 -29z" />
    <glyph glyph-name="lozenge" unicode="&#x25ca;" horiz-adv-x="556" 
d="M40 331l196 -355h120l200 357l-198 355h-117zM300 175l-87 156l84 157l86 -160z" />
    <glyph glyph-name="uni2113" unicode="&#x2113;" horiz-adv-x="450" 
d="M443 73l-87 100c-21 -19 -38 -25 -53 -18c-16 7 -24 27 -24 59v7c101 109 151 213 151 312c0 54 -12 97 -37 129c-27 35 -64 53 -113 53c-47 0 -85 -17 -114 -50c-35 -41 -53 -105 -53 -192v-185l-81 -69l59 -136l37 28c18 -71 64 -109 137 -116c71 -7 130 19 178 78z
M251 396v5c-14 75 -11 130 9 166c7 13 14 17 21 11c7 -7 11 -23 11 -49c0 -31 -14 -76 -41 -133z" />
    <glyph glyph-name="ampersand" unicode="&#x26;" horiz-adv-x="682" 
d="M651 221l-100 128l-64 -55l-59 73c57 40 86 94 86 163c0 53 -19 98 -58 133c-37 33 -81 50 -134 51c-88 3 -151 -33 -190 -106s-28 -142 32 -205c-71 -42 -106 -101 -106 -178c0 -107 49 -178 147 -214c95 -35 180 -19 255 47l48 -57h210l-133 166zM286 560
c9 9 20 13 33 13c11 0 20 -4 28 -13c7 -9 11 -19 11 -30c0 -21 -16 -43 -49 -65c-25 30 -37 51 -37 62c0 13 5 24 14 33zM269 280l87 -102c-16 -18 -36 -27 -60 -27c-23 0 -41 9 -54 27c-12 16 -16 34 -11 54c5 21 17 37 38 48z" />
    <glyph glyph-name="asciicircum" unicode="^" horiz-adv-x="652" 
d="M651 404l-254 303h-98l-247 -303h200l95 115l97 -115h207z" />
    <glyph glyph-name="at" unicode="@" horiz-adv-x="760" 
d="M598 520l-72 18l-18 -21c-33 27 -68 40 -105 40c-53 0 -99 -25 -137 -75c-38 -48 -57 -104 -57 -168c0 -55 16 -101 49 -137c33 -37 76 -56 128 -56c27 0 50 6 71 19c20 -14 44 -21 73 -21c51 0 96 17 133 51c49 42 80 100 93 173s4 138 -26 197
c-39 75 -107 127 -204 155c-34 9 -69 13 -105 13c-101 0 -186 -39 -255 -116c-64 -71 -99 -155 -106 -251c-5 -103 25 -187 88 -254c61 -64 137 -96 228 -96c39 0 80 7 125 21l-27 96c-83 -25 -153 -17 -210 26c-55 41 -83 101 -83 181c0 71 21 134 64 187
c47 59 109 88 185 88c79 0 135 -23 168 -70zM568 239l47 256l9 -18c20 -35 25 -79 16 -130c-11 -55 -35 -91 -72 -108zM446 260c-11 -11 -26 -16 -45 -16c-17 0 -30 5 -40 16c-15 19 -22 42 -22 70c1 27 8 50 21 71c13 23 30 35 50 38c23 3 45 -7 68 -32z" />
    <glyph glyph-name="bar" unicode="|" horiz-adv-x="269" 
d="M100 -135h169v859h-169v-859z" />
    <glyph glyph-name="brokenbar" unicode="&#xa6;" horiz-adv-x="274" 
d="M104 313h170v347h-170v-347zM104 -110h170v377h-170v-377z" />
    <glyph glyph-name="copyright" unicode="&#xa9;" horiz-adv-x="778" 
d="M166 604c-71 -70 -106 -154 -106 -253s35 -183 106 -254c70 -70 155 -105 254 -105s183 35 253 105c70 71 105 155 105 254s-35 183 -105 253c-70 71 -154 106 -253 106s-183 -35 -254 -106zM238 169c-50 50 -75 111 -75 182s25 132 75 182c50 49 111 74 182 74
s131 -25 180 -74c50 -50 75 -111 75 -182s-25 -132 -75 -182c-49 -50 -109 -75 -180 -75s-132 25 -182 75zM228 293v111c0 53 20 95 60 125c36 27 80 41 132 41c43 0 80 -10 113 -29c39 -22 64 -55 76 -98l-94 -36c-13 45 -45 66 -97 63s-81 -24 -86 -65v-113
c5 -41 34 -62 86 -65s84 18 97 63l96 -36c-12 -43 -38 -76 -77 -98c-33 -19 -71 -29 -114 -29c-52 0 -96 14 -132 41c-40 30 -60 72 -60 125z" />
    <glyph glyph-name="dagger" unicode="&#x2020;" horiz-adv-x="511" 
d="M50 518v-170h145v-444h171v444h145v170h-145v190h-171v-190h-145z" />
    <glyph glyph-name="daggerdbl" unicode="&#x2021;" horiz-adv-x="547" 
d="M86 235v-166h145v-165h171v165h145v166h-145v141h145v165h-145v167h-171v-167h-145v-165h145v-141h-145z" />
    <glyph glyph-name="degree" unicode="&#xb0;" horiz-adv-x="377" 
d="M96 440c33 -32 72 -48 117 -48s83 16 115 49c33 33 49 71 49 116c0 46 -16 85 -48 117c-32 31 -71 47 -116 47c-46 0 -85 -16 -117 -47c-32 -32 -48 -71 -48 -117c0 -45 16 -84 48 -117zM249 521c-9 -9 -21 -14 -36 -14s-27 5 -36 14s-14 21 -14 34c0 14 5 26 14 36
c10 11 22 16 36 16s26 -5 36 -16c9 -10 14 -22 14 -36c0 -13 -5 -25 -14 -34z" />
    <glyph glyph-name="estimated" unicode="&#x212e;" horiz-adv-x="799" 
d="M303 183l-1 77h502v71c0 93 -36 173 -109 240s-160 100 -263 100c-101 0 -188 -33 -261 -100s-109 -147 -109 -240c0 -94 36 -174 109 -239c72 -66 159 -99 261 -99c66 0 129 17 190 52c71 41 129 101 175 180l-167 1c-43 -62 -108 -93 -197 -93c-49 0 -93 17 -130 50z
M564 477v-76h-262v76c39 34 82 51 131 51c47 0 90 -17 131 -51z" />
    <glyph glyph-name="paragraph" unicode="&#xb6;" horiz-adv-x="661" 
d="M251 218v-301h168v614h40v-614h168v776h-336c-77 0 -139 -25 -184 -74c-41 -45 -61 -100 -61 -165c0 -58 17 -109 52 -152c37 -47 88 -75 153 -84z" />
    <glyph glyph-name="registered" unicode="&#xae;" horiz-adv-x="778" 
d="M166 604c-71 -70 -106 -154 -106 -253s35 -183 106 -254c70 -70 155 -105 254 -105s183 35 253 105c70 71 105 155 105 254s-35 183 -105 253c-70 71 -154 106 -253 106s-183 -35 -254 -106zM242 171c-50 50 -75 110 -75 180c0 71 25 131 75 180c49 49 109 74 180 74
c70 0 130 -25 179 -74s74 -109 74 -180c0 -70 -25 -130 -74 -180c-50 -50 -110 -75 -179 -75c-71 0 -131 25 -180 75zM274 527v-358h98v117h21l78 -117h116l-86 124c27 11 47 29 60 56c12 25 15 51 10 78c-5 29 -19 52 -41 70c-25 20 -56 30 -94 30h-162zM433 366h-61v76h60
c26 0 39 -13 40 -38s-12 -38 -39 -38z" />
    <glyph glyph-name="section" unicode="&#xa7;" horiz-adv-x="475" 
d="M185 115l-117 -78c49 -79 115 -119 197 -119c55 0 102 18 142 54c39 36 59 78 59 127c0 39 -13 75 -38 106c32 26 48 59 48 100c0 61 -37 109 -111 144l-77 35c-23 12 -35 25 -35 40c0 19 10 30 29 34c19 5 36 -4 49 -26l118 71c-47 71 -104 106 -169 106
c-53 0 -99 -16 -136 -49c-41 -35 -62 -80 -62 -136c0 -33 11 -62 32 -87c-33 -23 -50 -59 -50 -106c0 -55 39 -104 118 -145l43 -21c17 -9 29 -15 37 -20c25 -14 37 -27 37 -40c0 -21 -14 -31 -43 -30s-53 14 -71 40zM321 267l-80 38c-19 7 -30 18 -33 31c-4 13 2 25 19 34
c92 -37 123 -72 94 -103z" />
    <glyph glyph-name="trademark" unicode="&#x2122;" horiz-adv-x="863" 
d="M146 547v-258h165v258h90v162h-343v-162h88zM430 709v-418h154l-2 120l45 -74h25l42 73l-3 -119h149v418h-133l-71 -132l-69 132h-137z" />
    <glyph glyph-name="_427" horiz-adv-x="750" 
d="M536 520l-72 18l-18 -21c-33 27 -68 40 -105 40c-53 0 -99 -25 -137 -75c-38 -48 -57 -104 -57 -168c0 -55 16 -101 49 -137c33 -37 76 -56 128 -56c27 0 50 6 71 19c20 -14 44 -21 73 -21c51 0 96 17 133 51c49 42 80 100 93 173s4 138 -26 197
c-39 75 -107 127 -204 155c-34 9 -69 13 -105 13c-101 0 -186 -39 -255 -116c-64 -71 -99 -155 -106 -251c-5 -103 25 -187 88 -254c61 -64 137 -96 228 -96c39 0 80 7 125 21l-27 96c-83 -25 -153 -17 -210 26c-55 41 -83 101 -83 181c0 71 21 134 64 187
c47 59 109 88 185 88c79 0 135 -23 168 -70zM506 239l47 256l9 -18c20 -35 25 -79 16 -130c-11 -55 -35 -91 -72 -108zM384 260c-11 -11 -26 -16 -45 -16c-17 0 -30 5 -40 16c-15 19 -22 42 -22 70c1 27 8 50 21 71c13 23 30 35 50 38c23 3 45 -7 68 -32z" />
    <glyph glyph-name="acute" unicode="&#xb4;" horiz-adv-x="386" 
d="M368 567l118 149h-168l-90 -149h140z" />
    <glyph glyph-name="breve" unicode="&#x2d8;" horiz-adv-x="450" 
d="M451 724h-122c0 -23 -12 -35 -35 -35s-35 12 -35 35h-123c0 -49 16 -88 49 -117c29 -27 65 -40 108 -40s79 13 108 40c33 29 50 68 50 117z" />
    <glyph glyph-name="caron" unicode="&#x2c7;" horiz-adv-x="441" 
d="M196 924h-168l150 -168h122l150 168h-167l-46 -52z" />
    <glyph glyph-name="cedilla" unicode="&#xb8;" horiz-adv-x="385" 
d="M311 -31l32 71h-125l-51 -114c25 -2 45 -8 60 -19c14 -10 19 -21 16 -33c-5 -17 -19 -24 -43 -21c-21 3 -43 13 -68 30l-32 -86c41 -34 90 -51 146 -51c35 0 65 10 90 30c23 18 39 41 47 68c8 28 6 53 -5 75c-13 25 -35 42 -67 50z" />
    <glyph glyph-name="circumflex" unicode="&#x2c6;" horiz-adv-x="501" 
d="M501 567l-135 151h-105l-139 -151h152l40 47l41 -47h146z" />
    <glyph glyph-name="dieresis" unicode="&#xa8;" horiz-adv-x="510" 
d="M124 895c-16 -17 -24 -37 -24 -61c0 -23 8 -43 24 -59c17 -16 37 -24 60 -24s43 8 60 24c16 16 24 36 24 59c0 24 -8 44 -24 61c-17 16 -37 24 -60 24s-43 -8 -60 -24zM365 895c-16 -17 -24 -37 -24 -61c0 -23 8 -43 24 -59s36 -24 60 -24s44 8 61 24c16 16 24 36 24 59
c0 24 -8 44 -24 61c-17 16 -37 24 -61 24s-44 -8 -60 -24z" />
    <glyph glyph-name="dotaccent" unicode="&#x2d9;" horiz-adv-x="296" 
d="M129 920c-19 -19 -29 -42 -29 -69s10 -51 29 -70s42 -28 70 -28s51 9 70 28c18 19 27 42 27 70c0 27 -9 50 -27 69c-19 19 -42 28 -70 28s-51 -9 -70 -28z" />
    <glyph glyph-name="grave" unicode="`" horiz-adv-x="406" 
d="M186 567h140l-90 149h-168z" />
    <glyph glyph-name="hungarumlaut" unicode="&#x2dd;" horiz-adv-x="534" 
d="M241 756l111 158h-177l-75 -158h141zM467 756l117 158h-183l-74 -158h140z" />
    <glyph glyph-name="macron" unicode="&#xaf;" horiz-adv-x="397" 
d="M100 892v-134h297v134h-297z" />
    <glyph glyph-name="ogonek" unicode="&#x2db;" horiz-adv-x="380" 
d="M350 0l-5 11h-121c-58 -65 -80 -124 -66 -177c13 -52 55 -78 126 -78c44 0 82 13 115 40l-28 107c-15 -9 -28 -14 -40 -14c-22 -1 -32 10 -29 33c3 24 19 50 48 78z" />
    <glyph glyph-name="ring" unicode="&#x2da;" horiz-adv-x="359" 
d="M135 961c-26 -25 -39 -55 -39 -90s13 -65 39 -89s57 -36 94 -36c35 0 66 12 92 37c25 24 38 53 38 87c0 33 -13 63 -38 88c-25 26 -56 39 -92 39c-37 0 -68 -12 -94 -36zM255 897c7 -8 10 -17 10 -28c0 -23 -12 -35 -36 -35c-11 0 -21 4 -28 12c-7 7 -10 14 -10 23
c0 27 13 40 38 40c10 0 19 -4 26 -12z" />
    <glyph glyph-name="tilde" unicode="&#x2dc;" horiz-adv-x="465" 
d="M136 613l79 -44c13 27 35 36 64 25c51 -18 81 -27 92 -27c45 -1 77 33 94 102l-82 46c-11 -26 -30 -34 -57 -23c-45 18 -70 27 -75 27c-63 2 -101 -33 -115 -106z" />
    <glyph glyph-name="uni0326" unicode="&#x326;" horiz-adv-x="0" 
d="M489 -254l75 204h-177l-61 -204h163z" />
    <glyph glyph-name="uni02C9" unicode="&#x2c9;" horiz-adv-x="330" 
d="M100 892v-134h297v134h-297z" />
    <glyph glyph-name="Itilde" unicode="&#x128;" horiz-adv-x="291" 
d="M309 0v708h-179v-708h179zM55 803l79 -44c13 27 35 36 64 25c51 -18 81 -27 92 -27c45 -1 77 33 94 102l-82 46c-11 -26 -30 -34 -57 -23c-45 18 -70 27 -75 27c-63 2 -101 -33 -115 -106z" />
    <glyph glyph-name="Utilde" unicode="&#x168;" horiz-adv-x="667" 
d="M285 237v471h-181v-471c0 -79 29 -141 88 -187c53 -41 117 -62 194 -62s141 21 194 62c59 46 89 108 89 187v471h-181v-471c0 -27 -11 -48 -32 -64c-19 -14 -43 -21 -70 -21s-50 7 -69 21c-21 16 -32 37 -32 64zM222 803l79 -44c13 27 35 36 64 25c51 -18 81 -27 92 -27
c45 -1 77 33 94 102l-82 46c-11 -26 -30 -34 -57 -23c-45 18 -70 27 -75 27c-63 2 -101 -33 -115 -106z" />
    <glyph glyph-name="Utilde" unicode="&#x169;" horiz-adv-x="513" 
d="M510 32v486h-169v-374c-10 -4 -21 -6 -32 -6c-35 0 -53 16 -53 48v332h-168v-333c0 -69 24 -120 72 -153c40 -28 94 -42 163 -42c67 0 130 14 187 42zM135 613l79 -44c13 27 35 36 64 25c51 -18 81 -27 92 -27c45 -1 77 33 94 102l-82 46c-11 -26 -30 -34 -57 -23
c-45 18 -70 27 -75 27c-63 2 -101 -33 -115 -106z" />
    <glyph glyph-name="Ohorn" unicode="&#x1a0;" horiz-adv-x="665" 
d="M257 233v242c0 25 12 45 35 60c21 13 47 20 77 20c32 0 59 -6 80 -19c25 -15 37 -35 37 -61v-242c0 -24 -12 -43 -36 -58c-21 -13 -47 -19 -78 -19s-58 6 -79 19c-24 14 -36 33 -36 58zM610 624c15 7 29 17 44 28c32 28 47 68 44 119h-111c0 -17 -7 -32 -21 -44
c-15 -13 -48 -20 -97 -21c-30 8 -63 12 -98 12c-80 0 -147 -20 -202 -60c-61 -45 -91 -106 -91 -183v-242c0 -77 31 -137 92 -182c55 -41 123 -61 202 -61s147 20 202 61c61 45 91 105 91 182v242c0 59 -18 109 -55 149z" />
    <glyph glyph-name="Ohorn" unicode="&#x1a1;" horiz-adv-x="493" 
d="M251 368c9 7 19 10 30 10s22 -3 31 -10c10 -7 15 -17 15 -28v-169c0 -11 -5 -21 -15 -28c-9 -7 -19 -11 -31 -11s-22 4 -31 11c-10 7 -15 17 -15 28v169c0 11 5 21 16 28zM461 444c9 5 19 12 29 20c32 28 47 68 44 119h-111c0 -17 -7 -32 -21 -44s-31 -19 -51 -21
c-22 7 -45 10 -70 10c-57 -1 -106 -17 -145 -48c-44 -35 -66 -83 -66 -143v-164c0 -57 22 -103 66 -136c39 -31 88 -46 145 -47c57 0 106 15 146 46c44 34 66 80 66 137v164c0 41 -11 77 -32 107z" />
    <glyph glyph-name="Uhorn" unicode="&#x1af;" horiz-adv-x="667" 
d="M669 612c25 7 51 20 76 40c32 28 47 68 44 119h-111c0 -17 -7 -32 -21 -44c-11 -9 -25 -16 -41 -19h-128v-471c0 -27 -11 -48 -32 -64c-19 -14 -43 -21 -70 -21s-50 7 -69 21c-21 16 -32 37 -32 64v471h-181v-471c0 -79 29 -141 88 -187c53 -41 117 -62 194 -62
s141 21 194 62c59 46 89 108 89 187v375z" />
    <glyph glyph-name="Uhorn" unicode="&#x1b0;" horiz-adv-x="513" 
d="M510 428c21 7 41 19 62 36c32 28 47 68 44 119h-111c0 -17 -7 -32 -21 -44c-16 -13 -36 -20 -59 -21h-84v-374c-10 -4 -21 -6 -32 -6c-35 0 -53 16 -53 48v332h-168v-333c0 -69 24 -120 72 -153c40 -28 94 -42 163 -42c67 0 130 14 187 42v396z" />
    <glyph glyph-name="A.dotbl" unicode="&#x1ea0;" 
d="M651 0l-253 708h-163l-247 -708h192l44 142h189l46 -142h192zM370 301h-106l52 207h5zM253 -74c-20 -17 -30 -40 -30 -70s10 -53 30 -70c19 -16 41 -24 67 -23c26 0 48 8 67 23c20 17 30 41 30 70s-10 53 -30 70c-19 15 -41 23 -67 23c-26 1 -48 -7 -67 -23z" />
    <glyph glyph-name="A.dotbl" unicode="&#x1ea1;" horiz-adv-x="483" 
d="M301 319c-15 3 -35 4 -60 4c-63 0 -111 -16 -146 -47c-33 -29 -49 -67 -49 -114c0 -115 73 -172 218 -172c69 0 136 12 200 35v318c0 60 -21 107 -63 140c-37 30 -85 45 -142 45c-85 0 -150 -31 -196 -93l78 -79c28 25 58 37 90 37c49 0 73 -25 70 -74zM299 209v-89
c-24 -6 -45 -7 -62 -2c-22 7 -33 22 -33 45c0 21 10 35 31 44c19 9 41 9 64 2zM188 -74c-20 -17 -30 -40 -30 -70s10 -53 30 -70c19 -16 41 -24 67 -23c26 0 48 8 67 23c20 17 30 41 30 70s-10 53 -30 70c-19 15 -41 23 -67 23c-26 1 -48 -7 -67 -23z" />
    <glyph glyph-name="A.hook" unicode="&#x1ea2;" 
d="M651 0l-253 708h-163l-247 -708h192l44 142h189l46 -142h192zM370 301h-106l52 207h5zM233 913l47 -41c9 16 21 23 36 22c14 -1 21 -8 21 -19s-6 -19 -17 -24s-27 -4 -47 4l5 -82h67l3 27c20 3 37 12 50 29c11 15 17 32 17 51c0 22 -7 41 -22 58c-13 15 -29 25 -50 30
s-40 3 -59 -5c-21 -9 -38 -25 -51 -50z" />
    <glyph glyph-name="A.hook" unicode="&#x1ea3;" horiz-adv-x="483" 
d="M301 319c-15 3 -35 4 -60 4c-63 0 -111 -16 -146 -47c-33 -29 -49 -67 -49 -114c0 -115 73 -172 218 -172c69 0 136 12 200 35v318c0 60 -21 107 -63 140c-37 30 -85 45 -142 45c-85 0 -150 -31 -196 -93l78 -79c28 25 58 37 90 37c49 0 73 -25 70 -74zM299 209v-89
c-24 -6 -45 -7 -62 -2c-22 7 -33 22 -33 45c0 21 10 35 31 44c19 9 41 9 64 2zM189 723l47 -41c9 16 21 23 36 22c14 -1 21 -8 21 -19s-6 -19 -17 -24s-27 -4 -47 4l5 -82h67l3 27c20 3 37 12 50 29c11 15 17 32 17 51c0 22 -7 41 -22 58c-13 15 -29 25 -50 30s-40 3 -59 -5
c-21 -9 -38 -25 -51 -50z" />
    <glyph glyph-name="Acir.acute" unicode="&#x1ea4;" 
d="M651 0l-253 708h-163l-247 -708h192l44 142h189l46 -142h192zM370 301h-106l52 207h5zM509 760l-135 151h-105l-139 -151h152l40 47l41 -47h146zM572 890l118 149h-168l-90 -149h140z" />
    <glyph glyph-name="Acir.acute" unicode="&#x1ea5;" horiz-adv-x="483" 
d="M302 319c-15 3 -35 4 -60 4c-63 0 -111 -16 -146 -47c-33 -29 -49 -67 -49 -114c0 -115 73 -172 218 -172c69 0 136 12 200 35v318c0 60 -21 107 -63 140c-37 30 -85 45 -142 45c-85 0 -150 -31 -196 -93l78 -79c28 25 58 37 90 37c49 0 73 -25 70 -74zM300 209v-89
c-24 -6 -45 -7 -62 -2c-22 7 -33 22 -33 45c0 21 10 35 31 44c19 9 41 9 64 2zM446 567l-135 151h-105l-139 -151h152l40 47l41 -47h146zM524 686l118 149h-168l-90 -149h140z" />
    <glyph glyph-name="Acir.grave" unicode="&#x1ea6;" 
d="M626 0l-253 708h-163l-247 -708h192l44 142h189l46 -142h192zM345 301h-106l52 207h5zM494 760l-135 151h-105l-139 -151h152l40 47l41 -47h146zM56 895h140l-90 149h-168z" />
    <glyph glyph-name="Acir.grave" unicode="&#x1ea7;" horiz-adv-x="483" 
d="M148 319c-15 3 -35 4 -60 4c-63 0 -111 -16 -146 -47c-33 -29 -49 -67 -49 -114c0 -115 73 -172 218 -172c69 0 136 12 200 35v318c0 60 -21 107 -63 140c-37 30 -85 45 -142 45c-85 0 -150 -31 -196 -93l78 -79c28 25 58 37 90 37c49 0 73 -25 70 -74zM146 209v-89
c-24 -6 -45 -7 -62 -2c-22 7 -33 22 -33 45c0 21 10 35 31 44c19 9 41 9 64 2zM292 567l-135 151h-105l-139 -151h152l40 47l41 -47h146zM-143 696h140l-90 149h-168z" />
    <glyph glyph-name="Acir.hook" unicode="&#x1ea8;" 
d="M651 0l-253 708h-163l-247 -708h192l44 142h189l46 -142h192zM370 301h-106l52 207h5zM509 760l-135 151h-105l-139 -151h152l40 47l41 -47h146zM400 1027l47 -41c9 16 21 23 36 22c14 -1 21 -8 21 -19s-6 -19 -17 -24s-27 -4 -47 4l5 -82h67l3 27c20 3 37 12 50 29
c11 15 17 32 17 51c0 22 -7 41 -22 58c-13 15 -29 25 -50 30s-40 3 -59 -5c-21 -9 -38 -25 -51 -50z" />
    <glyph glyph-name="Acir.hook" unicode="&#x1ea9;" horiz-adv-x="483" 
d="M302 319c-15 3 -35 4 -60 4c-63 0 -111 -16 -146 -47c-33 -29 -49 -67 -49 -114c0 -115 73 -172 218 -172c69 0 136 12 200 35v318c0 60 -21 107 -63 140c-37 30 -85 45 -142 45c-85 0 -150 -31 -196 -93l78 -79c28 25 58 37 90 37c49 0 73 -25 70 -74zM300 209v-89
c-24 -6 -45 -7 -62 -2c-22 7 -33 22 -33 45c0 21 10 35 31 44c19 9 41 9 64 2zM446 567l-135 151h-105l-139 -151h152l40 47l41 -47h146zM347 827l47 -41c9 16 21 23 36 22c14 -1 21 -8 21 -19s-6 -19 -17 -24s-27 -4 -47 4l5 -82h67l3 27c20 3 37 12 50 29
c11 15 17 32 17 51c0 22 -7 41 -22 58c-13 15 -29 25 -50 30s-40 3 -59 -5c-21 -9 -38 -25 -51 -50z" />
    <glyph glyph-name="Acir.tilde" unicode="&#x1eaa;" 
d="M651 0l-253 708h-163l-247 -708h192l44 142h189l46 -142h192zM370 301h-106l52 207h5zM509 761l-135 151h-105l-139 -151h152l40 47l41 -47h146zM163 971l79 -44c13 27 35 36 64 25c51 -18 81 -27 92 -27c45 -1 77 33 94 102l-82 46c-11 -26 -30 -34 -57 -23
c-45 18 -70 27 -75 27c-63 2 -101 -33 -115 -106z" />
    <glyph glyph-name="Acir.tilde" unicode="&#x1eab;" horiz-adv-x="483" 
d="M302 319c-15 3 -35 4 -60 4c-63 0 -111 -16 -146 -47c-33 -29 -49 -67 -49 -114c0 -115 73 -172 218 -172c69 0 136 12 200 35v318c0 60 -21 107 -63 140c-37 30 -85 45 -142 45c-85 0 -150 -31 -196 -93l78 -79c28 25 58 37 90 37c49 0 73 -25 70 -74zM300 209v-89
c-24 -6 -45 -7 -62 -2c-22 7 -33 22 -33 45c0 21 10 35 31 44c19 9 41 9 64 2zM446 567l-135 151h-105l-139 -151h152l40 47l41 -47h146zM105 779l79 -44c13 27 35 36 64 25c51 -18 81 -27 92 -27c45 -1 77 33 94 102l-82 46c-11 -26 -30 -34 -57 -23c-45 18 -70 27 -75 27
c-63 2 -101 -33 -115 -106z" />
    <glyph glyph-name="Acir.dotbl" unicode="&#x1eac;" 
d="M651 0l-253 708h-163l-247 -708h192l44 142h189l46 -142h192zM370 301h-106l52 207h5zM509 757l-135 151h-105l-139 -151h152l40 47l41 -47h146zM253 -74c-20 -17 -30 -40 -30 -70s10 -53 30 -70c19 -16 41 -24 67 -23c26 0 48 8 67 23c20 17 30 41 30 70s-10 53 -30 70
c-19 15 -41 23 -67 23c-26 1 -48 -7 -67 -23z" />
    <glyph glyph-name="Acir.dotbl" unicode="&#x1ead;" horiz-adv-x="483" 
d="M302 319c-15 3 -35 4 -60 4c-63 0 -111 -16 -146 -47c-33 -29 -49 -67 -49 -114c0 -115 73 -172 218 -172c69 0 136 12 200 35v318c0 60 -21 107 -63 140c-37 30 -85 45 -142 45c-85 0 -150 -31 -196 -93l78 -79c28 25 58 37 90 37c49 0 73 -25 70 -74zM300 209v-89
c-24 -6 -45 -7 -62 -2c-22 7 -33 22 -33 45c0 21 10 35 31 44c19 9 41 9 64 2zM446 567l-135 151h-105l-139 -151h152l40 47l41 -47h146zM189 -74c-20 -17 -30 -40 -30 -70s10 -53 30 -70c19 -16 41 -24 67 -23c26 0 48 8 67 23c20 17 30 41 30 70s-10 53 -30 70
c-19 15 -41 23 -67 23c-26 1 -48 -7 -67 -23z" />
    <glyph glyph-name="Abrv.acute" unicode="&#x1eae;" 
d="M651 0l-253 708h-163l-247 -708h192l44 142h189l46 -142h192zM370 301h-106l52 207h5zM478 917h-122c0 -23 -12 -35 -35 -35s-35 12 -35 35h-123c0 -49 16 -88 49 -117c29 -27 65 -40 108 -40s79 13 108 40c33 29 50 68 50 117zM390 945l118 149h-168l-90 -149h140z" />
    <glyph glyph-name="Abrv.acute" unicode="&#x1eaf;" horiz-adv-x="483" 
d="M301 319c-15 3 -35 4 -60 4c-63 0 -111 -16 -146 -47c-33 -29 -49 -67 -49 -114c0 -115 73 -172 218 -172c69 0 136 12 200 35v318c0 60 -21 107 -63 140c-37 30 -85 45 -142 45c-85 0 -150 -31 -196 -93l78 -79c28 25 58 37 90 37c49 0 73 -25 70 -74zM299 209v-89
c-24 -6 -45 -7 -62 -2c-22 7 -33 22 -33 45c0 21 10 35 31 44c19 9 41 9 64 2zM413 724h-122c0 -23 -12 -35 -35 -35s-35 12 -35 35h-123c0 -49 16 -88 49 -117c29 -27 65 -40 108 -40s79 13 108 40c33 29 50 68 50 117zM324 760l118 149h-168l-90 -149h140z" />
    <glyph glyph-name="Abrv.grave" unicode="&#x1eb0;" 
d="M651 0l-253 708h-163l-247 -708h192l44 142h189l46 -142h192zM370 301h-106l52 207h5zM493 917h-122c0 -23 -12 -35 -35 -35s-35 12 -35 35h-123c0 -49 16 -88 49 -117c29 -27 65 -40 108 -40s79 13 108 40c33 29 50 68 50 117zM270 939h140l-90 149h-168z" />
    <glyph glyph-name="Abrv.grave" unicode="&#x1eb1;" horiz-adv-x="483" 
d="M301 319c-15 3 -35 4 -60 4c-63 0 -111 -16 -146 -47c-33 -29 -49 -67 -49 -114c0 -115 73 -172 218 -172c69 0 136 12 200 35v318c0 60 -21 107 -63 140c-37 30 -85 45 -142 45c-85 0 -150 -31 -196 -93l78 -79c28 25 58 37 90 37c49 0 73 -25 70 -74zM299 209v-89
c-24 -6 -45 -7 -62 -2c-22 7 -33 22 -33 45c0 21 10 35 31 44c19 9 41 9 64 2zM413 724h-122c0 -23 -12 -35 -35 -35s-35 12 -35 35h-123c0 -49 16 -88 49 -117c29 -27 65 -40 108 -40s79 13 108 40c33 29 50 68 50 117zM194 760h140l-90 149h-168z" />
    <glyph glyph-name="Abrv.hook" unicode="&#x1eb2;" 
d="M651 0l-253 708h-163l-247 -708h192l44 142h189l46 -142h192zM370 301h-106l52 207h5zM478 916h-122c0 -23 -12 -35 -35 -35s-35 12 -35 35h-123c0 -49 16 -88 49 -117c29 -27 65 -40 108 -40s79 13 108 40c33 29 50 68 50 117zM247 1046l47 -30c9 12 21 17 36 16
c14 -1 21 -5 21 -14s-6 -15 -17 -18c-11 -4 -27 -3 -47 3l5 -62h67l3 21c20 2 37 9 50 21c11 11 17 24 17 39c0 16 -7 30 -22 43c-13 11 -29 19 -50 23c-21 3 -40 2 -59 -4c-21 -7 -38 -19 -51 -38z" />
    <glyph glyph-name="Abrv.hook" unicode="&#x1eb3;" horiz-adv-x="483" 
d="M301 319c-15 3 -35 4 -60 4c-63 0 -111 -16 -146 -47c-33 -29 -49 -67 -49 -114c0 -115 73 -172 218 -172c69 0 136 12 200 35v318c0 60 -21 107 -63 140c-37 30 -85 45 -142 45c-85 0 -150 -31 -196 -93l78 -79c28 25 58 37 90 37c49 0 73 -25 70 -74zM299 209v-89
c-24 -6 -45 -7 -62 -2c-22 7 -33 22 -33 45c0 21 10 35 31 44c19 9 41 9 64 2zM413 724h-122c0 -23 -12 -35 -35 -35s-35 12 -35 35h-123c0 -49 16 -88 49 -117c29 -27 65 -40 108 -40s79 13 108 40c33 29 50 68 50 117zM176 881l47 -41c9 16 21 23 36 22
c14 -1 21 -8 21 -19s-6 -19 -17 -24s-27 -4 -47 4l5 -82h67l3 27c20 3 37 12 50 29c11 15 17 32 17 51c0 22 -7 41 -22 58c-13 15 -29 25 -50 30s-40 3 -59 -5c-21 -9 -38 -25 -51 -50z" />
    <glyph glyph-name="Abrv.tilde" unicode="&#x1eb4;" 
d="M651 0l-253 708h-163l-247 -708h192l44 142h189l46 -142h192zM370 301h-106l52 207h5zM470 918h-122c0 -23 -12 -35 -35 -35s-35 12 -35 35h-123c0 -49 16 -88 49 -117c29 -27 65 -40 108 -40s79 13 108 40c33 29 50 68 50 117zM137 984l79 -44c13 27 35 36 64 25
c51 -18 81 -27 92 -27c45 -1 77 33 94 102l-82 46c-11 -26 -30 -34 -57 -23c-45 18 -70 27 -75 27c-63 2 -101 -33 -115 -106z" />
    <glyph glyph-name="Abrv.tilde" unicode="&#x1eb5;" horiz-adv-x="483" 
d="M301 319c-15 3 -35 4 -60 4c-63 0 -111 -16 -146 -47c-33 -29 -49 -67 -49 -114c0 -115 73 -172 218 -172c69 0 136 12 200 35v318c0 60 -21 107 -63 140c-37 30 -85 45 -142 45c-85 0 -150 -31 -196 -93l78 -79c28 25 58 37 90 37c49 0 73 -25 70 -74zM299 209v-89
c-24 -6 -45 -7 -62 -2c-22 7 -33 22 -33 45c0 21 10 35 31 44c19 9 41 9 64 2zM413 724h-122c0 -23 -12 -35 -35 -35s-35 12 -35 35h-123c0 -49 16 -88 49 -117c29 -27 65 -40 108 -40s79 13 108 40c33 29 50 68 50 117zM91 806l79 -44c13 27 35 36 64 25
c51 -18 81 -27 92 -27c45 -1 77 33 94 102l-82 46c-11 -26 -30 -34 -57 -23c-45 18 -70 27 -75 27c-63 2 -101 -33 -115 -106z" />
    <glyph glyph-name="Abrv.dotbl" unicode="&#x1eb6;" 
d="M651 0l-253 708h-163l-247 -708h192l44 142h189l46 -142h192zM370 301h-106l52 207h5zM478 914h-122c0 -23 -12 -35 -35 -35s-35 12 -35 35h-123c0 -49 16 -88 49 -117c29 -27 65 -40 108 -40s79 13 108 40c33 29 50 68 50 117zM253 -74c-20 -17 -30 -40 -30 -70
s10 -53 30 -70c19 -16 41 -24 67 -23c26 0 48 8 67 23c20 17 30 41 30 70s-10 53 -30 70c-19 15 -41 23 -67 23c-26 1 -48 -7 -67 -23z" />
    <glyph glyph-name="Abrv.dotbl" unicode="&#x1eb7;" horiz-adv-x="483" 
d="M301 319c-15 3 -35 4 -60 4c-63 0 -111 -16 -146 -47c-33 -29 -49 -67 -49 -114c0 -115 73 -172 218 -172c69 0 136 12 200 35v318c0 60 -21 107 -63 140c-37 30 -85 45 -142 45c-85 0 -150 -31 -196 -93l78 -79c28 25 58 37 90 37c49 0 73 -25 70 -74zM299 209v-89
c-24 -6 -45 -7 -62 -2c-22 7 -33 22 -33 45c0 21 10 35 31 44c19 9 41 9 64 2zM413 724h-122c0 -23 -12 -35 -35 -35s-35 12 -35 35h-123c0 -49 16 -88 49 -117c29 -27 65 -40 108 -40s79 13 108 40c33 29 50 68 50 117zM188 -74c-20 -17 -30 -40 -30 -70s10 -53 30 -70
c19 -16 41 -24 67 -23c26 0 48 8 67 23c20 17 30 41 30 70s-10 53 -30 70c-19 15 -41 23 -67 23c-26 1 -48 -7 -67 -23z" />
    <glyph glyph-name="E.dotbl" unicode="&#x1eb8;" horiz-adv-x="588" 
d="M293 430v110h312v168h-493v-708h493v169h-312v106h287v155h-287zM292 -74c-20 -17 -30 -40 -30 -70s10 -53 30 -70c19 -16 41 -24 67 -23c26 0 48 8 67 23c20 17 30 41 30 70s-10 53 -30 70c-19 15 -41 23 -67 23c-26 1 -48 -7 -67 -23z" />
    <glyph glyph-name="E.dotbl" unicode="&#x1eb9;" horiz-adv-x="479" 
d="M224 180v19h261v140c0 61 -21 108 -62 143c-37 31 -84 46 -140 46c-58 0 -107 -15 -146 -45c-45 -33 -67 -80 -67 -141v-162c0 -60 23 -108 68 -143c40 -31 89 -47 147 -47c81 0 142 30 185 90l-94 76c-19 -23 -46 -35 -79 -35c-20 0 -37 5 -51 15c-15 11 -22 26 -22 44z
M339 347v-37h-113v34c0 32 19 48 57 48c37 0 56 -15 56 -45zM211 -74c-20 -17 -30 -40 -30 -70s10 -53 30 -70c19 -16 41 -24 67 -23c26 0 48 8 67 23c20 17 30 41 30 70s-10 53 -30 70c-19 15 -41 23 -67 23c-26 1 -48 -7 -67 -23z" />
    <glyph glyph-name="E.hook" unicode="&#x1eba;" horiz-adv-x="588" 
d="M293 430v110h312v168h-493v-708h493v169h-312v106h287v155h-287zM272 913l47 -41c9 16 21 23 36 22c14 -1 21 -8 21 -19s-6 -19 -17 -24s-27 -4 -47 4l5 -82h67l3 27c20 3 37 12 50 29c11 15 17 32 17 51c0 22 -7 41 -22 58c-13 15 -29 25 -50 30s-40 3 -59 -5
c-21 -9 -38 -25 -51 -50z" />
    <glyph glyph-name="E.hook" unicode="&#x1ebb;" horiz-adv-x="479" 
d="M224 180v19h261v140c0 61 -21 108 -62 143c-37 31 -84 46 -140 46c-58 0 -107 -15 -146 -45c-45 -33 -67 -80 -67 -141v-162c0 -60 23 -108 68 -143c40 -31 89 -47 147 -47c81 0 142 30 185 90l-94 76c-19 -23 -46 -35 -79 -35c-20 0 -37 5 -51 15c-15 11 -22 26 -22 44z
M339 347v-37h-113v34c0 32 19 48 57 48c37 0 56 -15 56 -45zM191 723l47 -41c9 16 21 23 36 22c14 -1 21 -8 21 -19s-6 -19 -17 -24s-27 -4 -47 4l5 -82h67l3 27c20 3 37 12 50 29c11 15 17 32 17 51c0 22 -7 41 -22 58c-13 15 -29 25 -50 30s-40 3 -59 -5
c-21 -9 -38 -25 -51 -50z" />
    <glyph glyph-name="E.tilde" unicode="&#x1ebc;" horiz-adv-x="588" 
d="M293 430v110h312v168h-493v-708h493v169h-312v106h287v155h-287zM194 803l79 -44c13 27 35 36 64 25c51 -18 81 -27 92 -27c45 -1 77 33 94 102l-82 46c-11 -26 -30 -34 -57 -23c-45 18 -70 27 -75 27c-63 2 -101 -33 -115 -106z" />
    <glyph glyph-name="E.tilde" unicode="&#x1ebd;" horiz-adv-x="479" 
d="M224 180v19h261v140c0 61 -21 108 -62 143c-37 31 -84 46 -140 46c-58 0 -107 -15 -146 -45c-45 -33 -67 -80 -67 -141v-162c0 -60 23 -108 68 -143c40 -31 89 -47 147 -47c81 0 142 30 185 90l-94 76c-19 -23 -46 -35 -79 -35c-20 0 -37 5 -51 15c-15 11 -22 26 -22 44z
M339 347v-37h-113v34c0 32 19 48 57 48c37 0 56 -15 56 -45zM113 613l79 -44c13 27 35 36 64 25c51 -18 81 -27 92 -27c45 -1 77 33 94 102l-82 46c-11 -26 -30 -34 -57 -23c-45 18 -70 27 -75 27c-63 2 -101 -33 -115 -106z" />
    <glyph glyph-name="Ecir.acute" unicode="&#x1ebe;" horiz-adv-x="588" 
d="M293 430v110h312v168h-493v-708h493v169h-312v106h287v155h-287zM548 760l-135 151h-105l-139 -151h152l40 47l41 -47h146zM611 890l118 149h-168l-90 -149h140z" />
    <glyph glyph-name="Ecir.acute" unicode="&#x1ebf;" horiz-adv-x="479" 
d="M227 180v19h261v140c0 61 -21 108 -62 143c-37 31 -84 46 -140 46c-58 0 -107 -15 -146 -45c-45 -33 -67 -80 -67 -141v-162c0 -60 23 -108 68 -143c40 -31 89 -47 147 -47c81 0 142 30 185 90l-94 76c-19 -23 -46 -35 -79 -35c-20 0 -37 5 -51 15c-15 11 -22 26 -22 44z
M342 347v-37h-113v34c0 32 19 48 57 48c37 0 56 -15 56 -45zM470 567l-135 151h-105l-139 -151h152l40 47l41 -47h146zM544 691l118 149h-168l-90 -149h140z" />
    <glyph glyph-name="Ecir.grave" unicode="&#x1ec0;" horiz-adv-x="588" 
d="M183 430v110h312v168h-493v-708h493v169h-312v106h287v155h-287zM448 760l-135 151h-105l-139 -151h152l40 47l41 -47h146zM10 895h140l-90 149h-168z" />
    <glyph glyph-name="Ecir.grave" unicode="&#x1ec1;" horiz-adv-x="479" 
d="M101 180v19h261v140c0 61 -21 108 -62 143c-37 31 -84 46 -140 46c-58 0 -107 -15 -146 -45c-45 -33 -67 -80 -67 -141v-162c0 -60 23 -108 68 -143c40 -31 89 -47 147 -47c81 0 142 30 185 90l-94 76c-19 -23 -46 -35 -79 -35c-20 0 -37 5 -51 15c-15 11 -22 26 -22 44z
M216 347v-37h-113v34c0 32 19 48 57 48c37 0 56 -15 56 -45zM344 567l-135 151h-105l-139 -151h152l40 47l41 -47h146zM-60 708h140l-90 149h-168z" />
    <glyph glyph-name="Ecir.hook" unicode="&#x1ec2;" horiz-adv-x="588" 
d="M293 430v110h312v168h-493v-708h493v169h-312v106h287v155h-287zM548 760l-135 151h-105l-139 -151h152l40 47l41 -47h146zM439 1027l47 -41c9 16 21 23 36 22c14 -1 21 -8 21 -19s-6 -19 -17 -24s-27 -4 -47 4l5 -82h67l3 27c20 3 37 12 50 29c11 15 17 32 17 51
c0 22 -7 41 -22 58c-13 15 -29 25 -50 30s-40 3 -59 -5c-21 -9 -38 -25 -51 -50z" />
    <glyph glyph-name="Ecir.hook" unicode="&#x1ec3;" horiz-adv-x="479" 
d="M227 180v19h261v140c0 61 -21 108 -62 143c-37 31 -84 46 -140 46c-58 0 -107 -15 -146 -45c-45 -33 -67 -80 -67 -141v-162c0 -60 23 -108 68 -143c40 -31 89 -47 147 -47c81 0 142 30 185 90l-94 76c-19 -23 -46 -35 -79 -35c-20 0 -37 5 -51 15c-15 11 -22 26 -22 44z
M342 347v-37h-113v34c0 32 19 48 57 48c37 0 56 -15 56 -45zM470 567l-135 151h-105l-139 -151h152l40 47l41 -47h146zM357 843l47 -41c9 16 21 23 36 22c14 -1 21 -8 21 -19s-6 -19 -17 -24s-27 -4 -47 4l5 -82h67l3 27c20 3 37 12 50 29c11 15 17 32 17 51
c0 22 -7 41 -22 58c-13 15 -29 25 -50 30s-40 3 -59 -5c-21 -9 -38 -25 -51 -50z" />
    <glyph glyph-name="Ecir.tilde" unicode="&#x1ec4;" horiz-adv-x="588" 
d="M293 430v110h312v168h-493v-708h493v169h-312v106h287v155h-287zM548 761l-135 151h-105l-139 -151h152l40 47l41 -47h146zM202 971l79 -44c13 27 35 36 64 25c51 -18 81 -27 92 -27c45 -1 77 33 94 102l-82 46c-11 -26 -30 -34 -57 -23c-45 18 -70 27 -75 27
c-63 2 -101 -33 -115 -106z" />
    <glyph glyph-name="Ecir.tilde" unicode="&#x1ec5;" horiz-adv-x="479" 
d="M227 180v19h261v140c0 61 -21 108 -62 143c-37 31 -84 46 -140 46c-58 0 -107 -15 -146 -45c-45 -33 -67 -80 -67 -141v-162c0 -60 23 -108 68 -143c40 -31 89 -47 147 -47c81 0 142 30 185 90l-94 76c-19 -23 -46 -35 -79 -35c-20 0 -37 5 -51 15c-15 11 -22 26 -22 44z
M342 347v-37h-113v34c0 32 19 48 57 48c37 0 56 -15 56 -45zM470 567l-135 151h-105l-139 -151h152l40 47l41 -47h146zM130 785l79 -44c13 27 35 36 64 25c51 -18 81 -27 92 -27c45 -1 77 33 94 102l-82 46c-11 -26 -30 -34 -57 -23c-45 18 -70 27 -75 27
c-63 2 -101 -33 -115 -106z" />
    <glyph glyph-name="Ecir.dotbl" unicode="&#x1ec6;" horiz-adv-x="588" 
d="M293 430v110h312v168h-493v-708h493v169h-312v106h287v155h-287zM548 757l-135 151h-105l-139 -151h152l40 47l41 -47h146zM292 -74c-20 -17 -30 -40 -30 -70s10 -53 30 -70c19 -16 41 -24 67 -23c26 0 48 8 67 23c20 17 30 41 30 70s-10 53 -30 70c-19 15 -41 23 -67 23
c-26 1 -48 -7 -67 -23z" />
    <glyph glyph-name="Ecir.dotbl" unicode="&#x1ec7;" horiz-adv-x="479" 
d="M227 180v19h261v140c0 61 -21 108 -62 143c-37 31 -84 46 -140 46c-58 0 -107 -15 -146 -45c-45 -33 -67 -80 -67 -141v-162c0 -60 23 -108 68 -143c40 -31 89 -47 147 -47c81 0 142 30 185 90l-94 76c-19 -23 -46 -35 -79 -35c-20 0 -37 5 -51 15c-15 11 -22 26 -22 44z
M342 347v-37h-113v34c0 32 19 48 57 48c37 0 56 -15 56 -45zM470 567l-135 151h-105l-139 -151h152l40 47l41 -47h146zM214 -74c-20 -17 -30 -40 -30 -70s10 -53 30 -70c19 -16 41 -24 67 -23c26 0 48 8 67 23c20 17 30 41 30 70s-10 53 -30 70c-19 15 -41 23 -67 23
c-26 1 -48 -7 -67 -23z" />
    <glyph glyph-name="I.hook" unicode="&#x1ec8;" horiz-adv-x="291" 
d="M291 0v708h-179v-708h179zM115 913l47 -41c9 16 21 23 36 22c14 -1 21 -8 21 -19s-6 -19 -17 -24s-27 -4 -47 4l5 -82h67l3 27c20 3 37 12 50 29c11 15 17 32 17 51c0 22 -7 41 -22 58c-13 15 -29 25 -50 30s-40 3 -59 -5c-21 -9 -38 -25 -51 -50z" />
    <glyph glyph-name="I.hook" unicode="&#x1ec9;" horiz-adv-x="268" 
d="M270 0v518h-172v-518h172zM98 723l47 -41c9 16 21 23 36 22c14 -1 21 -8 21 -19s-6 -19 -17 -24s-27 -4 -47 4l5 -82h67l3 27c20 3 37 12 50 29c11 15 17 32 17 51c0 22 -7 41 -22 58c-13 15 -29 25 -50 30s-40 3 -59 -5c-21 -9 -38 -25 -51 -50z" />
    <glyph glyph-name="I.dotbl" unicode="&#x1eca;" horiz-adv-x="291" 
d="M291 0v708h-179v-708h179zM135 -74c-20 -17 -30 -40 -30 -70s10 -53 30 -70c19 -16 41 -24 67 -23c26 0 48 8 67 23c20 17 30 41 30 70s-10 53 -30 70c-19 15 -41 23 -67 23c-26 1 -48 -7 -67 -23z" />
    <glyph glyph-name="I.dotbl" unicode="&#x1ecb;" horiz-adv-x="264" 
d="M98 709c-20 -17 -30 -40 -30 -70s10 -53 30 -70c19 -16 41 -24 67 -23c26 0 48 8 67 23c20 17 30 41 30 70s-10 53 -30 70c-19 15 -41 23 -67 23c-26 1 -48 -7 -67 -23zM250 518h-168v-518h168v518zM98 -74c-20 -17 -30 -40 -30 -70s10 -53 30 -70c19 -16 41 -24 67 -23
c26 0 48 8 67 23c20 17 30 41 30 70s-10 53 -30 70c-19 15 -41 23 -67 23c-26 1 -48 -7 -67 -23z" />
    <glyph glyph-name="O.dotbl" unicode="&#x1ecc;" horiz-adv-x="665" 
d="M78 475v-242c0 -77 31 -137 92 -182c55 -41 123 -61 202 -61s147 20 202 61c61 45 91 105 91 182v242c0 77 -31 137 -92 182c-55 41 -123 61 -202 61c-80 0 -147 -20 -202 -60c-61 -45 -91 -106 -91 -183zM257 233v242c0 25 12 45 35 60c21 13 47 20 77 20
c32 0 59 -6 80 -19c25 -15 37 -35 37 -61v-242c0 -24 -12 -43 -36 -58c-21 -13 -47 -19 -78 -19s-58 6 -79 19c-24 14 -36 33 -36 58zM305 -74c-20 -17 -30 -40 -30 -70s10 -53 30 -70c19 -16 41 -24 67 -23c26 0 48 8 67 23c20 17 30 41 30 70s-10 53 -30 70
c-19 15 -41 23 -67 23c-26 1 -48 -7 -67 -23z" />
    <glyph glyph-name="O.dotbl" unicode="&#x1ecd;" horiz-adv-x="493" 
d="M70 337v-164c0 -57 22 -103 66 -136c39 -31 88 -46 145 -47c57 0 106 15 146 46c44 34 66 80 66 137v164c0 60 -22 108 -67 143c-39 31 -88 47 -145 48c-57 -1 -106 -17 -145 -48c-44 -35 -66 -83 -66 -143zM251 368c9 7 19 10 30 10s22 -3 31 -10c10 -7 15 -17 15 -28
v-169c0 -11 -5 -21 -15 -28c-9 -7 -19 -11 -31 -11s-22 4 -31 11c-10 7 -15 17 -15 28v169c0 11 5 21 16 28zM215 -74c-20 -17 -30 -40 -30 -70s10 -53 30 -70c19 -16 41 -24 67 -23c26 0 48 8 67 23c20 17 30 41 30 70s-10 53 -30 70c-19 15 -41 23 -67 23
c-26 1 -48 -7 -67 -23z" />
    <glyph glyph-name="O.hook" unicode="&#x1ece;" horiz-adv-x="665" 
d="M78 475v-242c0 -77 31 -137 92 -182c55 -41 123 -61 202 -61s147 20 202 61c61 45 91 105 91 182v242c0 77 -31 137 -92 182c-55 41 -123 61 -202 61c-80 0 -147 -20 -202 -60c-61 -45 -91 -106 -91 -183zM257 233v242c0 25 12 45 35 60c21 13 47 20 77 20
c32 0 59 -6 80 -19c25 -15 37 -35 37 -61v-242c0 -24 -12 -43 -36 -58c-21 -13 -47 -19 -78 -19s-58 6 -79 19c-24 14 -36 33 -36 58zM285 913l47 -41c9 16 21 23 36 22c14 -1 21 -8 21 -19s-6 -19 -17 -24s-27 -4 -47 4l5 -82h67l3 27c20 3 37 12 50 29c11 15 17 32 17 51
c0 22 -7 41 -22 58c-13 15 -29 25 -50 30s-40 3 -59 -5c-21 -9 -38 -25 -51 -50z" />
    <glyph glyph-name="O.hook" unicode="&#x1ecf;" horiz-adv-x="493" 
d="M70 337v-164c0 -57 22 -103 66 -136c39 -31 88 -46 145 -47c57 0 106 15 146 46c44 34 66 80 66 137v164c0 60 -22 108 -67 143c-39 31 -88 47 -145 48c-57 -1 -106 -17 -145 -48c-44 -35 -66 -83 -66 -143zM251 368c9 7 19 10 30 10s22 -3 31 -10c10 -7 15 -17 15 -28
v-169c0 -11 -5 -21 -15 -28c-9 -7 -19 -11 -31 -11s-22 4 -31 11c-10 7 -15 17 -15 28v169c0 11 5 21 16 28zM195 723l47 -41c9 16 21 23 36 22c14 -1 21 -8 21 -19s-6 -19 -17 -24s-27 -4 -47 4l5 -82h67l3 27c20 3 37 12 50 29c11 15 17 32 17 51c0 22 -7 41 -22 58
c-13 15 -29 25 -50 30s-40 3 -59 -5c-21 -9 -38 -25 -51 -50z" />
    <glyph glyph-name="Ocir.acute" unicode="&#x1ed0;" horiz-adv-x="665" 
d="M78 475v-242c0 -77 31 -137 92 -182c55 -41 123 -61 202 -61s147 20 202 61c61 45 91 105 91 182v242c0 77 -31 137 -92 182c-55 41 -123 61 -202 61c-80 0 -147 -20 -202 -60c-61 -45 -91 -106 -91 -183zM257 233v242c0 25 12 45 35 60c21 13 47 20 77 20
c32 0 59 -6 80 -19c25 -15 37 -35 37 -61v-242c0 -24 -12 -43 -36 -58c-21 -13 -47 -19 -78 -19s-58 6 -79 19c-24 14 -36 33 -36 58zM561 760l-135 151h-105l-139 -151h152l40 47l41 -47h146zM624 890l118 149h-168l-90 -149h140z" />
    <glyph glyph-name="Ocir.acute" unicode="&#x1ed1;" horiz-adv-x="493" 
d="M70 337v-164c0 -57 22 -103 66 -136c39 -31 88 -46 145 -47c57 0 106 15 146 46c44 34 66 80 66 137v164c0 60 -22 108 -67 143c-39 31 -88 47 -145 48c-57 -1 -106 -17 -145 -48c-44 -35 -66 -83 -66 -143zM251 368c9 7 19 10 30 10s22 -3 31 -10c10 -7 15 -17 15 -28
v-169c0 -11 -5 -21 -15 -28c-9 -7 -19 -11 -31 -11s-22 4 -31 11c-10 7 -15 17 -15 28v169c0 11 5 21 16 28zM471 567l-135 151h-105l-139 -151h152l40 47l41 -47h146zM512 698l118 149h-168l-90 -149h140z" />
    <glyph glyph-name="Ocir.grave" unicode="&#x1ed2;" horiz-adv-x="665" 
d="M15 475v-242c0 -77 31 -137 92 -182c55 -41 123 -61 202 -61s147 20 202 61c61 45 91 105 91 182v242c0 77 -31 137 -92 182c-55 41 -123 61 -202 61c-80 0 -147 -20 -202 -60c-61 -45 -91 -106 -91 -183zM194 233v242c0 25 12 45 35 60c21 13 47 20 77 20
c32 0 59 -6 80 -19c25 -15 37 -35 37 -61v-242c0 -24 -12 -43 -36 -58c-21 -13 -47 -19 -78 -19s-58 6 -79 19c-24 14 -36 33 -36 58zM508 760l-135 151h-105l-139 -151h152l40 47l41 -47h146zM70 895h140l-90 149h-168z" />
    <glyph glyph-name="Ocir.grave" unicode="&#x1ed3;" horiz-adv-x="493" 
d="M-89 337v-164c0 -57 22 -103 66 -136c39 -31 88 -46 145 -47c57 0 106 15 146 46c44 34 66 80 66 137v164c0 60 -22 108 -67 143c-39 31 -88 47 -145 48c-57 -1 -106 -17 -145 -48c-44 -35 -66 -83 -66 -143zM92 368c9 7 19 10 30 10s22 -3 31 -10c10 -7 15 -17 15 -28
v-169c0 -11 -5 -21 -15 -28c-9 -7 -19 -11 -31 -11s-22 4 -31 11c-10 7 -15 17 -15 28v169c0 11 5 21 16 28zM312 567l-135 151h-105l-139 -151h152l40 47l41 -47h146zM-130 691h140l-90 149h-168z" />
    <glyph glyph-name="Ocir.hook" unicode="&#x1ed4;" horiz-adv-x="665" 
d="M78 475v-242c0 -77 31 -137 92 -182c55 -41 123 -61 202 -61s147 20 202 61c61 45 91 105 91 182v242c0 77 -31 137 -92 182c-55 41 -123 61 -202 61c-80 0 -147 -20 -202 -60c-61 -45 -91 -106 -91 -183zM257 233v242c0 25 12 45 35 60c21 13 47 20 77 20
c32 0 59 -6 80 -19c25 -15 37 -35 37 -61v-242c0 -24 -12 -43 -36 -58c-21 -13 -47 -19 -78 -19s-58 6 -79 19c-24 14 -36 33 -36 58zM561 760l-135 151h-105l-139 -151h152l40 47l41 -47h146zM452 1027l47 -41c9 16 21 23 36 22c14 -1 21 -8 21 -19s-6 -19 -17 -24
s-27 -4 -47 4l5 -82h67l3 27c20 3 37 12 50 29c11 15 17 32 17 51c0 22 -7 41 -22 58c-13 15 -29 25 -50 30s-40 3 -59 -5c-21 -9 -38 -25 -51 -50z" />
    <glyph glyph-name="Ocir.hook" unicode="&#x1ed5;" horiz-adv-x="493" 
d="M70 337v-164c0 -57 22 -103 66 -136c39 -31 88 -46 145 -47c57 0 106 15 146 46c44 34 66 80 66 137v164c0 60 -22 108 -67 143c-39 31 -88 47 -145 48c-57 -1 -106 -17 -145 -48c-44 -35 -66 -83 -66 -143zM251 368c9 7 19 10 30 10s22 -3 31 -10c10 -7 15 -17 15 -28
v-169c0 -11 -5 -21 -15 -28c-9 -7 -19 -11 -31 -11s-22 4 -31 11c-10 7 -15 17 -15 28v169c0 11 5 21 16 28zM471 567l-135 151h-105l-139 -151h152l40 47l41 -47h146zM359 826l47 -41c9 16 21 23 36 22c14 -1 21 -8 21 -19s-6 -19 -17 -24s-27 -4 -47 4l5 -82h67l3 27
c20 3 37 12 50 29c11 15 17 32 17 51c0 22 -7 41 -22 58c-13 15 -29 25 -50 30s-40 3 -59 -5c-21 -9 -38 -25 -51 -50z" />
    <glyph glyph-name="Ocir.tilde" unicode="&#x1ed6;" horiz-adv-x="665" 
d="M78 475v-242c0 -77 31 -137 92 -182c55 -41 123 -61 202 -61s147 20 202 61c61 45 91 105 91 182v242c0 77 -31 137 -92 182c-55 41 -123 61 -202 61c-80 0 -147 -20 -202 -60c-61 -45 -91 -106 -91 -183zM257 233v242c0 25 12 45 35 60c21 13 47 20 77 20
c32 0 59 -6 80 -19c25 -15 37 -35 37 -61v-242c0 -24 -12 -43 -36 -58c-21 -13 -47 -19 -78 -19s-58 6 -79 19c-24 14 -36 33 -36 58zM561 761l-135 151h-105l-139 -151h152l40 47l41 -47h146zM215 971l79 -44c13 27 35 36 64 25c51 -18 81 -27 92 -27c45 -1 77 33 94 102
l-82 46c-11 -26 -30 -34 -57 -23c-45 18 -70 27 -75 27c-63 2 -101 -33 -115 -106z" />
    <glyph glyph-name="Ocir.tilde" unicode="&#x1ed7;" horiz-adv-x="493" 
d="M70 337v-164c0 -57 22 -103 66 -136c39 -31 88 -46 145 -47c57 0 106 15 146 46c44 34 66 80 66 137v164c0 60 -22 108 -67 143c-39 31 -88 47 -145 48c-57 -1 -106 -17 -145 -48c-44 -35 -66 -83 -66 -143zM251 368c9 7 19 10 30 10s22 -3 31 -10c10 -7 15 -17 15 -28
v-169c0 -11 -5 -21 -15 -28c-9 -7 -19 -11 -31 -11s-22 4 -31 11c-10 7 -15 17 -15 28v169c0 11 5 21 16 28zM471 567l-135 151h-105l-139 -151h152l40 47l41 -47h146zM123 784l79 -44c13 27 35 36 64 25c51 -18 81 -27 92 -27c45 -1 77 33 94 102l-82 46
c-11 -26 -30 -34 -57 -23c-45 18 -70 27 -75 27c-63 2 -101 -33 -115 -106z" />
    <glyph glyph-name="Ocir.dotbl" unicode="&#x1ed8;" horiz-adv-x="665" 
d="M78 475v-242c0 -77 31 -137 92 -182c55 -41 123 -61 202 -61s147 20 202 61c61 45 91 105 91 182v242c0 77 -31 137 -92 182c-55 41 -123 61 -202 61c-80 0 -147 -20 -202 -60c-61 -45 -91 -106 -91 -183zM257 233v242c0 25 12 45 35 60c21 13 47 20 77 20
c32 0 59 -6 80 -19c25 -15 37 -35 37 -61v-242c0 -24 -12 -43 -36 -58c-21 -13 -47 -19 -78 -19s-58 6 -79 19c-24 14 -36 33 -36 58zM561 757l-135 151h-105l-139 -151h152l40 47l41 -47h146zM305 -74c-20 -17 -30 -40 -30 -70s10 -53 30 -70c19 -16 41 -24 67 -23
c26 0 48 8 67 23c20 17 30 41 30 70s-10 53 -30 70c-19 15 -41 23 -67 23c-26 1 -48 -7 -67 -23z" />
    <glyph glyph-name="Ocir.dotbl" unicode="&#x1ed9;" horiz-adv-x="493" 
d="M70 337v-164c0 -57 22 -103 66 -136c39 -31 88 -46 145 -47c57 0 106 15 146 46c44 34 66 80 66 137v164c0 60 -22 108 -67 143c-39 31 -88 47 -145 48c-57 -1 -106 -17 -145 -48c-44 -35 -66 -83 -66 -143zM251 368c9 7 19 10 30 10s22 -3 31 -10c10 -7 15 -17 15 -28
v-169c0 -11 -5 -21 -15 -28c-9 -7 -19 -11 -31 -11s-22 4 -31 11c-10 7 -15 17 -15 28v169c0 11 5 21 16 28zM471 567l-135 151h-105l-139 -151h152l40 47l41 -47h146zM215 -74c-20 -17 -30 -40 -30 -70s10 -53 30 -70c19 -16 41 -24 67 -23c26 0 48 8 67 23
c20 17 30 41 30 70s-10 53 -30 70c-19 15 -41 23 -67 23c-26 1 -48 -7 -67 -23z" />
    <glyph glyph-name="ohorn.acute" unicode="&#x1edb;" horiz-adv-x="493" 
d="M251 368c9 7 19 10 30 10s22 -3 31 -10c10 -7 15 -17 15 -28v-169c0 -11 -5 -21 -15 -28c-9 -7 -19 -11 -31 -11s-22 4 -31 11c-10 7 -15 17 -15 28v169c0 11 5 21 16 28zM461 444c9 5 19 12 29 20c32 28 47 68 44 119h-111c0 -17 -7 -32 -21 -44s-31 -19 -51 -21
c-22 7 -45 10 -70 10c-57 -1 -106 -17 -145 -48c-44 -35 -66 -83 -66 -143v-164c0 -57 22 -103 66 -136c39 -31 88 -46 145 -47c57 0 106 15 146 46c44 34 66 80 66 137v164c0 41 -11 77 -32 107zM314 567l118 149h-168l-90 -149h140z" />
    <glyph glyph-name="ohorn.acute" unicode="&#x1eda;" horiz-adv-x="665" 
d="M257 233v242c0 25 12 45 35 60c21 13 47 20 77 20c32 0 59 -6 80 -19c25 -15 37 -35 37 -61v-242c0 -24 -12 -43 -36 -58c-21 -13 -47 -19 -78 -19s-58 6 -79 19c-24 14 -36 33 -36 58zM610 624c15 7 29 17 44 28c32 28 47 68 44 119h-111c0 -17 -7 -32 -21 -44
c-15 -13 -48 -20 -97 -21c-30 8 -63 12 -98 12c-80 0 -147 -20 -202 -60c-61 -45 -91 -106 -91 -183v-242c0 -77 31 -137 92 -182c55 -41 123 -61 202 -61s147 20 202 61c61 45 91 105 91 182v242c0 59 -18 109 -55 149zM447 757l118 149h-168l-90 -149h140z" />
    <glyph glyph-name="Ohorn.grave" unicode="&#x1edc;" horiz-adv-x="665" 
d="M257 233v242c0 25 12 45 35 60c21 13 47 20 77 20c32 0 59 -6 80 -19c25 -15 37 -35 37 -61v-242c0 -24 -12 -43 -36 -58c-21 -13 -47 -19 -78 -19s-58 6 -79 19c-24 14 -36 33 -36 58zM610 624c15 7 29 17 44 28c32 28 47 68 44 119h-111c0 -17 -7 -32 -21 -44
c-15 -13 -48 -20 -97 -21c-30 8 -63 12 -98 12c-80 0 -147 -20 -202 -60c-61 -45 -91 -106 -91 -183v-242c0 -77 31 -137 92 -182c55 -41 123 -61 202 -61s147 20 202 61c61 45 91 105 91 182v242c0 59 -18 109 -55 149zM329 757h140l-90 149h-168z" />
    <glyph glyph-name="Ohorn.hook" unicode="&#x1ede;" horiz-adv-x="665" 
d="M257 233v242c0 25 12 45 35 60c21 13 47 20 77 20c32 0 59 -6 80 -19c25 -15 37 -35 37 -61v-242c0 -24 -12 -43 -36 -58c-21 -13 -47 -19 -78 -19s-58 6 -79 19c-24 14 -36 33 -36 58zM610 624c15 7 29 17 44 28c32 28 47 68 44 119h-111c0 -17 -7 -32 -21 -44
c-15 -13 -48 -20 -97 -21c-30 8 -63 12 -98 12c-80 0 -147 -20 -202 -60c-61 -45 -91 -106 -91 -183v-242c0 -77 31 -137 92 -182c55 -41 123 -61 202 -61s147 20 202 61c61 45 91 105 91 182v242c0 59 -18 109 -55 149zM302 913l47 -41c9 16 21 23 36 22
c14 -1 21 -8 21 -19s-6 -19 -17 -24s-27 -4 -47 4l5 -82h67l3 27c20 3 37 12 50 29c11 15 17 32 17 51c0 22 -7 41 -22 58c-13 15 -29 25 -50 30s-40 3 -59 -5c-21 -9 -38 -25 -51 -50z" />
    <glyph glyph-name="Ohorn.hook" unicode="&#x1edf;" horiz-adv-x="493" 
d="M251 368c9 7 19 10 30 10s22 -3 31 -10c10 -7 15 -17 15 -28v-169c0 -11 -5 -21 -15 -28c-9 -7 -19 -11 -31 -11s-22 4 -31 11c-10 7 -15 17 -15 28v169c0 11 5 21 16 28zM461 444c9 5 19 12 29 20c32 28 47 68 44 119h-111c0 -17 -7 -32 -21 -44s-31 -19 -51 -21
c-22 7 -45 10 -70 10c-57 -1 -106 -17 -145 -48c-44 -35 -66 -83 -66 -143v-164c0 -57 22 -103 66 -136c39 -31 88 -46 145 -47c57 0 106 15 146 46c44 34 66 80 66 137v164c0 41 -11 77 -32 107zM199 723l47 -41c9 16 21 23 36 22c14 -1 21 -8 21 -19s-6 -19 -17 -24
s-27 -4 -47 4l5 -82h67l3 27c20 3 37 12 50 29c11 15 17 32 17 51c0 22 -7 41 -22 58c-13 15 -29 25 -50 30s-40 3 -59 -5c-21 -9 -38 -25 -51 -50z" />
    <glyph glyph-name="Ohorn.tilde" unicode="&#x1ee0;" horiz-adv-x="665" 
d="M257 233v242c0 25 12 45 35 60c21 13 47 20 77 20c32 0 59 -6 80 -19c25 -15 37 -35 37 -61v-242c0 -24 -12 -43 -36 -58c-21 -13 -47 -19 -78 -19s-58 6 -79 19c-24 14 -36 33 -36 58zM610 624c15 7 29 17 44 28c32 28 47 68 44 119h-111c0 -17 -7 -32 -21 -44
c-15 -13 -48 -20 -97 -21c-30 8 -63 12 -98 12c-80 0 -147 -20 -202 -60c-61 -45 -91 -106 -91 -183v-242c0 -77 31 -137 92 -182c55 -41 123 -61 202 -61s147 20 202 61c61 45 91 105 91 182v242c0 59 -18 109 -55 149zM224 803l79 -44c13 27 35 36 64 25
c51 -18 81 -27 92 -27c45 -1 77 33 94 102l-82 46c-11 -26 -30 -34 -57 -23c-45 18 -70 27 -75 27c-63 2 -101 -33 -115 -106z" />
    <glyph glyph-name="Ohorn.tilde" unicode="&#x1ee1;" horiz-adv-x="493" 
d="M251 368c9 7 19 10 30 10s22 -3 31 -10c10 -7 15 -17 15 -28v-169c0 -11 -5 -21 -15 -28c-9 -7 -19 -11 -31 -11s-22 4 -31 11c-10 7 -15 17 -15 28v169c0 11 5 21 16 28zM461 444c9 5 19 12 29 20c32 28 47 68 44 119h-111c0 -17 -7 -32 -21 -44s-31 -19 -51 -21
c-22 7 -45 10 -70 10c-57 -1 -106 -17 -145 -48c-44 -35 -66 -83 -66 -143v-164c0 -57 22 -103 66 -136c39 -31 88 -46 145 -47c57 0 106 15 146 46c44 34 66 80 66 137v164c0 41 -11 77 -32 107zM101 613l79 -44c13 27 35 36 64 25c51 -18 81 -27 92 -27
c45 -1 77 33 94 102l-82 46c-11 -26 -30 -34 -57 -23c-45 18 -70 27 -75 27c-63 2 -101 -33 -115 -106z" />
    <glyph glyph-name="Ohorn.dotbl" unicode="&#x1ee2;" horiz-adv-x="665" 
d="M257 233v242c0 25 12 45 35 60c21 13 47 20 77 20c32 0 59 -6 80 -19c25 -15 37 -35 37 -61v-242c0 -24 -12 -43 -36 -58c-21 -13 -47 -19 -78 -19s-58 6 -79 19c-24 14 -36 33 -36 58zM610 624c15 7 29 17 44 28c32 28 47 68 44 119h-111c0 -17 -7 -32 -21 -44
c-15 -13 -48 -20 -97 -21c-30 8 -63 12 -98 12c-80 0 -147 -20 -202 -60c-61 -45 -91 -106 -91 -183v-242c0 -77 31 -137 92 -182c55 -41 123 -61 202 -61s147 20 202 61c61 45 91 105 91 182v242c0 59 -18 109 -55 149zM321 -74c-20 -17 -30 -40 -30 -70s10 -53 30 -70
c19 -16 41 -24 67 -23c26 0 48 8 67 23c20 17 30 41 30 70s-10 53 -30 70c-19 15 -41 23 -67 23c-26 1 -48 -7 -67 -23z" />
    <glyph glyph-name="Ohorn.dotbl" unicode="&#x1ee3;" horiz-adv-x="493" 
d="M251 368c9 7 19 10 30 10s22 -3 31 -10c10 -7 15 -17 15 -28v-169c0 -11 -5 -21 -15 -28c-9 -7 -19 -11 -31 -11s-22 4 -31 11c-10 7 -15 17 -15 28v169c0 11 5 21 16 28zM461 444c9 5 19 12 29 20c32 28 47 68 44 119h-111c0 -17 -7 -32 -21 -44s-31 -19 -51 -21
c-22 7 -45 10 -70 10c-57 -1 -106 -17 -145 -48c-44 -35 -66 -83 -66 -143v-164c0 -57 22 -103 66 -136c39 -31 88 -46 145 -47c57 0 106 15 146 46c44 34 66 80 66 137v164c0 41 -11 77 -32 107zM208 -74c-20 -17 -30 -40 -30 -70s10 -53 30 -70c19 -16 41 -24 67 -23
c26 0 48 8 67 23c20 17 30 41 30 70s-10 53 -30 70c-19 15 -41 23 -67 23c-26 1 -48 -7 -67 -23z" />
    <glyph glyph-name="U.dotbl" unicode="&#x1ee4;" horiz-adv-x="667" 
d="M285 237v471h-181v-471c0 -79 29 -141 88 -187c53 -41 117 -62 194 -62s141 21 194 62c59 46 89 108 89 187v471h-181v-471c0 -27 -11 -48 -32 -64c-19 -14 -43 -21 -70 -21s-50 7 -69 21c-21 16 -32 37 -32 64zM319 -74c-20 -17 -30 -40 -30 -70s10 -53 30 -70
c19 -16 41 -24 67 -23c26 0 48 8 67 23c20 17 30 41 30 70s-10 53 -30 70c-19 15 -41 23 -67 23c-26 1 -48 -7 -67 -23z" />
    <glyph glyph-name="U.dotbl" unicode="&#x1ee5;" horiz-adv-x="513" 
d="M510 32v486h-169v-374c-10 -4 -21 -6 -32 -6c-35 0 -53 16 -53 48v332h-168v-333c0 -69 24 -120 72 -153c40 -28 94 -42 163 -42c67 0 130 14 187 42zM232 -74c-20 -17 -30 -40 -30 -70s10 -53 30 -70c19 -16 41 -24 67 -23c26 0 48 8 67 23c20 17 30 41 30 70
s-10 53 -30 70c-19 15 -41 23 -67 23c-26 1 -48 -7 -67 -23z" />
    <glyph glyph-name="U.hook" unicode="&#x1ee6;" horiz-adv-x="667" 
d="M285 237v471h-181v-471c0 -79 29 -141 88 -187c53 -41 117 -62 194 -62s141 21 194 62c59 46 89 108 89 187v471h-181v-471c0 -27 -11 -48 -32 -64c-19 -14 -43 -21 -70 -21s-50 7 -69 21c-21 16 -32 37 -32 64zM300 913l47 -41c9 16 21 23 36 22c14 -1 21 -8 21 -19
s-6 -19 -17 -24s-27 -4 -47 4l5 -82h67l3 27c20 3 37 12 50 29c11 15 17 32 17 51c0 22 -7 41 -22 58c-13 15 -29 25 -50 30s-40 3 -59 -5c-21 -9 -38 -25 -51 -50z" />
    <glyph glyph-name="U.hook" unicode="&#x1ee7;" horiz-adv-x="513" 
d="M510 32v486h-169v-374c-10 -4 -21 -6 -32 -6c-35 0 -53 16 -53 48v332h-168v-333c0 -69 24 -120 72 -153c40 -28 94 -42 163 -42c67 0 130 14 187 42zM213 723l47 -41c9 16 21 23 36 22c14 -1 21 -8 21 -19s-6 -19 -17 -24s-27 -4 -47 4l5 -82h67l3 27c20 3 37 12 50 29
c11 15 17 32 17 51c0 22 -7 41 -22 58c-13 15 -29 25 -50 30s-40 3 -59 -5c-21 -9 -38 -25 -51 -50z" />
    <glyph glyph-name="Uhorn.acute" unicode="&#x1ee8;" horiz-adv-x="667" 
d="M669 612c25 7 51 20 76 40c32 28 47 68 44 119h-111c0 -17 -7 -32 -21 -44c-11 -9 -25 -16 -41 -19h-128v-471c0 -27 -11 -48 -32 -64c-19 -14 -43 -21 -70 -21s-50 7 -69 21c-21 16 -32 37 -32 64v471h-181v-471c0 -79 29 -141 88 -187c53 -41 117 -62 194 -62
s141 21 194 62c59 46 89 108 89 187v375zM450 757l118 149h-168l-90 -149h140z" />
    <glyph glyph-name="Uhorn.acute" unicode="&#x1ee9;" horiz-adv-x="513" 
d="M510 428c21 7 41 19 62 36c32 28 47 68 44 119h-111c0 -17 -7 -32 -21 -44c-16 -13 -36 -20 -59 -21h-84v-374c-10 -4 -21 -6 -32 -6c-35 0 -53 16 -53 48v332h-168v-333c0 -69 24 -120 72 -153c40 -28 94 -42 163 -42c67 0 130 14 187 42v396zM363 567l118 149h-168
l-90 -149h140z" />
    <glyph glyph-name="Uhorn.grave" unicode="&#x1eea;" horiz-adv-x="667" 
d="M669 612c25 7 51 20 76 40c32 28 47 68 44 119h-111c0 -17 -7 -32 -21 -44c-11 -9 -25 -16 -41 -19h-128v-471c0 -27 -11 -48 -32 -64c-19 -14 -43 -21 -70 -21s-50 7 -69 21c-21 16 -32 37 -32 64v471h-181v-471c0 -79 29 -141 88 -187c53 -41 117 -62 194 -62
s141 21 194 62c59 46 89 108 89 187v375zM318 757h140l-90 149h-168z" />
    <glyph glyph-name="Uhorn.grave" unicode="&#x1eeb;" horiz-adv-x="513" 
d="M510 428c21 7 41 19 62 36c32 28 47 68 44 119h-111c0 -17 -7 -32 -21 -44c-16 -13 -36 -20 -59 -21h-84v-374c-10 -4 -21 -6 -32 -6c-35 0 -53 16 -53 48v332h-168v-333c0 -69 24 -120 72 -153c40 -28 94 -42 163 -42c67 0 130 14 187 42v396zM231 567h140l-90 149h-168
z" />
    <glyph glyph-name="Uhorn.hook" unicode="&#x1eec;" horiz-adv-x="667" 
d="M669 612c25 7 51 20 76 40c32 28 47 68 44 119h-111c0 -17 -7 -32 -21 -44c-11 -9 -25 -16 -41 -19h-128v-471c0 -27 -11 -48 -32 -64c-19 -14 -43 -21 -70 -21s-50 7 -69 21c-21 16 -32 37 -32 64v471h-181v-471c0 -79 29 -141 88 -187c53 -41 117 -62 194 -62
s141 21 194 62c59 46 89 108 89 187v375zM303 913l47 -41c9 16 21 23 36 22c14 -1 21 -8 21 -19s-6 -19 -17 -24s-27 -4 -47 4l5 -82h67l3 27c20 3 37 12 50 29c11 15 17 32 17 51c0 22 -7 41 -22 58c-13 15 -29 25 -50 30s-40 3 -59 -5c-21 -9 -38 -25 -51 -50z" />
    <glyph glyph-name="Uhorn.hook" unicode="&#x1eed;" horiz-adv-x="513" 
d="M510 428c21 7 41 19 62 36c32 28 47 68 44 119h-111c0 -17 -7 -32 -21 -44c-16 -13 -36 -20 -59 -21h-84v-374c-10 -4 -21 -6 -32 -6c-35 0 -53 16 -53 48v332h-168v-333c0 -69 24 -120 72 -153c40 -28 94 -42 163 -42c67 0 130 14 187 42v396zM223 709l47 -41
c9 16 21 23 36 22c14 -1 21 -8 21 -19s-6 -19 -17 -24s-27 -4 -47 4l5 -82h67l3 27c20 3 37 12 50 29c11 15 17 32 17 51c0 22 -7 41 -22 58c-13 15 -29 25 -50 30s-40 3 -59 -5c-21 -9 -38 -25 -51 -50z" />
    <glyph glyph-name="Uhorn.tilde" unicode="&#x1eee;" horiz-adv-x="667" 
d="M669 612c25 7 51 20 76 40c32 28 47 68 44 119h-111c0 -17 -7 -32 -21 -44c-11 -9 -25 -16 -41 -19h-128v-471c0 -27 -11 -48 -32 -64c-19 -14 -43 -21 -70 -21s-50 7 -69 21c-21 16 -32 37 -32 64v471h-181v-471c0 -79 29 -141 88 -187c53 -41 117 -62 194 -62
s141 21 194 62c59 46 89 108 89 187v375zM217 803l79 -44c13 27 35 36 64 25c51 -18 81 -27 92 -27c45 -1 77 33 94 102l-82 46c-11 -26 -30 -34 -57 -23c-45 18 -70 27 -75 27c-63 2 -101 -33 -115 -106z" />
    <glyph glyph-name="Uhorn.tilde" unicode="&#x1eef;" horiz-adv-x="513" 
d="M510 428c21 7 41 19 62 36c32 28 47 68 44 119h-111c0 -17 -7 -32 -21 -44c-16 -13 -36 -20 -59 -21h-84v-374c-10 -4 -21 -6 -32 -6c-35 0 -53 16 -53 48v332h-168v-333c0 -69 24 -120 72 -153c40 -28 94 -42 163 -42c67 0 130 14 187 42v396zM136 613l79 -44
c13 27 35 36 64 25c51 -18 81 -27 92 -27c45 -1 77 33 94 102l-82 46c-11 -26 -30 -34 -57 -23c-45 18 -70 27 -75 27c-63 2 -101 -33 -115 -106z" />
    <glyph glyph-name="Uhorn.dotbl" unicode="&#x1ef0;" horiz-adv-x="667" 
d="M669 612c25 7 51 20 76 40c32 28 47 68 44 119h-111c0 -17 -7 -32 -21 -44c-11 -9 -25 -16 -41 -19h-128v-471c0 -27 -11 -48 -32 -64c-19 -14 -43 -21 -70 -21s-50 7 -69 21c-21 16 -32 37 -32 64v471h-181v-471c0 -79 29 -141 88 -187c53 -41 117 -62 194 -62
s141 21 194 62c59 46 89 108 89 187v375zM310 -74c-20 -17 -30 -40 -30 -70s10 -53 30 -70c19 -16 41 -24 67 -23c26 0 48 8 67 23c20 17 30 41 30 70s-10 53 -30 70c-19 15 -41 23 -67 23c-26 1 -48 -7 -67 -23z" />
    <glyph glyph-name="Uhorn.dotbl" unicode="&#x1ef1;" horiz-adv-x="513" 
d="M510 428c21 7 41 19 62 36c32 28 47 68 44 119h-111c0 -17 -7 -32 -21 -44c-16 -13 -36 -20 -59 -21h-84v-374c-10 -4 -21 -6 -32 -6c-35 0 -53 16 -53 48v332h-168v-333c0 -69 24 -120 72 -153c40 -28 94 -42 163 -42c67 0 130 14 187 42v396zM219 -74
c-20 -17 -30 -40 -30 -70s10 -53 30 -70c19 -16 41 -24 67 -23c26 0 48 8 67 23c20 17 30 41 30 70s-10 53 -30 70c-19 15 -41 23 -67 23c-26 1 -48 -7 -67 -23z" />
    <glyph glyph-name="Y.dotbl" unicode="&#x1ef4;" horiz-adv-x="655" 
d="M229 0h179v279l248 429h-210l-128 -260l-128 260h-208l247 -429v-279zM252 -74c-20 -17 -30 -40 -30 -70s10 -53 30 -70c19 -16 41 -24 67 -23c26 0 48 8 67 23c20 17 30 41 30 70s-10 53 -30 70c-19 15 -41 23 -67 23c-26 1 -48 -7 -67 -23z" />
    <glyph glyph-name="Y.dotbl" unicode="&#x1ef5;" horiz-adv-x="514" 
d="M510 12v506h-166v-379c-11 -7 -25 -11 -40 -11c-35 0 -53 16 -53 47v343h-163v-354c0 -57 19 -102 57 -133c33 -27 75 -41 126 -41c31 0 57 4 78 12c0 -53 -26 -80 -79 -80c-29 0 -60 10 -95 31l-67 -104c55 -47 117 -70 187 -70c65 0 117 19 155 58c40 41 60 100 60 175
zM544 -74c-20 -17 -30 -40 -30 -70s10 -53 30 -70c19 -16 41 -24 67 -23c26 0 48 8 67 23c20 17 30 41 30 70s-10 53 -30 70c-19 15 -41 23 -67 23c-26 1 -48 -7 -67 -23z" />
    <glyph glyph-name="Y.hook" unicode="&#x1ef6;" horiz-adv-x="655" 
d="M229 0h179v279l248 429h-210l-128 -260l-128 260h-208l247 -429v-279zM233 913l47 -41c9 16 21 23 36 22c14 -1 21 -8 21 -19s-6 -19 -17 -24s-27 -4 -47 4l5 -82h67l3 27c20 3 37 12 50 29c11 15 17 32 17 51c0 22 -7 41 -22 58c-13 15 -29 25 -50 30s-40 3 -59 -5
c-21 -9 -38 -25 -51 -50z" />
    <glyph glyph-name="Y.hook" unicode="&#x1ef7;" horiz-adv-x="514" 
d="M510 12v506h-166v-379c-11 -7 -25 -11 -40 -11c-35 0 -53 16 -53 47v343h-163v-354c0 -57 19 -102 57 -133c33 -27 75 -41 126 -41c31 0 57 4 78 12c0 -53 -26 -80 -79 -80c-29 0 -60 10 -95 31l-67 -104c55 -47 117 -70 187 -70c65 0 117 19 155 58c40 41 60 100 60 175
zM213 723l47 -41c9 16 21 23 36 22c14 -1 21 -8 21 -19s-6 -19 -17 -24s-27 -4 -47 4l5 -82h67l3 27c20 3 37 12 50 29c11 15 17 32 17 51c0 22 -7 41 -22 58c-13 15 -29 25 -50 30s-40 3 -59 -5c-21 -9 -38 -25 -51 -50z" />
    <glyph glyph-name="Ytilde" unicode="&#x1ef8;" horiz-adv-x="655" 
d="M229 0h179v279l248 429h-210l-128 -260l-128 260h-208l247 -429v-279zM155 803l79 -44c13 27 35 36 64 25c51 -18 81 -27 92 -27c45 -1 77 33 94 102l-82 46c-11 -26 -30 -34 -57 -23c-45 18 -70 27 -75 27c-63 2 -101 -33 -115 -106z" />
    <glyph glyph-name="Ytilde" unicode="&#x1ef9;" horiz-adv-x="514" 
d="M510 12v506h-166v-379c-11 -7 -25 -11 -40 -11c-35 0 -53 16 -53 47v343h-163v-354c0 -57 19 -102 57 -133c33 -27 75 -41 126 -41c31 0 57 4 78 12c0 -53 -26 -80 -79 -80c-29 0 -60 10 -95 31l-67 -104c55 -47 117 -70 187 -70c65 0 117 19 155 58c40 41 60 100 60 175
zM135 613l79 -44c13 27 35 36 64 25c51 -18 81 -27 92 -27c45 -1 77 33 94 102l-82 46c-11 -26 -30 -34 -57 -23c-45 18 -70 27 -75 27c-63 2 -101 -33 -115 -106z" />
    <glyph glyph-name="Itilde" unicode="&#x129;" horiz-adv-x="268" 
d="M286 0v518h-172v-518h172zM36 613l79 -44c13 27 35 36 64 25c51 -18 81 -27 92 -27c45 -1 77 33 94 102l-82 46c-11 -26 -30 -34 -57 -23c-45 18 -70 27 -75 27c-63 2 -101 -33 -115 -106z" />
    <glyph glyph-name="Ohorn.grave" unicode="&#x1edd;" horiz-adv-x="493" 
d="M251 368c9 7 19 10 30 10s22 -3 31 -10c10 -7 15 -17 15 -28v-169c0 -11 -5 -21 -15 -28c-9 -7 -19 -11 -31 -11s-22 4 -31 11c-10 7 -15 17 -15 28v169c0 11 5 21 16 28zM461 444c9 5 19 12 29 20c32 28 47 68 44 119h-111c0 -17 -7 -32 -21 -44s-31 -19 -51 -21
c-22 7 -45 10 -70 10c-57 -1 -106 -17 -145 -48c-44 -35 -66 -83 -66 -143v-164c0 -57 22 -103 66 -136c39 -31 88 -46 145 -47c57 0 106 15 146 46c44 34 66 80 66 137v164c0 41 -11 77 -32 107zM218 567h140l-90 149h-168z" />
    <glyph glyph-name="cir.acute" unicode="&#xe00d;" horiz-adv-x="0" 
d="M501 760l-135 151h-105l-139 -151h152l40 47l41 -47h146zM564 890l118 149h-168l-90 -149h140z" />
    <glyph glyph-name="cir.grave" unicode="&#xe00e;" horiz-adv-x="0" 
d="M324 760l-135 151h-105l-139 -151h152l40 47l41 -47h146zM-114 895h140l-90 149h-168z" />
    <glyph glyph-name="cir.tilde" unicode="&#xe00f;" horiz-adv-x="0" 
d="M501 761l-135 151h-105l-139 -151h152l40 47l41 -47h146zM155 971l79 -44c13 27 35 36 64 25c51 -18 81 -27 92 -27c45 -1 77 33 94 102l-82 46c-11 -26 -30 -34 -57 -23c-45 18 -70 27 -75 27c-63 2 -101 -33 -115 -106z" />
    <glyph glyph-name="breve.tilde" unicode="&#xe010;" horiz-adv-x="0" 
d="M433 918h-122c0 -23 -12 -35 -35 -35s-35 12 -35 35h-123c0 -49 16 -88 49 -117c29 -27 65 -40 108 -40s79 13 108 40c33 29 50 68 50 117zM100 984l79 -44c13 27 35 36 64 25c51 -18 81 -27 92 -27c45 -1 77 33 94 102l-82 46c-11 -26 -30 -34 -57 -23
c-45 18 -70 27 -75 27c-63 2 -101 -33 -115 -106z" />
    <glyph glyph-name="breve.acute" unicode="&#xe011;" horiz-adv-x="0" 
d="M451 917h-122c0 -23 -12 -35 -35 -35s-35 12 -35 35h-123c0 -49 16 -88 49 -117c29 -27 65 -40 108 -40s79 13 108 40c33 29 50 68 50 117zM363 945l118 149h-168l-90 -149h140z" />
    <glyph glyph-name="breve.grave" unicode="&#xe012;" horiz-adv-x="0" 
d="M425 917h-122c0 -23 -12 -35 -35 -35s-35 12 -35 35h-123c0 -49 16 -88 49 -117c29 -27 65 -40 108 -40s79 13 108 40c33 29 50 68 50 117zM202 939h140l-90 149h-168z" />
    <glyph glyph-name="breve.hook" unicode="&#xe013;" horiz-adv-x="0" 
d="M451 916h-122c0 -23 -12 -35 -35 -35s-35 12 -35 35h-123c0 -49 16 -88 49 -117c29 -27 65 -40 108 -40s79 13 108 40c33 29 50 68 50 117zM220 1046l47 -30c9 12 21 17 36 16c14 -1 21 -5 21 -14s-6 -15 -17 -18c-11 -4 -27 -3 -47 3l5 -62h67l3 21c20 2 37 9 50 21
c11 11 17 24 17 39c0 16 -7 30 -22 43c-13 11 -29 19 -50 23c-21 3 -40 2 -59 -4c-21 -7 -38 -19 -51 -38z" />
    <glyph glyph-name="cir.hook" unicode="&#xe014;" horiz-adv-x="0" 
d="M502 760l-135 151h-105l-139 -151h152l40 47l41 -47h146zM393 1027l47 -41c9 16 21 23 36 22c14 -1 21 -8 21 -19s-6 -19 -17 -24s-27 -4 -47 4l5 -82h67l3 27c20 3 37 12 50 29c11 15 17 32 17 51c0 22 -7 41 -22 58c-13 15 -29 25 -50 30s-40 3 -59 -5
c-21 -9 -38 -25 -51 -50z" />
    <glyph glyph-name="uniE015" unicode="&#xe015;" horiz-adv-x="406" 
d="M186 567h140l-90 149h-168z" />
    <glyph glyph-name="uniE016" unicode="&#xe016;" horiz-adv-x="386" 
d="M368 567l118 149h-168l-90 -149h140z" />
    <glyph glyph-name="uniE017" unicode="&#xe017;" horiz-adv-x="501" 
d="M501 567l-135 151h-105l-139 -151h152l40 47l41 -47h146z" />
    <glyph glyph-name="uniE018" unicode="&#xe018;" horiz-adv-x="441" 
d="M196 924h-168l150 -168h122l150 168h-167l-46 -52z" />
    <glyph glyph-name="uniE019" unicode="&#xe019;" horiz-adv-x="465" 
d="M136 613l79 -44c13 27 35 36 64 25c51 -18 81 -27 92 -27c45 -1 77 33 94 102l-82 46c-11 -26 -30 -34 -57 -23c-45 18 -70 27 -75 27c-63 2 -101 -33 -115 -106z" />
    <glyph glyph-name="uniE01A" unicode="&#xe01a;" horiz-adv-x="465" 
d="M186 567h140l-90 149h-168z" />
    <glyph glyph-name="uniE01B" unicode="&#xe01b;" horiz-adv-x="534" 
d="M241 756l111 158h-177l-75 -158h141zM467 756l117 158h-183l-74 -158h140z" />
    <glyph glyph-name="uniE01C" unicode="&#xe01c;" horiz-adv-x="450" 
d="M451 724h-122c0 -23 -12 -35 -35 -35s-35 12 -35 35h-123c0 -49 16 -88 49 -117c29 -27 65 -40 108 -40s79 13 108 40c33 29 50 68 50 117z" />
    <glyph glyph-name="uniE01D" unicode="&#xe01d;" horiz-adv-x="450" 
d="M451 724h-122c0 -23 -12 -35 -35 -35s-35 12 -35 35h-123c0 -49 16 -88 49 -117c29 -27 65 -40 108 -40s79 13 108 40c33 29 50 68 50 117z" />
    <glyph glyph-name="uniE01E" unicode="&#xe01e;" horiz-adv-x="359" 
d="M135 961c-26 -25 -39 -55 -39 -90s13 -65 39 -89s57 -36 94 -36c35 0 66 12 92 37c25 24 38 53 38 87c0 33 -13 63 -38 88c-25 26 -56 39 -92 39c-37 0 -68 -12 -94 -36zM255 897c7 -8 10 -17 10 -28c0 -23 -12 -35 -36 -35c-11 0 -21 4 -28 12c-7 7 -10 14 -10 23
c0 27 13 40 38 40c10 0 19 -4 26 -12z" />
    <glyph glyph-name="uniE01F" unicode="&#xe01f;" horiz-adv-x="491" 
d="M324 723l47 -41c9 16 21 23 36 22c14 -1 21 -8 21 -19s-6 -19 -17 -24s-27 -4 -47 4l5 -82h67l3 27c20 3 37 12 50 29c11 15 17 32 17 51c0 22 -7 41 -22 58c-13 15 -29 25 -50 30s-40 3 -59 -5c-21 -9 -38 -25 -51 -50z" />
    <glyph glyph-name="uniE020" unicode="&#xe020;" horiz-adv-x="688" 
d="M129 920c-19 -19 -29 -42 -29 -69s10 -51 29 -70s42 -28 70 -28s51 9 70 28c18 19 27 42 27 70c0 27 -9 50 -27 69c-19 19 -42 28 -70 28s-51 -9 -70 -28zM521 920c-19 -19 -29 -42 -29 -69s10 -51 29 -70s42 -28 70 -28s51 9 70 28c18 19 27 42 27 70c0 27 -9 50 -27 69
c-19 19 -42 28 -70 28s-51 -9 -70 -28z" />
    <glyph glyph-name="gravecomb" unicode="&#x300;" horiz-adv-x="0" 
d="M-538 567h140l-90 149h-168z" />
    <glyph glyph-name="acutecomb" unicode="&#x301;" horiz-adv-x="0" 
d="M-486 567l118 149h-168l-90 -149h140z" />
    <glyph glyph-name="tildecomb" unicode="&#x303;" horiz-adv-x="0" 
d="M-706 613l79 -44c13 27 35 36 64 25c51 -18 81 -27 92 -27c45 -1 77 33 94 102l-82 46c-11 -26 -30 -34 -57 -23c-45 18 -70 27 -75 27c-63 2 -101 -33 -115 -106z" />
    <glyph glyph-name="dotbelowcomb" unicode="&#x323;" horiz-adv-x="264" 
d="M98 -74c-20 -17 -30 -40 -30 -70s10 -53 30 -70c19 -16 41 -24 67 -23c26 0 48 8 67 23c20 17 30 41 30 70s-10 53 -30 70c-19 15 -41 23 -67 23c-26 1 -48 -7 -67 -23z" />
    <glyph glyph-name="uni031B" unicode="&#x31b;" horiz-adv-x="0" 
d="M953 583h-111c0 -17 -7 -32 -21 -44c-16 -13 -36 -20 -59 -21v-96c49 -11 98 3 147 42c32 28 47 68 44 119z" />
    <glyph glyph-name="hookabovecomb" unicode="&#x309;" horiz-adv-x="491" 
d="M324 723l47 -41c9 16 21 23 36 22c14 -1 21 -8 21 -19s-6 -19 -17 -24s-27 -4 -47 4l5 -82h67l3 27c20 3 37 12 50 29c11 15 17 32 17 51c0 22 -7 41 -22 58c-13 15 -29 25 -50 30s-40 3 -59 -5c-21 -9 -38 -25 -51 -50z" />
    </font>
</defs>
</svg>
